G04 EAGLE Gerber RS-274X export*
G75*
%MOMM*%
%FSLAX34Y34*%
%LPD*%
%INBottom Copper*%
%IPPOS*%
%AMOC8*
5,1,8,0,0,1.08239X$1,22.5*%
G01*
%ADD10R,0.650000X1.500000*%
%ADD11C,1.879600*%
%ADD12R,1.524000X0.762000*%
%ADD13C,1.879600*%
%ADD14R,1.400000X1.200000*%
%ADD15C,0.756400*%
%ADD16C,0.812800*%
%ADD17C,0.406400*%
%ADD18C,0.304800*%

G36*
X217580Y10164D02*
X217580Y10164D01*
X217606Y10162D01*
X217753Y10184D01*
X217900Y10201D01*
X217925Y10209D01*
X217951Y10213D01*
X218089Y10268D01*
X218228Y10318D01*
X218250Y10332D01*
X218275Y10342D01*
X218396Y10427D01*
X218521Y10507D01*
X218539Y10526D01*
X218561Y10541D01*
X218660Y10651D01*
X218763Y10758D01*
X218777Y10780D01*
X218794Y10800D01*
X218866Y10930D01*
X218942Y11057D01*
X218950Y11082D01*
X218963Y11105D01*
X219003Y11248D01*
X219048Y11389D01*
X219050Y11415D01*
X219058Y11440D01*
X219077Y11684D01*
X219077Y16077D01*
X220740Y20091D01*
X223813Y23164D01*
X227827Y24827D01*
X232173Y24827D01*
X236187Y23164D01*
X239260Y20091D01*
X240923Y16077D01*
X240923Y11684D01*
X240926Y11658D01*
X240924Y11632D01*
X240946Y11485D01*
X240963Y11338D01*
X240971Y11313D01*
X240975Y11287D01*
X241030Y11149D01*
X241080Y11010D01*
X241094Y10988D01*
X241104Y10963D01*
X241189Y10842D01*
X241269Y10717D01*
X241288Y10699D01*
X241303Y10677D01*
X241413Y10578D01*
X241520Y10475D01*
X241542Y10461D01*
X241562Y10444D01*
X241692Y10372D01*
X241819Y10296D01*
X241844Y10288D01*
X241867Y10275D01*
X242010Y10235D01*
X242151Y10190D01*
X242177Y10188D01*
X242202Y10180D01*
X242446Y10161D01*
X242954Y10161D01*
X242980Y10164D01*
X243006Y10162D01*
X243153Y10184D01*
X243300Y10201D01*
X243325Y10209D01*
X243351Y10213D01*
X243489Y10268D01*
X243628Y10318D01*
X243650Y10332D01*
X243675Y10342D01*
X243796Y10427D01*
X243921Y10507D01*
X243939Y10526D01*
X243961Y10541D01*
X244060Y10651D01*
X244163Y10758D01*
X244177Y10780D01*
X244194Y10800D01*
X244266Y10930D01*
X244342Y11057D01*
X244350Y11082D01*
X244363Y11105D01*
X244403Y11248D01*
X244448Y11389D01*
X244450Y11415D01*
X244458Y11440D01*
X244477Y11684D01*
X244477Y16077D01*
X246140Y20091D01*
X249213Y23164D01*
X253227Y24827D01*
X254466Y24827D01*
X254492Y24830D01*
X254518Y24828D01*
X254665Y24850D01*
X254812Y24867D01*
X254837Y24875D01*
X254863Y24879D01*
X255001Y24934D01*
X255140Y24984D01*
X255162Y24998D01*
X255187Y25008D01*
X255308Y25093D01*
X255433Y25173D01*
X255451Y25192D01*
X255473Y25207D01*
X255572Y25317D01*
X255675Y25424D01*
X255689Y25446D01*
X255706Y25466D01*
X255778Y25596D01*
X255854Y25723D01*
X255862Y25748D01*
X255875Y25771D01*
X255915Y25914D01*
X255960Y26055D01*
X255962Y26081D01*
X255970Y26106D01*
X255989Y26350D01*
X255989Y34579D01*
X255975Y34705D01*
X255968Y34831D01*
X255955Y34877D01*
X255949Y34925D01*
X255907Y35044D01*
X255872Y35166D01*
X255848Y35208D01*
X255832Y35253D01*
X255763Y35360D01*
X255702Y35470D01*
X255662Y35516D01*
X255643Y35546D01*
X255608Y35580D01*
X255543Y35656D01*
X255047Y36152D01*
X254239Y38103D01*
X254239Y40214D01*
X255047Y42164D01*
X256540Y43657D01*
X258490Y44465D01*
X260601Y44465D01*
X262552Y43657D01*
X264045Y42164D01*
X264853Y40214D01*
X264853Y38103D01*
X264045Y36152D01*
X263549Y35656D01*
X263470Y35557D01*
X263386Y35463D01*
X263362Y35421D01*
X263332Y35383D01*
X263278Y35269D01*
X263217Y35158D01*
X263204Y35112D01*
X263183Y35068D01*
X263157Y34945D01*
X263122Y34823D01*
X263117Y34762D01*
X263110Y34727D01*
X263111Y34679D01*
X263103Y34579D01*
X263103Y22279D01*
X263117Y22154D01*
X263124Y22028D01*
X263137Y21981D01*
X263143Y21933D01*
X263185Y21814D01*
X263220Y21693D01*
X263244Y21650D01*
X263260Y21605D01*
X263329Y21499D01*
X263390Y21389D01*
X263430Y21342D01*
X263449Y21312D01*
X263484Y21279D01*
X263549Y21202D01*
X264660Y20091D01*
X266323Y16077D01*
X266323Y11684D01*
X266326Y11658D01*
X266324Y11632D01*
X266346Y11485D01*
X266363Y11338D01*
X266371Y11313D01*
X266375Y11287D01*
X266430Y11149D01*
X266480Y11010D01*
X266494Y10988D01*
X266504Y10963D01*
X266589Y10842D01*
X266669Y10717D01*
X266688Y10699D01*
X266703Y10677D01*
X266813Y10578D01*
X266920Y10475D01*
X266942Y10461D01*
X266962Y10444D01*
X267092Y10372D01*
X267219Y10296D01*
X267244Y10288D01*
X267267Y10275D01*
X267410Y10235D01*
X267551Y10190D01*
X267577Y10188D01*
X267602Y10180D01*
X267846Y10161D01*
X268354Y10161D01*
X268380Y10164D01*
X268406Y10162D01*
X268553Y10184D01*
X268700Y10201D01*
X268725Y10209D01*
X268751Y10213D01*
X268889Y10268D01*
X269028Y10318D01*
X269050Y10332D01*
X269075Y10342D01*
X269196Y10427D01*
X269321Y10507D01*
X269339Y10526D01*
X269361Y10541D01*
X269460Y10651D01*
X269563Y10758D01*
X269577Y10780D01*
X269594Y10800D01*
X269666Y10930D01*
X269742Y11057D01*
X269750Y11082D01*
X269763Y11105D01*
X269803Y11248D01*
X269848Y11389D01*
X269850Y11415D01*
X269858Y11440D01*
X269877Y11684D01*
X269877Y16077D01*
X271540Y20091D01*
X274613Y23164D01*
X275919Y23705D01*
X275986Y23742D01*
X276057Y23770D01*
X276138Y23826D01*
X276224Y23874D01*
X276280Y23926D01*
X276343Y23969D01*
X276409Y24042D01*
X276482Y24108D01*
X276525Y24171D01*
X276576Y24228D01*
X276624Y24314D01*
X276680Y24395D01*
X276708Y24466D01*
X276745Y24533D01*
X276772Y24628D01*
X276808Y24719D01*
X276819Y24795D01*
X276840Y24868D01*
X276852Y25017D01*
X276859Y25064D01*
X276857Y25083D01*
X276859Y25112D01*
X276859Y38093D01*
X276845Y38219D01*
X276838Y38345D01*
X276825Y38391D01*
X276819Y38439D01*
X276777Y38558D01*
X276742Y38680D01*
X276718Y38722D01*
X276702Y38767D01*
X276633Y38873D01*
X276572Y38984D01*
X276532Y39030D01*
X276513Y39060D01*
X276478Y39094D01*
X276413Y39170D01*
X275917Y39666D01*
X275109Y41616D01*
X275109Y43728D01*
X275917Y45678D01*
X277410Y47171D01*
X279360Y47979D01*
X281472Y47979D01*
X283422Y47171D01*
X284915Y45678D01*
X285723Y43728D01*
X285723Y41616D01*
X284915Y39666D01*
X284419Y39170D01*
X284340Y39071D01*
X284256Y38977D01*
X284232Y38935D01*
X284202Y38897D01*
X284148Y38783D01*
X284087Y38672D01*
X284074Y38626D01*
X284053Y38582D01*
X284027Y38459D01*
X283992Y38337D01*
X283987Y38276D01*
X283980Y38241D01*
X283981Y38193D01*
X283973Y38093D01*
X283973Y25430D01*
X283981Y25354D01*
X283980Y25278D01*
X284001Y25182D01*
X284013Y25084D01*
X284038Y25012D01*
X284055Y24937D01*
X284097Y24849D01*
X284130Y24756D01*
X284172Y24692D01*
X284204Y24623D01*
X284266Y24546D01*
X284319Y24463D01*
X284374Y24410D01*
X284422Y24350D01*
X284499Y24289D01*
X284570Y24221D01*
X284635Y24182D01*
X284695Y24134D01*
X284829Y24066D01*
X284869Y24042D01*
X284887Y24036D01*
X284913Y24023D01*
X286987Y23164D01*
X290060Y20091D01*
X291723Y16077D01*
X291723Y11684D01*
X291726Y11658D01*
X291724Y11632D01*
X291746Y11485D01*
X291763Y11338D01*
X291771Y11313D01*
X291775Y11287D01*
X291830Y11149D01*
X291880Y11010D01*
X291894Y10988D01*
X291904Y10963D01*
X291989Y10842D01*
X292069Y10717D01*
X292088Y10699D01*
X292103Y10677D01*
X292213Y10578D01*
X292320Y10475D01*
X292342Y10461D01*
X292362Y10444D01*
X292492Y10372D01*
X292619Y10296D01*
X292644Y10288D01*
X292667Y10275D01*
X292810Y10235D01*
X292951Y10190D01*
X292977Y10188D01*
X293002Y10180D01*
X293246Y10161D01*
X438844Y10161D01*
X438976Y10176D01*
X439108Y10184D01*
X439149Y10196D01*
X439191Y10201D01*
X439315Y10245D01*
X439442Y10283D01*
X439479Y10304D01*
X439519Y10318D01*
X439630Y10390D01*
X439745Y10456D01*
X439776Y10484D01*
X439811Y10507D01*
X439904Y10603D01*
X440001Y10692D01*
X440024Y10727D01*
X440054Y10758D01*
X440122Y10872D01*
X440196Y10981D01*
X440211Y11021D01*
X440232Y11057D01*
X440273Y11183D01*
X440320Y11307D01*
X440326Y11349D01*
X440339Y11389D01*
X440349Y11521D01*
X440367Y11652D01*
X440363Y11694D01*
X440367Y11736D01*
X440347Y11867D01*
X440335Y11999D01*
X440321Y12039D01*
X440315Y12081D01*
X440266Y12204D01*
X440224Y12330D01*
X440198Y12375D01*
X440186Y12405D01*
X440158Y12445D01*
X440103Y12542D01*
X433399Y22374D01*
X429830Y33945D01*
X429830Y46055D01*
X433399Y57626D01*
X440221Y67631D01*
X449688Y75181D01*
X460960Y79605D01*
X473036Y80510D01*
X484841Y77815D01*
X495328Y71761D01*
X497199Y69744D01*
X497297Y69661D01*
X497390Y69571D01*
X497429Y69547D01*
X497464Y69518D01*
X497578Y69458D01*
X497689Y69392D01*
X497733Y69378D01*
X497773Y69357D01*
X497898Y69325D01*
X498021Y69286D01*
X498067Y69282D01*
X498111Y69271D01*
X498240Y69268D01*
X498368Y69258D01*
X498414Y69265D01*
X498460Y69264D01*
X498586Y69291D01*
X498713Y69310D01*
X498756Y69327D01*
X498800Y69336D01*
X498917Y69391D01*
X499037Y69438D01*
X499075Y69465D01*
X499116Y69484D01*
X499217Y69564D01*
X499323Y69637D01*
X499354Y69671D01*
X499390Y69700D01*
X499470Y69801D01*
X499556Y69896D01*
X499579Y69936D01*
X499607Y69972D01*
X499663Y70088D01*
X499725Y70201D01*
X499737Y70245D01*
X499757Y70287D01*
X499785Y70412D01*
X499820Y70537D01*
X499824Y70594D01*
X499832Y70627D01*
X499831Y70676D01*
X499839Y70780D01*
X499839Y89880D01*
X499828Y89980D01*
X499826Y90080D01*
X499808Y90152D01*
X499799Y90226D01*
X499766Y90321D01*
X499741Y90418D01*
X499707Y90484D01*
X499682Y90554D01*
X499627Y90639D01*
X499581Y90728D01*
X499533Y90785D01*
X499493Y90847D01*
X499421Y90917D01*
X499355Y90993D01*
X499296Y91038D01*
X499242Y91089D01*
X499156Y91141D01*
X499075Y91201D01*
X499007Y91230D01*
X498943Y91268D01*
X498848Y91299D01*
X498755Y91339D01*
X498682Y91352D01*
X498611Y91374D01*
X498511Y91382D01*
X498412Y91400D01*
X498338Y91396D01*
X498264Y91402D01*
X498165Y91387D01*
X498064Y91382D01*
X497993Y91362D01*
X497919Y91351D01*
X497826Y91313D01*
X497729Y91286D01*
X497664Y91249D01*
X497595Y91222D01*
X497513Y91165D01*
X497425Y91115D01*
X497349Y91050D01*
X497309Y91023D01*
X497285Y90996D01*
X497239Y90957D01*
X497175Y90893D01*
X495655Y89789D01*
X493981Y88936D01*
X492194Y88355D01*
X490338Y88061D01*
X482793Y88061D01*
X482793Y98730D01*
X482790Y98756D01*
X482792Y98782D01*
X482770Y98929D01*
X482753Y99076D01*
X482745Y99101D01*
X482741Y99127D01*
X482686Y99264D01*
X482636Y99404D01*
X482622Y99426D01*
X482612Y99451D01*
X482527Y99572D01*
X482447Y99697D01*
X482428Y99715D01*
X482413Y99737D01*
X482303Y99836D01*
X482196Y99939D01*
X482174Y99953D01*
X482154Y99970D01*
X482024Y100042D01*
X481897Y100118D01*
X481872Y100126D01*
X481849Y100139D01*
X481706Y100179D01*
X481565Y100224D01*
X481539Y100226D01*
X481514Y100233D01*
X481270Y100253D01*
X480253Y100253D01*
X480253Y101270D01*
X480250Y101296D01*
X480252Y101322D01*
X480230Y101469D01*
X480213Y101616D01*
X480204Y101641D01*
X480200Y101667D01*
X480146Y101805D01*
X480096Y101944D01*
X480081Y101966D01*
X480072Y101991D01*
X479987Y102112D01*
X479907Y102237D01*
X479888Y102255D01*
X479873Y102277D01*
X479763Y102376D01*
X479656Y102479D01*
X479633Y102493D01*
X479614Y102510D01*
X479484Y102582D01*
X479357Y102658D01*
X479332Y102666D01*
X479309Y102679D01*
X479166Y102719D01*
X479025Y102764D01*
X478999Y102766D01*
X478974Y102774D01*
X478730Y102793D01*
X458957Y102793D01*
X458957Y102796D01*
X459538Y104583D01*
X460391Y106257D01*
X461496Y107778D01*
X462824Y109106D01*
X464345Y110211D01*
X466019Y111064D01*
X467806Y111645D01*
X467869Y111655D01*
X467971Y111683D01*
X468074Y111702D01*
X468138Y111730D01*
X468205Y111748D01*
X468297Y111799D01*
X468394Y111841D01*
X468450Y111882D01*
X468511Y111916D01*
X468589Y111986D01*
X468673Y112049D01*
X468718Y112102D01*
X468770Y112148D01*
X468831Y112234D01*
X468899Y112315D01*
X468930Y112377D01*
X468970Y112434D01*
X469009Y112531D01*
X469057Y112625D01*
X469074Y112692D01*
X469100Y112757D01*
X469116Y112861D01*
X469142Y112963D01*
X469143Y113033D01*
X469153Y113101D01*
X469145Y113206D01*
X469147Y113312D01*
X469132Y113380D01*
X469126Y113449D01*
X469095Y113549D01*
X469072Y113652D01*
X469042Y113715D01*
X469021Y113781D01*
X468968Y113872D01*
X468923Y113967D01*
X468879Y114021D01*
X468844Y114081D01*
X468771Y114157D01*
X468705Y114239D01*
X468651Y114282D01*
X468602Y114333D01*
X468514Y114390D01*
X468432Y114455D01*
X468349Y114497D01*
X468310Y114523D01*
X468274Y114536D01*
X468214Y114567D01*
X464415Y116140D01*
X461342Y119213D01*
X459679Y123227D01*
X459679Y127573D01*
X461342Y131587D01*
X464415Y134660D01*
X468429Y136323D01*
X491571Y136323D01*
X495585Y134660D01*
X497239Y133006D01*
X497318Y132944D01*
X497390Y132874D01*
X497454Y132836D01*
X497512Y132790D01*
X497603Y132747D01*
X497689Y132695D01*
X497760Y132672D01*
X497827Y132641D01*
X497925Y132619D01*
X498021Y132589D01*
X498095Y132583D01*
X498168Y132567D01*
X498268Y132569D01*
X498368Y132561D01*
X498442Y132572D01*
X498516Y132573D01*
X498613Y132598D01*
X498713Y132613D01*
X498782Y132640D01*
X498854Y132658D01*
X498943Y132704D01*
X499037Y132741D01*
X499098Y132784D01*
X499164Y132818D01*
X499240Y132883D01*
X499323Y132940D01*
X499373Y132995D01*
X499429Y133044D01*
X499489Y133124D01*
X499556Y133199D01*
X499592Y133264D01*
X499637Y133324D01*
X499676Y133416D01*
X499725Y133504D01*
X499745Y133576D01*
X499775Y133644D01*
X499792Y133743D01*
X499820Y133839D01*
X499828Y133939D01*
X499836Y133987D01*
X499834Y134023D01*
X499839Y134083D01*
X499839Y169880D01*
X499828Y169980D01*
X499826Y170080D01*
X499808Y170152D01*
X499799Y170226D01*
X499766Y170321D01*
X499741Y170418D01*
X499707Y170484D01*
X499682Y170554D01*
X499627Y170639D01*
X499581Y170728D01*
X499533Y170785D01*
X499493Y170847D01*
X499421Y170917D01*
X499355Y170993D01*
X499296Y171038D01*
X499242Y171089D01*
X499156Y171141D01*
X499075Y171201D01*
X499007Y171230D01*
X498943Y171268D01*
X498848Y171299D01*
X498755Y171339D01*
X498682Y171352D01*
X498611Y171374D01*
X498511Y171382D01*
X498412Y171400D01*
X498338Y171396D01*
X498264Y171402D01*
X498165Y171387D01*
X498064Y171382D01*
X497993Y171362D01*
X497919Y171351D01*
X497826Y171313D01*
X497729Y171286D01*
X497664Y171249D01*
X497595Y171222D01*
X497513Y171165D01*
X497425Y171115D01*
X497349Y171050D01*
X497309Y171023D01*
X497285Y170996D01*
X497239Y170957D01*
X497175Y170893D01*
X495655Y169789D01*
X493981Y168936D01*
X492194Y168355D01*
X490338Y168061D01*
X482793Y168061D01*
X482793Y178730D01*
X482790Y178756D01*
X482792Y178782D01*
X482770Y178929D01*
X482753Y179076D01*
X482745Y179101D01*
X482741Y179127D01*
X482686Y179264D01*
X482636Y179404D01*
X482622Y179426D01*
X482612Y179451D01*
X482527Y179572D01*
X482447Y179697D01*
X482428Y179715D01*
X482413Y179737D01*
X482303Y179836D01*
X482196Y179939D01*
X482174Y179953D01*
X482154Y179970D01*
X482024Y180042D01*
X481897Y180118D01*
X481872Y180126D01*
X481849Y180139D01*
X481706Y180179D01*
X481565Y180224D01*
X481539Y180226D01*
X481514Y180233D01*
X481270Y180253D01*
X480253Y180253D01*
X480253Y181270D01*
X480250Y181296D01*
X480252Y181322D01*
X480230Y181469D01*
X480213Y181616D01*
X480204Y181641D01*
X480200Y181667D01*
X480146Y181805D01*
X480096Y181944D01*
X480081Y181966D01*
X480072Y181991D01*
X479987Y182112D01*
X479907Y182237D01*
X479888Y182255D01*
X479873Y182277D01*
X479763Y182376D01*
X479656Y182479D01*
X479633Y182493D01*
X479614Y182510D01*
X479484Y182582D01*
X479357Y182658D01*
X479332Y182666D01*
X479309Y182679D01*
X479166Y182719D01*
X479025Y182764D01*
X478999Y182766D01*
X478974Y182774D01*
X478730Y182793D01*
X458957Y182793D01*
X458957Y182796D01*
X459538Y184583D01*
X460391Y186257D01*
X461496Y187778D01*
X462824Y189106D01*
X464345Y190211D01*
X466019Y191064D01*
X467806Y191645D01*
X467869Y191655D01*
X467970Y191683D01*
X468074Y191702D01*
X468138Y191730D01*
X468205Y191748D01*
X468297Y191799D01*
X468394Y191841D01*
X468450Y191882D01*
X468510Y191915D01*
X468589Y191986D01*
X468674Y192049D01*
X468718Y192102D01*
X468770Y192148D01*
X468831Y192234D01*
X468899Y192315D01*
X468930Y192376D01*
X468970Y192433D01*
X469009Y192531D01*
X469057Y192625D01*
X469074Y192692D01*
X469100Y192757D01*
X469116Y192861D01*
X469142Y192963D01*
X469143Y193032D01*
X469153Y193101D01*
X469145Y193206D01*
X469147Y193312D01*
X469132Y193379D01*
X469126Y193449D01*
X469095Y193549D01*
X469072Y193652D01*
X469042Y193715D01*
X469022Y193781D01*
X468968Y193872D01*
X468923Y193967D01*
X468879Y194021D01*
X468844Y194081D01*
X468771Y194157D01*
X468705Y194239D01*
X468651Y194282D01*
X468603Y194332D01*
X468514Y194390D01*
X468432Y194455D01*
X468349Y194497D01*
X468311Y194522D01*
X468274Y194536D01*
X468214Y194567D01*
X464415Y196140D01*
X461342Y199213D01*
X459587Y203449D01*
X459586Y203451D01*
X459586Y203453D01*
X459502Y203603D01*
X459418Y203754D01*
X459417Y203755D01*
X459416Y203757D01*
X459257Y203943D01*
X434213Y228988D01*
X434174Y229019D01*
X434140Y229056D01*
X434037Y229127D01*
X433940Y229204D01*
X433894Y229226D01*
X433853Y229254D01*
X433737Y229300D01*
X433625Y229353D01*
X433576Y229364D01*
X433529Y229382D01*
X433406Y229400D01*
X433284Y229426D01*
X433234Y229426D01*
X433184Y229433D01*
X433060Y229423D01*
X432936Y229420D01*
X432887Y229408D01*
X432837Y229404D01*
X432718Y229366D01*
X432598Y229335D01*
X432553Y229312D01*
X432505Y229297D01*
X432399Y229233D01*
X432288Y229176D01*
X432249Y229143D01*
X432206Y229117D01*
X432117Y229031D01*
X432022Y228950D01*
X431993Y228909D01*
X431956Y228874D01*
X431889Y228770D01*
X431815Y228670D01*
X431795Y228623D01*
X431768Y228581D01*
X431726Y228464D01*
X431677Y228350D01*
X431668Y228300D01*
X431652Y228253D01*
X431638Y228129D01*
X431616Y228007D01*
X431618Y227956D01*
X431613Y227906D01*
X431627Y227783D01*
X431634Y227659D01*
X431647Y227610D01*
X431653Y227560D01*
X431729Y227327D01*
X432027Y226608D01*
X432027Y224496D01*
X431219Y222546D01*
X430723Y222050D01*
X430644Y221951D01*
X430560Y221857D01*
X430536Y221815D01*
X430506Y221777D01*
X430452Y221663D01*
X430391Y221552D01*
X430378Y221506D01*
X430357Y221462D01*
X430331Y221339D01*
X430296Y221217D01*
X430291Y221156D01*
X430284Y221121D01*
X430285Y221073D01*
X430277Y220973D01*
X430277Y175311D01*
X411137Y156171D01*
X411058Y156072D01*
X410974Y155978D01*
X410950Y155936D01*
X410920Y155898D01*
X410866Y155784D01*
X410805Y155673D01*
X410792Y155626D01*
X410771Y155583D01*
X410745Y155459D01*
X410710Y155338D01*
X410705Y155277D01*
X410698Y155242D01*
X410699Y155194D01*
X410691Y155094D01*
X410691Y154392D01*
X409883Y152442D01*
X408390Y150949D01*
X406440Y150141D01*
X404328Y150141D01*
X402378Y150949D01*
X400885Y152442D01*
X400077Y154392D01*
X400077Y156504D01*
X400375Y157223D01*
X400389Y157272D01*
X400411Y157317D01*
X400437Y157439D01*
X400471Y157559D01*
X400474Y157609D01*
X400484Y157658D01*
X400482Y157782D01*
X400488Y157907D01*
X400479Y157956D01*
X400478Y158007D01*
X400448Y158127D01*
X400426Y158250D01*
X400405Y158296D01*
X400393Y158345D01*
X400336Y158455D01*
X400287Y158569D01*
X400257Y158610D01*
X400234Y158654D01*
X400153Y158749D01*
X400079Y158849D01*
X400040Y158881D01*
X400008Y158920D01*
X399908Y158994D01*
X399813Y159074D01*
X399768Y159097D01*
X399727Y159127D01*
X399613Y159176D01*
X399503Y159233D01*
X399454Y159245D01*
X399407Y159265D01*
X399285Y159287D01*
X399164Y159317D01*
X399114Y159318D01*
X399064Y159327D01*
X398940Y159320D01*
X398816Y159322D01*
X398767Y159311D01*
X398716Y159309D01*
X398597Y159274D01*
X398475Y159248D01*
X398430Y159226D01*
X398382Y159212D01*
X398273Y159151D01*
X398161Y159098D01*
X398121Y159067D01*
X398077Y159042D01*
X397891Y158884D01*
X397888Y158881D01*
X388359Y149351D01*
X221241Y149351D01*
X218639Y151953D01*
X218540Y152032D01*
X218446Y152116D01*
X218404Y152140D01*
X218366Y152170D01*
X218252Y152224D01*
X218141Y152285D01*
X218095Y152298D01*
X218051Y152319D01*
X217928Y152345D01*
X217806Y152380D01*
X217745Y152385D01*
X217710Y152392D01*
X217662Y152391D01*
X217562Y152399D01*
X151137Y152399D01*
X137159Y166377D01*
X137159Y180841D01*
X137145Y180967D01*
X137138Y181093D01*
X137125Y181139D01*
X137119Y181187D01*
X137077Y181306D01*
X137042Y181428D01*
X137018Y181470D01*
X137002Y181515D01*
X136933Y181621D01*
X136872Y181732D01*
X136832Y181778D01*
X136813Y181808D01*
X136778Y181842D01*
X136713Y181918D01*
X135709Y182922D01*
X134901Y184872D01*
X134901Y186984D01*
X135709Y188934D01*
X137202Y190427D01*
X137660Y190617D01*
X137748Y190666D01*
X137840Y190706D01*
X137900Y190750D01*
X137965Y190786D01*
X138039Y190854D01*
X138120Y190913D01*
X138168Y190970D01*
X138223Y191020D01*
X138280Y191103D01*
X138345Y191179D01*
X138379Y191246D01*
X138421Y191307D01*
X138458Y191400D01*
X138504Y191490D01*
X138522Y191562D01*
X138549Y191631D01*
X138564Y191731D01*
X138588Y191828D01*
X138589Y191902D01*
X138600Y191976D01*
X138592Y192076D01*
X138593Y192176D01*
X138577Y192249D01*
X138571Y192323D01*
X138540Y192419D01*
X138519Y192517D01*
X138487Y192584D01*
X138464Y192655D01*
X138412Y192741D01*
X138369Y192832D01*
X138323Y192890D01*
X138284Y192953D01*
X138214Y193026D01*
X138152Y193104D01*
X138093Y193150D01*
X138041Y193203D01*
X137957Y193258D01*
X137878Y193320D01*
X137789Y193366D01*
X137748Y193392D01*
X137714Y193404D01*
X137660Y193431D01*
X137202Y193621D01*
X135709Y195114D01*
X134901Y197064D01*
X134901Y199176D01*
X135709Y201126D01*
X137202Y202619D01*
X139152Y203427D01*
X141264Y203427D01*
X143214Y202619D01*
X144218Y201615D01*
X144317Y201536D01*
X144411Y201452D01*
X144453Y201428D01*
X144491Y201398D01*
X144605Y201344D01*
X144716Y201283D01*
X144762Y201270D01*
X144806Y201249D01*
X144929Y201223D01*
X145051Y201188D01*
X145112Y201183D01*
X145147Y201176D01*
X145195Y201177D01*
X145295Y201169D01*
X147567Y201169D01*
X150169Y198567D01*
X152401Y196335D01*
X152401Y169534D01*
X152415Y169408D01*
X152422Y169282D01*
X152435Y169236D01*
X152441Y169188D01*
X152483Y169069D01*
X152518Y168947D01*
X152542Y168905D01*
X152558Y168859D01*
X152627Y168753D01*
X152688Y168643D01*
X152728Y168597D01*
X152747Y168567D01*
X152782Y168533D01*
X152847Y168457D01*
X156265Y165039D01*
X156364Y164960D01*
X156458Y164876D01*
X156500Y164852D01*
X156538Y164822D01*
X156652Y164768D01*
X156763Y164707D01*
X156809Y164694D01*
X156853Y164673D01*
X156976Y164647D01*
X157098Y164612D01*
X157159Y164607D01*
X157193Y164600D01*
X157241Y164601D01*
X157342Y164593D01*
X223767Y164593D01*
X226369Y161991D01*
X226468Y161912D01*
X226562Y161828D01*
X226604Y161804D01*
X226642Y161774D01*
X226756Y161720D01*
X226867Y161659D01*
X226913Y161646D01*
X226957Y161625D01*
X227080Y161599D01*
X227202Y161564D01*
X227263Y161559D01*
X227298Y161552D01*
X227346Y161553D01*
X227446Y161545D01*
X379106Y161545D01*
X379232Y161559D01*
X379358Y161566D01*
X379404Y161579D01*
X379452Y161585D01*
X379571Y161627D01*
X379693Y161662D01*
X379735Y161686D01*
X379781Y161702D01*
X379887Y161771D01*
X379997Y161832D01*
X380043Y161872D01*
X380073Y161891D01*
X380107Y161926D01*
X380183Y161991D01*
X386279Y168087D01*
X386649Y168457D01*
X401889Y183697D01*
X401968Y183796D01*
X402052Y183890D01*
X402076Y183932D01*
X402106Y183970D01*
X402160Y184084D01*
X402221Y184195D01*
X402234Y184241D01*
X402255Y184285D01*
X402281Y184408D01*
X402316Y184530D01*
X402321Y184591D01*
X402328Y184626D01*
X402327Y184674D01*
X402335Y184774D01*
X402335Y232911D01*
X404567Y235143D01*
X411033Y241609D01*
X413265Y243841D01*
X437127Y243841D01*
X446673Y234295D01*
X446772Y234216D01*
X446866Y234132D01*
X446908Y234108D01*
X446946Y234078D01*
X447060Y234024D01*
X447171Y233963D01*
X447217Y233950D01*
X447261Y233929D01*
X447384Y233903D01*
X447506Y233868D01*
X447567Y233863D01*
X447602Y233856D01*
X447650Y233857D01*
X447750Y233849D01*
X459024Y233849D01*
X459100Y233857D01*
X459177Y233856D01*
X459273Y233877D01*
X459371Y233889D01*
X459443Y233914D01*
X459517Y233931D01*
X459606Y233973D01*
X459699Y234006D01*
X459763Y234048D01*
X459832Y234080D01*
X459909Y234142D01*
X459991Y234195D01*
X460045Y234250D01*
X460104Y234298D01*
X460165Y234375D01*
X460234Y234446D01*
X460273Y234511D01*
X460320Y234571D01*
X460388Y234704D01*
X460413Y234745D01*
X460418Y234763D01*
X460432Y234789D01*
X461342Y236987D01*
X464415Y240060D01*
X468429Y241723D01*
X491571Y241723D01*
X495585Y240060D01*
X497239Y238406D01*
X497318Y238344D01*
X497390Y238274D01*
X497454Y238236D01*
X497512Y238190D01*
X497603Y238147D01*
X497689Y238095D01*
X497760Y238072D01*
X497827Y238041D01*
X497925Y238019D01*
X498021Y237989D01*
X498095Y237983D01*
X498168Y237967D01*
X498268Y237969D01*
X498368Y237961D01*
X498442Y237972D01*
X498516Y237973D01*
X498613Y237998D01*
X498713Y238013D01*
X498782Y238040D01*
X498854Y238058D01*
X498943Y238104D01*
X499037Y238141D01*
X499098Y238184D01*
X499164Y238218D01*
X499240Y238283D01*
X499323Y238340D01*
X499373Y238395D01*
X499429Y238444D01*
X499489Y238524D01*
X499556Y238599D01*
X499592Y238664D01*
X499637Y238724D01*
X499676Y238816D01*
X499725Y238904D01*
X499745Y238976D01*
X499775Y239044D01*
X499792Y239143D01*
X499820Y239239D01*
X499828Y239339D01*
X499836Y239387D01*
X499834Y239423D01*
X499839Y239483D01*
X499839Y247517D01*
X499828Y247617D01*
X499826Y247717D01*
X499808Y247789D01*
X499799Y247863D01*
X499766Y247957D01*
X499741Y248055D01*
X499707Y248121D01*
X499682Y248191D01*
X499627Y248275D01*
X499581Y248365D01*
X499533Y248421D01*
X499493Y248484D01*
X499421Y248554D01*
X499356Y248630D01*
X499296Y248674D01*
X499242Y248726D01*
X499156Y248778D01*
X499075Y248837D01*
X499007Y248867D01*
X498943Y248905D01*
X498847Y248936D01*
X498755Y248975D01*
X498682Y248988D01*
X498611Y249011D01*
X498511Y249019D01*
X498412Y249037D01*
X498338Y249033D01*
X498264Y249039D01*
X498164Y249024D01*
X498064Y249019D01*
X497993Y248998D01*
X497919Y248987D01*
X497826Y248950D01*
X497729Y248923D01*
X497664Y248886D01*
X497595Y248859D01*
X497513Y248801D01*
X497425Y248752D01*
X497349Y248687D01*
X497309Y248660D01*
X497285Y248633D01*
X497239Y248594D01*
X495585Y246940D01*
X491571Y245277D01*
X468429Y245277D01*
X464415Y246940D01*
X461342Y250013D01*
X459679Y254027D01*
X459679Y258373D01*
X461342Y262387D01*
X463985Y265030D01*
X464002Y265051D01*
X464022Y265068D01*
X464070Y265134D01*
X464077Y265141D01*
X464083Y265151D01*
X464110Y265187D01*
X464202Y265303D01*
X464213Y265327D01*
X464229Y265348D01*
X464288Y265484D01*
X464351Y265619D01*
X464356Y265644D01*
X464367Y265668D01*
X464393Y265814D01*
X464424Y265959D01*
X464424Y265985D01*
X464429Y266011D01*
X464421Y266160D01*
X464418Y266308D01*
X464412Y266333D01*
X464411Y266359D01*
X464369Y266502D01*
X464333Y266646D01*
X464321Y266669D01*
X464314Y266694D01*
X464242Y266824D01*
X464174Y266955D01*
X464157Y266975D01*
X464144Y266998D01*
X463985Y267185D01*
X437885Y293285D01*
X435355Y295815D01*
X435355Y385521D01*
X445277Y395443D01*
X445339Y395521D01*
X445409Y395594D01*
X445447Y395658D01*
X445494Y395716D01*
X445536Y395807D01*
X445588Y395893D01*
X445611Y395964D01*
X445642Y396031D01*
X445664Y396129D01*
X445694Y396225D01*
X445700Y396299D01*
X445716Y396372D01*
X445714Y396472D01*
X445722Y396572D01*
X445711Y396646D01*
X445710Y396720D01*
X445685Y396817D01*
X445671Y396917D01*
X445643Y396986D01*
X445625Y397058D01*
X445579Y397148D01*
X445542Y397241D01*
X445499Y397302D01*
X445465Y397368D01*
X445400Y397445D01*
X445343Y397527D01*
X445288Y397577D01*
X445239Y397633D01*
X445159Y397693D01*
X445084Y397760D01*
X445019Y397796D01*
X444959Y397841D01*
X444867Y397880D01*
X444779Y397929D01*
X444707Y397949D01*
X444639Y397979D01*
X444540Y397996D01*
X444444Y398024D01*
X444344Y398032D01*
X444296Y398040D01*
X444260Y398038D01*
X444200Y398043D01*
X429031Y398043D01*
X401827Y425247D01*
X401827Y439241D01*
X401819Y439317D01*
X401820Y439394D01*
X401799Y439490D01*
X401787Y439588D01*
X401762Y439660D01*
X401745Y439734D01*
X401703Y439823D01*
X401670Y439916D01*
X401628Y439980D01*
X401596Y440049D01*
X401534Y440126D01*
X401481Y440209D01*
X401426Y440262D01*
X401378Y440321D01*
X401301Y440382D01*
X401230Y440451D01*
X401165Y440490D01*
X401105Y440537D01*
X400972Y440605D01*
X400931Y440630D01*
X400913Y440635D01*
X400887Y440649D01*
X399213Y441342D01*
X396140Y444415D01*
X394477Y448429D01*
X394477Y471571D01*
X396140Y475585D01*
X399213Y478658D01*
X403227Y480321D01*
X407573Y480321D01*
X411587Y478658D01*
X414660Y475585D01*
X416323Y471571D01*
X416323Y448429D01*
X414660Y444415D01*
X411587Y441342D01*
X409881Y440635D01*
X409814Y440598D01*
X409743Y440570D01*
X409662Y440514D01*
X409576Y440466D01*
X409520Y440415D01*
X409457Y440371D01*
X409391Y440298D01*
X409318Y440232D01*
X409275Y440169D01*
X409224Y440112D01*
X409176Y440026D01*
X409120Y439945D01*
X409092Y439874D01*
X409055Y439807D01*
X409028Y439713D01*
X408992Y439621D01*
X408981Y439546D01*
X408960Y439472D01*
X408948Y439323D01*
X408941Y439276D01*
X408943Y439257D01*
X408941Y439228D01*
X408941Y428824D01*
X408955Y428699D01*
X408962Y428572D01*
X408975Y428526D01*
X408981Y428478D01*
X409023Y428359D01*
X409058Y428238D01*
X409082Y428195D01*
X409098Y428150D01*
X409167Y428044D01*
X409228Y427933D01*
X409268Y427887D01*
X409287Y427857D01*
X409322Y427824D01*
X409387Y427747D01*
X431531Y405603D01*
X431630Y405524D01*
X431724Y405440D01*
X431766Y405416D01*
X431804Y405386D01*
X431918Y405332D01*
X432029Y405271D01*
X432076Y405258D01*
X432119Y405237D01*
X432243Y405211D01*
X432364Y405176D01*
X432425Y405171D01*
X432460Y405164D01*
X432508Y405165D01*
X432608Y405157D01*
X459235Y405157D01*
X459311Y405165D01*
X459387Y405164D01*
X459483Y405185D01*
X459581Y405197D01*
X459653Y405222D01*
X459728Y405239D01*
X459816Y405281D01*
X459909Y405314D01*
X459973Y405356D01*
X460042Y405388D01*
X460119Y405450D01*
X460202Y405503D01*
X460255Y405558D01*
X460315Y405606D01*
X460376Y405683D01*
X460444Y405754D01*
X460483Y405819D01*
X460531Y405879D01*
X460599Y406012D01*
X460623Y406053D01*
X460629Y406071D01*
X460642Y406097D01*
X461342Y407787D01*
X464415Y410860D01*
X468429Y412523D01*
X491571Y412523D01*
X495585Y410860D01*
X497239Y409206D01*
X497318Y409144D01*
X497390Y409074D01*
X497454Y409036D01*
X497512Y408990D01*
X497603Y408947D01*
X497689Y408895D01*
X497760Y408872D01*
X497827Y408841D01*
X497925Y408819D01*
X498021Y408789D01*
X498095Y408783D01*
X498168Y408767D01*
X498268Y408769D01*
X498368Y408761D01*
X498442Y408772D01*
X498516Y408773D01*
X498613Y408798D01*
X498713Y408813D01*
X498782Y408840D01*
X498854Y408858D01*
X498943Y408904D01*
X499037Y408941D01*
X499098Y408984D01*
X499164Y409018D01*
X499240Y409083D01*
X499323Y409140D01*
X499373Y409195D01*
X499429Y409244D01*
X499489Y409324D01*
X499556Y409399D01*
X499592Y409464D01*
X499637Y409524D01*
X499676Y409616D01*
X499725Y409704D01*
X499745Y409776D01*
X499775Y409844D01*
X499792Y409943D01*
X499820Y410039D01*
X499828Y410139D01*
X499836Y410187D01*
X499834Y410223D01*
X499839Y410283D01*
X499839Y429220D01*
X499825Y429348D01*
X499818Y429476D01*
X499805Y429520D01*
X499799Y429566D01*
X499756Y429687D01*
X499720Y429811D01*
X499697Y429851D01*
X499682Y429894D01*
X499612Y430002D01*
X499549Y430114D01*
X499518Y430148D01*
X499493Y430187D01*
X499400Y430276D01*
X499313Y430371D01*
X499275Y430397D01*
X499242Y430429D01*
X499132Y430495D01*
X499025Y430568D01*
X498982Y430584D01*
X498943Y430608D01*
X498821Y430647D01*
X498700Y430694D01*
X498655Y430700D01*
X498611Y430714D01*
X498483Y430724D01*
X498355Y430742D01*
X498310Y430738D01*
X498264Y430742D01*
X498136Y430723D01*
X498008Y430712D01*
X497965Y430697D01*
X497919Y430690D01*
X497799Y430643D01*
X497677Y430603D01*
X497638Y430579D01*
X497595Y430562D01*
X497490Y430488D01*
X497380Y430421D01*
X497337Y430382D01*
X497309Y430363D01*
X497277Y430327D01*
X497199Y430256D01*
X495328Y428239D01*
X484841Y422185D01*
X473036Y419490D01*
X460960Y420395D01*
X449688Y424819D01*
X440221Y432369D01*
X433399Y442374D01*
X429830Y453945D01*
X429830Y466055D01*
X433399Y477626D01*
X440103Y487458D01*
X440164Y487575D01*
X440232Y487689D01*
X440245Y487729D01*
X440265Y487766D01*
X440298Y487895D01*
X440339Y488021D01*
X440342Y488063D01*
X440353Y488104D01*
X440356Y488236D01*
X440367Y488368D01*
X440360Y488410D01*
X440361Y488452D01*
X440335Y488582D01*
X440315Y488713D01*
X440299Y488752D01*
X440291Y488793D01*
X440235Y488914D01*
X440186Y489037D01*
X440162Y489071D01*
X440144Y489110D01*
X440063Y489214D01*
X439987Y489323D01*
X439956Y489351D01*
X439930Y489384D01*
X439827Y489468D01*
X439729Y489556D01*
X439692Y489577D01*
X439659Y489603D01*
X439539Y489661D01*
X439423Y489725D01*
X439383Y489736D01*
X439345Y489755D01*
X439216Y489784D01*
X439088Y489820D01*
X439036Y489824D01*
X439005Y489831D01*
X438955Y489830D01*
X438844Y489839D01*
X70603Y489839D01*
X70531Y489831D01*
X70459Y489832D01*
X70358Y489811D01*
X70256Y489799D01*
X70189Y489775D01*
X70118Y489760D01*
X70025Y489717D01*
X69928Y489682D01*
X69868Y489643D01*
X69802Y489612D01*
X69722Y489549D01*
X69635Y489493D01*
X69585Y489441D01*
X69529Y489396D01*
X69465Y489316D01*
X69393Y489242D01*
X69356Y489180D01*
X69311Y489124D01*
X69267Y489031D01*
X69214Y488943D01*
X69192Y488875D01*
X69161Y488810D01*
X69140Y488709D01*
X69108Y488611D01*
X69102Y488539D01*
X69087Y488469D01*
X69088Y488366D01*
X69080Y488264D01*
X69091Y488193D01*
X69092Y488121D01*
X69117Y488021D01*
X69132Y487919D01*
X69159Y487852D01*
X69176Y487782D01*
X69223Y487691D01*
X69261Y487595D01*
X69302Y487536D01*
X69335Y487472D01*
X69434Y487345D01*
X69460Y487309D01*
X69471Y487299D01*
X69486Y487280D01*
X73565Y482884D01*
X78819Y471974D01*
X80624Y460000D01*
X78819Y448026D01*
X73565Y437116D01*
X65328Y428239D01*
X54841Y422185D01*
X43036Y419490D01*
X30960Y420395D01*
X19688Y424819D01*
X12634Y430445D01*
X12621Y430453D01*
X12610Y430463D01*
X12473Y430545D01*
X12338Y430630D01*
X12324Y430634D01*
X12311Y430642D01*
X12160Y430690D01*
X12008Y430742D01*
X11993Y430744D01*
X11979Y430748D01*
X11821Y430761D01*
X11662Y430777D01*
X11647Y430775D01*
X11632Y430776D01*
X11474Y430753D01*
X11316Y430732D01*
X11302Y430727D01*
X11287Y430725D01*
X11139Y430666D01*
X10990Y430610D01*
X10977Y430601D01*
X10963Y430596D01*
X10833Y430505D01*
X10700Y430416D01*
X10689Y430405D01*
X10677Y430397D01*
X10571Y430279D01*
X10461Y430162D01*
X10454Y430149D01*
X10444Y430138D01*
X10366Y429998D01*
X10287Y429861D01*
X10282Y429846D01*
X10275Y429833D01*
X10232Y429679D01*
X10185Y429527D01*
X10184Y429512D01*
X10180Y429498D01*
X10161Y429254D01*
X10161Y319864D01*
X10178Y319715D01*
X10190Y319565D01*
X10198Y319542D01*
X10201Y319518D01*
X10251Y319376D01*
X10297Y319233D01*
X10310Y319212D01*
X10318Y319189D01*
X10400Y319063D01*
X10477Y318934D01*
X10494Y318917D01*
X10507Y318897D01*
X10616Y318792D01*
X10720Y318684D01*
X10740Y318671D01*
X10758Y318654D01*
X10887Y318577D01*
X11013Y318496D01*
X11036Y318488D01*
X11057Y318476D01*
X11200Y318430D01*
X11342Y318379D01*
X11366Y318377D01*
X11389Y318369D01*
X11538Y318357D01*
X11688Y318341D01*
X11712Y318343D01*
X11736Y318341D01*
X11885Y318364D01*
X12034Y318381D01*
X12062Y318390D01*
X12081Y318393D01*
X12125Y318411D01*
X12267Y318456D01*
X14184Y319251D01*
X16296Y319251D01*
X18246Y318443D01*
X18808Y317881D01*
X18828Y317865D01*
X18845Y317845D01*
X18964Y317757D01*
X19081Y317665D01*
X19104Y317653D01*
X19125Y317638D01*
X19261Y317579D01*
X19396Y317516D01*
X19421Y317510D01*
X19445Y317500D01*
X19591Y317474D01*
X19736Y317442D01*
X19762Y317443D01*
X19788Y317438D01*
X19937Y317446D01*
X20085Y317448D01*
X20110Y317455D01*
X20136Y317456D01*
X20279Y317497D01*
X20423Y317533D01*
X20446Y317545D01*
X20471Y317553D01*
X20601Y317625D01*
X20733Y317693D01*
X20753Y317710D01*
X20775Y317723D01*
X20962Y317881D01*
X30033Y326953D01*
X32265Y329185D01*
X74306Y329185D01*
X74432Y329199D01*
X74558Y329206D01*
X74604Y329219D01*
X74652Y329225D01*
X74771Y329267D01*
X74893Y329302D01*
X74935Y329326D01*
X74981Y329342D01*
X75087Y329411D01*
X75197Y329472D01*
X75243Y329512D01*
X75273Y329531D01*
X75307Y329566D01*
X75383Y329631D01*
X84897Y339145D01*
X84976Y339244D01*
X85060Y339338D01*
X85084Y339380D01*
X85114Y339418D01*
X85168Y339532D01*
X85229Y339643D01*
X85242Y339689D01*
X85263Y339733D01*
X85289Y339856D01*
X85324Y339978D01*
X85329Y340039D01*
X85336Y340074D01*
X85335Y340122D01*
X85343Y340222D01*
X85343Y360927D01*
X148905Y424489D01*
X148984Y424588D01*
X149068Y424682D01*
X149092Y424724D01*
X149122Y424762D01*
X149176Y424876D01*
X149237Y424987D01*
X149250Y425033D01*
X149271Y425077D01*
X149297Y425200D01*
X149332Y425322D01*
X149337Y425383D01*
X149344Y425418D01*
X149343Y425466D01*
X149351Y425566D01*
X149351Y446271D01*
X158049Y454969D01*
X160281Y457201D01*
X256001Y457201D01*
X258233Y454969D01*
X266471Y446731D01*
X266570Y446652D01*
X266664Y446568D01*
X266706Y446544D01*
X266744Y446514D01*
X266858Y446460D01*
X266969Y446399D01*
X267015Y446386D01*
X267059Y446365D01*
X267182Y446339D01*
X267304Y446304D01*
X267365Y446299D01*
X267399Y446292D01*
X267447Y446293D01*
X267548Y446285D01*
X276192Y446285D01*
X277085Y445392D01*
X277085Y436508D01*
X276192Y435615D01*
X259688Y435615D01*
X258795Y436508D01*
X258795Y445152D01*
X258781Y445278D01*
X258774Y445404D01*
X258761Y445450D01*
X258755Y445498D01*
X258713Y445617D01*
X258678Y445739D01*
X258654Y445781D01*
X258638Y445827D01*
X258569Y445933D01*
X258508Y446043D01*
X258468Y446089D01*
X258449Y446119D01*
X258414Y446153D01*
X258349Y446229D01*
X253921Y450657D01*
X253822Y450736D01*
X253728Y450820D01*
X253686Y450844D01*
X253648Y450874D01*
X253534Y450928D01*
X253423Y450989D01*
X253377Y451002D01*
X253333Y451023D01*
X253210Y451049D01*
X253088Y451084D01*
X253027Y451089D01*
X252993Y451096D01*
X252945Y451095D01*
X252844Y451103D01*
X163438Y451103D01*
X163312Y451089D01*
X163186Y451082D01*
X163140Y451069D01*
X163092Y451063D01*
X162973Y451021D01*
X162851Y450986D01*
X162809Y450962D01*
X162763Y450946D01*
X162657Y450877D01*
X162547Y450816D01*
X162501Y450776D01*
X162471Y450757D01*
X162437Y450722D01*
X162361Y450657D01*
X160589Y448885D01*
X160526Y448807D01*
X160456Y448734D01*
X160418Y448670D01*
X160372Y448612D01*
X160329Y448521D01*
X160278Y448435D01*
X160255Y448364D01*
X160223Y448297D01*
X160202Y448199D01*
X160171Y448103D01*
X160165Y448029D01*
X160150Y447956D01*
X160151Y447856D01*
X160143Y447756D01*
X160154Y447682D01*
X160156Y447608D01*
X160180Y447511D01*
X160195Y447411D01*
X160223Y447342D01*
X160241Y447270D01*
X160287Y447180D01*
X160324Y447087D01*
X160366Y447026D01*
X160400Y446960D01*
X160466Y446883D01*
X160523Y446801D01*
X160578Y446751D01*
X160626Y446695D01*
X160707Y446635D01*
X160782Y446568D01*
X160847Y446532D01*
X160906Y446487D01*
X160999Y446448D01*
X161087Y446399D01*
X161158Y446379D01*
X161226Y446349D01*
X161325Y446332D01*
X161422Y446304D01*
X161522Y446296D01*
X161569Y446288D01*
X161605Y446290D01*
X161666Y446285D01*
X176192Y446285D01*
X177085Y445392D01*
X177085Y436508D01*
X176192Y435615D01*
X172512Y435615D01*
X172486Y435612D01*
X172460Y435614D01*
X172313Y435592D01*
X172166Y435575D01*
X172141Y435567D01*
X172115Y435563D01*
X171977Y435508D01*
X171838Y435458D01*
X171816Y435444D01*
X171791Y435434D01*
X171670Y435349D01*
X171545Y435269D01*
X171527Y435250D01*
X171505Y435235D01*
X171406Y435125D01*
X171303Y435018D01*
X171289Y434996D01*
X171272Y434976D01*
X171200Y434846D01*
X171124Y434719D01*
X171116Y434694D01*
X171103Y434671D01*
X171063Y434528D01*
X171018Y434387D01*
X171016Y434361D01*
X171008Y434336D01*
X170989Y434092D01*
X170989Y422709D01*
X101031Y352751D01*
X100952Y352652D01*
X100868Y352558D01*
X100844Y352516D01*
X100814Y352478D01*
X100760Y352364D01*
X100699Y352253D01*
X100686Y352207D01*
X100665Y352163D01*
X100639Y352040D01*
X100604Y351918D01*
X100599Y351857D01*
X100592Y351822D01*
X100593Y351774D01*
X100585Y351674D01*
X100585Y315983D01*
X100599Y315857D01*
X100606Y315731D01*
X100619Y315685D01*
X100625Y315637D01*
X100667Y315518D01*
X100702Y315396D01*
X100726Y315354D01*
X100742Y315309D01*
X100811Y315202D01*
X100872Y315092D01*
X100912Y315046D01*
X100931Y315016D01*
X100966Y314982D01*
X101031Y314906D01*
X102035Y313902D01*
X102843Y311952D01*
X102843Y309840D01*
X102035Y307890D01*
X100542Y306397D01*
X98592Y305589D01*
X96480Y305589D01*
X94530Y306397D01*
X93526Y307401D01*
X93427Y307480D01*
X93333Y307564D01*
X93291Y307588D01*
X93253Y307618D01*
X93139Y307672D01*
X93028Y307733D01*
X92982Y307746D01*
X92938Y307767D01*
X92815Y307793D01*
X92693Y307828D01*
X92632Y307833D01*
X92597Y307840D01*
X92549Y307839D01*
X92449Y307847D01*
X38361Y307847D01*
X38017Y308191D01*
X37918Y308270D01*
X37824Y308354D01*
X37782Y308378D01*
X37744Y308408D01*
X37630Y308462D01*
X37519Y308523D01*
X37473Y308536D01*
X37429Y308557D01*
X37306Y308583D01*
X37184Y308618D01*
X37123Y308623D01*
X37088Y308630D01*
X37040Y308629D01*
X36940Y308637D01*
X35520Y308637D01*
X33570Y309445D01*
X32077Y310938D01*
X31269Y312888D01*
X31269Y315000D01*
X31567Y315719D01*
X31581Y315768D01*
X31603Y315813D01*
X31629Y315935D01*
X31663Y316055D01*
X31666Y316105D01*
X31676Y316154D01*
X31674Y316279D01*
X31680Y316403D01*
X31671Y316452D01*
X31670Y316503D01*
X31640Y316623D01*
X31618Y316746D01*
X31597Y316792D01*
X31585Y316841D01*
X31528Y316951D01*
X31479Y317065D01*
X31449Y317106D01*
X31426Y317150D01*
X31345Y317245D01*
X31271Y317345D01*
X31232Y317377D01*
X31200Y317416D01*
X31100Y317490D01*
X31005Y317570D01*
X30960Y317593D01*
X30919Y317623D01*
X30805Y317672D01*
X30695Y317729D01*
X30646Y317741D01*
X30599Y317761D01*
X30477Y317783D01*
X30356Y317813D01*
X30306Y317814D01*
X30256Y317823D01*
X30132Y317816D01*
X30008Y317818D01*
X29959Y317807D01*
X29908Y317805D01*
X29789Y317770D01*
X29667Y317744D01*
X29622Y317722D01*
X29573Y317708D01*
X29465Y317648D01*
X29353Y317594D01*
X29313Y317563D01*
X29269Y317538D01*
X29083Y317380D01*
X27879Y316175D01*
X27800Y316076D01*
X27716Y315982D01*
X27692Y315940D01*
X27662Y315902D01*
X27608Y315788D01*
X27547Y315677D01*
X27534Y315631D01*
X27513Y315587D01*
X27487Y315464D01*
X27452Y315342D01*
X27447Y315281D01*
X27440Y315246D01*
X27441Y315198D01*
X27433Y315098D01*
X27433Y187822D01*
X27447Y187696D01*
X27454Y187570D01*
X27467Y187524D01*
X27473Y187476D01*
X27515Y187357D01*
X27550Y187235D01*
X27574Y187193D01*
X27590Y187147D01*
X27659Y187041D01*
X27720Y186931D01*
X27760Y186885D01*
X27779Y186855D01*
X27814Y186821D01*
X27879Y186745D01*
X73153Y141471D01*
X73153Y136151D01*
X73167Y136025D01*
X73174Y135899D01*
X73187Y135853D01*
X73193Y135805D01*
X73235Y135686D01*
X73270Y135564D01*
X73294Y135522D01*
X73310Y135477D01*
X73379Y135370D01*
X73440Y135260D01*
X73480Y135214D01*
X73499Y135184D01*
X73534Y135150D01*
X73599Y135074D01*
X74603Y134070D01*
X75411Y132120D01*
X75411Y130008D01*
X74603Y128058D01*
X73110Y126565D01*
X71160Y125757D01*
X69048Y125757D01*
X67098Y126565D01*
X65605Y128058D01*
X64797Y130008D01*
X64797Y132120D01*
X65605Y134070D01*
X66609Y135074D01*
X66688Y135173D01*
X66772Y135267D01*
X66796Y135309D01*
X66826Y135347D01*
X66880Y135461D01*
X66941Y135572D01*
X66954Y135618D01*
X66975Y135662D01*
X67001Y135785D01*
X67036Y135907D01*
X67041Y135968D01*
X67048Y136003D01*
X67047Y136051D01*
X67055Y136151D01*
X67055Y138314D01*
X67041Y138440D01*
X67034Y138566D01*
X67021Y138612D01*
X67015Y138660D01*
X66973Y138779D01*
X66938Y138901D01*
X66914Y138943D01*
X66898Y138989D01*
X66829Y139095D01*
X66768Y139205D01*
X66728Y139251D01*
X66709Y139281D01*
X66674Y139315D01*
X66609Y139391D01*
X21335Y184665D01*
X21335Y308857D01*
X21324Y308957D01*
X21322Y309057D01*
X21304Y309129D01*
X21295Y309203D01*
X21262Y309298D01*
X21237Y309395D01*
X21203Y309461D01*
X21178Y309531D01*
X21123Y309616D01*
X21077Y309705D01*
X21029Y309762D01*
X20989Y309824D01*
X20917Y309894D01*
X20852Y309970D01*
X20792Y310015D01*
X20738Y310066D01*
X20652Y310118D01*
X20571Y310178D01*
X20503Y310207D01*
X20439Y310245D01*
X20344Y310276D01*
X20251Y310316D01*
X20178Y310329D01*
X20107Y310351D01*
X20007Y310359D01*
X19908Y310377D01*
X19834Y310373D01*
X19760Y310379D01*
X19661Y310364D01*
X19560Y310359D01*
X19489Y310339D01*
X19415Y310328D01*
X19322Y310290D01*
X19225Y310263D01*
X19160Y310226D01*
X19091Y310199D01*
X19009Y310142D01*
X18921Y310093D01*
X18845Y310027D01*
X18805Y310000D01*
X18781Y309973D01*
X18735Y309934D01*
X18246Y309445D01*
X16181Y308590D01*
X16145Y308570D01*
X16118Y308560D01*
X16094Y308545D01*
X16043Y308524D01*
X15962Y308468D01*
X15876Y308421D01*
X15820Y308369D01*
X15757Y308326D01*
X15691Y308253D01*
X15618Y308186D01*
X15575Y308123D01*
X15524Y308067D01*
X15476Y307981D01*
X15420Y307900D01*
X15392Y307829D01*
X15355Y307762D01*
X15328Y307667D01*
X15292Y307575D01*
X15281Y307500D01*
X15260Y307426D01*
X15248Y307277D01*
X15241Y307231D01*
X15243Y307212D01*
X15241Y307183D01*
X15241Y139054D01*
X15255Y138928D01*
X15262Y138802D01*
X15275Y138756D01*
X15281Y138708D01*
X15323Y138589D01*
X15358Y138467D01*
X15382Y138425D01*
X15398Y138379D01*
X15467Y138273D01*
X15528Y138163D01*
X15568Y138117D01*
X15587Y138087D01*
X15622Y138053D01*
X15687Y137977D01*
X22943Y130721D01*
X23042Y130642D01*
X23136Y130558D01*
X23178Y130534D01*
X23216Y130504D01*
X23330Y130450D01*
X23441Y130389D01*
X23487Y130376D01*
X23531Y130355D01*
X23654Y130329D01*
X23776Y130294D01*
X23837Y130289D01*
X23872Y130282D01*
X23920Y130283D01*
X24020Y130275D01*
X25440Y130275D01*
X27390Y129467D01*
X28883Y127974D01*
X29691Y126024D01*
X29691Y123912D01*
X28883Y121962D01*
X27390Y120469D01*
X25440Y119661D01*
X23328Y119661D01*
X21378Y120469D01*
X19885Y121962D01*
X19077Y123912D01*
X19077Y125332D01*
X19063Y125458D01*
X19056Y125584D01*
X19043Y125630D01*
X19037Y125678D01*
X18995Y125797D01*
X18960Y125919D01*
X18936Y125961D01*
X18920Y126007D01*
X18851Y126113D01*
X18790Y126223D01*
X18750Y126269D01*
X18731Y126299D01*
X18696Y126333D01*
X18631Y126409D01*
X12761Y132279D01*
X12683Y132342D01*
X12610Y132412D01*
X12546Y132450D01*
X12488Y132496D01*
X12397Y132539D01*
X12311Y132590D01*
X12240Y132613D01*
X12173Y132645D01*
X12075Y132666D01*
X11979Y132697D01*
X11905Y132703D01*
X11832Y132718D01*
X11732Y132717D01*
X11632Y132725D01*
X11558Y132714D01*
X11484Y132712D01*
X11387Y132688D01*
X11287Y132673D01*
X11218Y132645D01*
X11146Y132627D01*
X11056Y132581D01*
X10963Y132544D01*
X10902Y132502D01*
X10836Y132468D01*
X10759Y132402D01*
X10677Y132345D01*
X10627Y132290D01*
X10571Y132242D01*
X10511Y132161D01*
X10444Y132086D01*
X10408Y132021D01*
X10363Y131962D01*
X10324Y131869D01*
X10275Y131781D01*
X10255Y131710D01*
X10225Y131642D01*
X10208Y131543D01*
X10180Y131446D01*
X10172Y131346D01*
X10164Y131299D01*
X10166Y131263D01*
X10161Y131202D01*
X10161Y70746D01*
X10162Y70731D01*
X10161Y70716D01*
X10182Y70558D01*
X10201Y70400D01*
X10206Y70386D01*
X10208Y70371D01*
X10264Y70222D01*
X10318Y70072D01*
X10326Y70059D01*
X10332Y70045D01*
X10421Y69913D01*
X10507Y69779D01*
X10518Y69769D01*
X10526Y69756D01*
X10643Y69647D01*
X10758Y69537D01*
X10771Y69529D01*
X10782Y69519D01*
X10920Y69440D01*
X11057Y69358D01*
X11071Y69353D01*
X11084Y69346D01*
X11237Y69300D01*
X11389Y69252D01*
X11404Y69251D01*
X11418Y69246D01*
X11577Y69237D01*
X11736Y69224D01*
X11751Y69226D01*
X11766Y69225D01*
X11923Y69252D01*
X12081Y69275D01*
X12095Y69281D01*
X12110Y69284D01*
X12256Y69345D01*
X12405Y69404D01*
X12417Y69413D01*
X12431Y69419D01*
X12634Y69555D01*
X19688Y75181D01*
X30960Y79605D01*
X43036Y80510D01*
X54841Y77815D01*
X65328Y71761D01*
X73565Y62884D01*
X78819Y51974D01*
X80624Y40000D01*
X78819Y28026D01*
X73565Y17116D01*
X69486Y12720D01*
X69443Y12662D01*
X69393Y12610D01*
X69340Y12522D01*
X69280Y12439D01*
X69251Y12373D01*
X69214Y12311D01*
X69183Y12213D01*
X69143Y12119D01*
X69130Y12048D01*
X69108Y11979D01*
X69100Y11877D01*
X69082Y11775D01*
X69086Y11703D01*
X69080Y11632D01*
X69095Y11530D01*
X69101Y11428D01*
X69121Y11358D01*
X69132Y11287D01*
X69170Y11192D01*
X69199Y11093D01*
X69234Y11030D01*
X69261Y10963D01*
X69319Y10879D01*
X69370Y10789D01*
X69418Y10736D01*
X69460Y10677D01*
X69536Y10608D01*
X69605Y10533D01*
X69665Y10492D01*
X69718Y10444D01*
X69808Y10394D01*
X69893Y10336D01*
X69960Y10310D01*
X70023Y10275D01*
X70122Y10247D01*
X70218Y10210D01*
X70289Y10200D01*
X70359Y10180D01*
X70519Y10167D01*
X70563Y10161D01*
X70579Y10163D01*
X70603Y10161D01*
X217554Y10161D01*
X217580Y10164D01*
G37*
G36*
X498442Y263372D02*
X498442Y263372D01*
X498516Y263373D01*
X498613Y263398D01*
X498713Y263413D01*
X498782Y263440D01*
X498854Y263458D01*
X498943Y263504D01*
X499037Y263541D01*
X499098Y263584D01*
X499164Y263618D01*
X499240Y263683D01*
X499323Y263740D01*
X499373Y263795D01*
X499429Y263844D01*
X499489Y263924D01*
X499556Y263999D01*
X499592Y264064D01*
X499637Y264124D01*
X499676Y264216D01*
X499725Y264304D01*
X499745Y264376D01*
X499775Y264444D01*
X499792Y264543D01*
X499820Y264639D01*
X499828Y264739D01*
X499836Y264787D01*
X499834Y264823D01*
X499839Y264883D01*
X499839Y291317D01*
X499828Y291417D01*
X499826Y291517D01*
X499808Y291589D01*
X499799Y291663D01*
X499766Y291757D01*
X499741Y291855D01*
X499707Y291921D01*
X499682Y291991D01*
X499627Y292075D01*
X499581Y292165D01*
X499533Y292221D01*
X499493Y292284D01*
X499421Y292354D01*
X499356Y292430D01*
X499296Y292474D01*
X499242Y292526D01*
X499156Y292578D01*
X499075Y292637D01*
X499007Y292667D01*
X498943Y292705D01*
X498847Y292736D01*
X498755Y292775D01*
X498682Y292788D01*
X498611Y292811D01*
X498511Y292819D01*
X498412Y292837D01*
X498338Y292833D01*
X498264Y292839D01*
X498164Y292824D01*
X498064Y292819D01*
X497993Y292798D01*
X497919Y292787D01*
X497826Y292750D01*
X497729Y292723D01*
X497664Y292686D01*
X497595Y292659D01*
X497513Y292601D01*
X497425Y292552D01*
X497349Y292487D01*
X497309Y292460D01*
X497285Y292433D01*
X497239Y292394D01*
X495585Y290740D01*
X491571Y289077D01*
X468429Y289077D01*
X464415Y290740D01*
X461342Y293813D01*
X459679Y297827D01*
X459679Y302173D01*
X461342Y306187D01*
X464415Y309260D01*
X468429Y310923D01*
X491571Y310923D01*
X495585Y309260D01*
X497239Y307606D01*
X497318Y307544D01*
X497390Y307474D01*
X497454Y307436D01*
X497512Y307390D01*
X497603Y307347D01*
X497689Y307295D01*
X497760Y307272D01*
X497827Y307241D01*
X497925Y307219D01*
X498021Y307189D01*
X498095Y307183D01*
X498168Y307167D01*
X498268Y307169D01*
X498368Y307161D01*
X498442Y307172D01*
X498516Y307173D01*
X498613Y307198D01*
X498713Y307213D01*
X498782Y307240D01*
X498854Y307258D01*
X498943Y307304D01*
X499037Y307341D01*
X499098Y307384D01*
X499164Y307418D01*
X499240Y307483D01*
X499323Y307540D01*
X499373Y307595D01*
X499429Y307644D01*
X499489Y307724D01*
X499556Y307799D01*
X499592Y307864D01*
X499637Y307924D01*
X499676Y308016D01*
X499725Y308104D01*
X499745Y308176D01*
X499775Y308244D01*
X499792Y308343D01*
X499820Y308439D01*
X499828Y308539D01*
X499836Y308587D01*
X499834Y308623D01*
X499839Y308683D01*
X499839Y316717D01*
X499828Y316817D01*
X499826Y316917D01*
X499808Y316989D01*
X499799Y317063D01*
X499766Y317157D01*
X499741Y317255D01*
X499707Y317321D01*
X499682Y317391D01*
X499627Y317475D01*
X499581Y317565D01*
X499533Y317621D01*
X499493Y317684D01*
X499421Y317754D01*
X499356Y317830D01*
X499296Y317874D01*
X499242Y317926D01*
X499156Y317978D01*
X499075Y318037D01*
X499007Y318067D01*
X498943Y318105D01*
X498847Y318136D01*
X498755Y318175D01*
X498682Y318188D01*
X498611Y318211D01*
X498511Y318219D01*
X498412Y318237D01*
X498338Y318233D01*
X498264Y318239D01*
X498164Y318224D01*
X498064Y318219D01*
X497993Y318198D01*
X497919Y318187D01*
X497826Y318150D01*
X497729Y318123D01*
X497664Y318086D01*
X497595Y318059D01*
X497513Y318001D01*
X497425Y317952D01*
X497349Y317887D01*
X497309Y317860D01*
X497285Y317833D01*
X497239Y317794D01*
X495585Y316140D01*
X491571Y314477D01*
X468429Y314477D01*
X464415Y316140D01*
X461342Y319213D01*
X459679Y323227D01*
X459679Y327573D01*
X461342Y331587D01*
X464415Y334660D01*
X468429Y336323D01*
X491571Y336323D01*
X495585Y334660D01*
X497239Y333006D01*
X497318Y332944D01*
X497390Y332874D01*
X497454Y332836D01*
X497512Y332790D01*
X497603Y332747D01*
X497689Y332695D01*
X497760Y332672D01*
X497827Y332641D01*
X497925Y332619D01*
X498021Y332589D01*
X498095Y332583D01*
X498168Y332567D01*
X498268Y332569D01*
X498368Y332561D01*
X498442Y332572D01*
X498516Y332573D01*
X498613Y332598D01*
X498713Y332613D01*
X498782Y332640D01*
X498854Y332658D01*
X498943Y332704D01*
X499037Y332741D01*
X499098Y332784D01*
X499164Y332818D01*
X499240Y332883D01*
X499323Y332940D01*
X499373Y332995D01*
X499429Y333044D01*
X499489Y333124D01*
X499556Y333199D01*
X499592Y333264D01*
X499637Y333324D01*
X499676Y333416D01*
X499725Y333504D01*
X499745Y333576D01*
X499775Y333644D01*
X499792Y333743D01*
X499820Y333839D01*
X499828Y333939D01*
X499836Y333987D01*
X499834Y334023D01*
X499839Y334083D01*
X499839Y342117D01*
X499828Y342217D01*
X499826Y342317D01*
X499808Y342389D01*
X499799Y342463D01*
X499766Y342557D01*
X499741Y342655D01*
X499707Y342721D01*
X499682Y342791D01*
X499627Y342875D01*
X499581Y342965D01*
X499533Y343021D01*
X499493Y343084D01*
X499421Y343154D01*
X499356Y343230D01*
X499296Y343274D01*
X499242Y343326D01*
X499156Y343378D01*
X499075Y343437D01*
X499007Y343467D01*
X498943Y343505D01*
X498847Y343536D01*
X498755Y343575D01*
X498682Y343588D01*
X498611Y343611D01*
X498511Y343619D01*
X498412Y343637D01*
X498338Y343633D01*
X498264Y343639D01*
X498164Y343624D01*
X498064Y343619D01*
X497993Y343598D01*
X497919Y343587D01*
X497826Y343550D01*
X497729Y343523D01*
X497664Y343486D01*
X497595Y343459D01*
X497513Y343401D01*
X497425Y343352D01*
X497349Y343287D01*
X497309Y343260D01*
X497285Y343233D01*
X497239Y343194D01*
X495585Y341540D01*
X491571Y339877D01*
X468429Y339877D01*
X464415Y341540D01*
X461342Y344613D01*
X459679Y348627D01*
X459679Y352973D01*
X461342Y356987D01*
X464415Y360060D01*
X468214Y361633D01*
X468306Y361685D01*
X468402Y361727D01*
X468458Y361769D01*
X468518Y361803D01*
X468596Y361874D01*
X468680Y361937D01*
X468725Y361990D01*
X468777Y362037D01*
X468837Y362124D01*
X468904Y362204D01*
X468935Y362266D01*
X468975Y362324D01*
X469013Y362422D01*
X469061Y362515D01*
X469077Y362583D01*
X469103Y362648D01*
X469118Y362752D01*
X469143Y362854D01*
X469143Y362924D01*
X469153Y362993D01*
X469145Y363098D01*
X469146Y363203D01*
X469130Y363271D01*
X469125Y363340D01*
X469092Y363440D01*
X469069Y363543D01*
X469039Y363605D01*
X469017Y363672D01*
X468963Y363762D01*
X468917Y363856D01*
X468874Y363911D01*
X468838Y363970D01*
X468764Y364046D01*
X468698Y364127D01*
X468644Y364170D01*
X468595Y364220D01*
X468506Y364277D01*
X468423Y364342D01*
X468360Y364371D01*
X468302Y364408D01*
X468203Y364444D01*
X468107Y364488D01*
X468017Y364510D01*
X467973Y364525D01*
X467935Y364529D01*
X467869Y364545D01*
X467806Y364555D01*
X466019Y365136D01*
X464345Y365989D01*
X462824Y367094D01*
X461496Y368422D01*
X460391Y369943D01*
X459538Y371617D01*
X458957Y373404D01*
X458957Y373407D01*
X478730Y373407D01*
X478756Y373410D01*
X478782Y373408D01*
X478929Y373430D01*
X479076Y373447D01*
X479101Y373455D01*
X479127Y373459D01*
X479264Y373514D01*
X479404Y373564D01*
X479426Y373578D01*
X479451Y373588D01*
X479572Y373673D01*
X479697Y373753D01*
X479715Y373772D01*
X479737Y373787D01*
X479836Y373897D01*
X479939Y374004D01*
X479953Y374026D01*
X479970Y374046D01*
X480042Y374176D01*
X480118Y374303D01*
X480126Y374328D01*
X480139Y374351D01*
X480179Y374494D01*
X480224Y374635D01*
X480226Y374661D01*
X480233Y374686D01*
X480253Y374930D01*
X480253Y377470D01*
X480250Y377496D01*
X480252Y377522D01*
X480230Y377669D01*
X480213Y377816D01*
X480204Y377841D01*
X480200Y377867D01*
X480146Y378005D01*
X480096Y378144D01*
X480081Y378166D01*
X480072Y378191D01*
X479987Y378312D01*
X479907Y378437D01*
X479888Y378455D01*
X479873Y378477D01*
X479763Y378576D01*
X479656Y378679D01*
X479633Y378693D01*
X479614Y378710D01*
X479484Y378782D01*
X479357Y378858D01*
X479332Y378866D01*
X479309Y378879D01*
X479166Y378919D01*
X479025Y378964D01*
X478999Y378966D01*
X478974Y378974D01*
X478730Y378993D01*
X458957Y378993D01*
X458957Y378996D01*
X459538Y380783D01*
X460391Y382457D01*
X461496Y383978D01*
X462824Y385306D01*
X464345Y386411D01*
X466019Y387264D01*
X467806Y387845D01*
X467869Y387855D01*
X467971Y387883D01*
X468074Y387902D01*
X468138Y387930D01*
X468205Y387948D01*
X468297Y387999D01*
X468394Y388041D01*
X468450Y388082D01*
X468511Y388116D01*
X468589Y388186D01*
X468673Y388249D01*
X468718Y388302D01*
X468770Y388348D01*
X468831Y388434D01*
X468899Y388515D01*
X468930Y388577D01*
X468970Y388634D01*
X469009Y388731D01*
X469057Y388825D01*
X469074Y388892D01*
X469100Y388957D01*
X469116Y389061D01*
X469142Y389163D01*
X469143Y389233D01*
X469153Y389301D01*
X469145Y389406D01*
X469147Y389512D01*
X469132Y389580D01*
X469126Y389649D01*
X469095Y389749D01*
X469072Y389852D01*
X469042Y389915D01*
X469021Y389981D01*
X468968Y390072D01*
X468923Y390167D01*
X468879Y390221D01*
X468844Y390281D01*
X468771Y390357D01*
X468705Y390439D01*
X468651Y390482D01*
X468602Y390533D01*
X468514Y390590D01*
X468432Y390655D01*
X468349Y390697D01*
X468310Y390723D01*
X468274Y390736D01*
X468214Y390767D01*
X464415Y392340D01*
X461342Y395413D01*
X460642Y397103D01*
X460605Y397170D01*
X460577Y397241D01*
X460521Y397322D01*
X460473Y397408D01*
X460421Y397464D01*
X460378Y397527D01*
X460305Y397593D01*
X460239Y397666D01*
X460176Y397709D01*
X460119Y397760D01*
X460033Y397808D01*
X459952Y397864D01*
X459881Y397892D01*
X459814Y397929D01*
X459719Y397956D01*
X459628Y397992D01*
X459552Y398003D01*
X459479Y398024D01*
X459330Y398036D01*
X459283Y398043D01*
X459264Y398041D01*
X459235Y398043D01*
X458568Y398043D01*
X458443Y398029D01*
X458316Y398022D01*
X458270Y398009D01*
X458222Y398003D01*
X458103Y397961D01*
X457982Y397926D01*
X457939Y397902D01*
X457894Y397886D01*
X457788Y397817D01*
X457677Y397756D01*
X457631Y397716D01*
X457601Y397697D01*
X457568Y397662D01*
X457491Y397597D01*
X442915Y383021D01*
X442836Y382922D01*
X442752Y382828D01*
X442728Y382786D01*
X442698Y382748D01*
X442644Y382634D01*
X442583Y382523D01*
X442570Y382476D01*
X442549Y382433D01*
X442523Y382309D01*
X442488Y382188D01*
X442483Y382127D01*
X442476Y382092D01*
X442477Y382044D01*
X442469Y381944D01*
X442469Y299392D01*
X442483Y299267D01*
X442490Y299140D01*
X442503Y299094D01*
X442509Y299046D01*
X442551Y298927D01*
X442586Y298806D01*
X442610Y298763D01*
X442626Y298718D01*
X442695Y298612D01*
X442756Y298501D01*
X442796Y298455D01*
X442815Y298425D01*
X442850Y298392D01*
X442915Y298315D01*
X473661Y267569D01*
X473760Y267490D01*
X473854Y267406D01*
X473896Y267382D01*
X473934Y267352D01*
X474048Y267298D01*
X474159Y267237D01*
X474206Y267224D01*
X474249Y267203D01*
X474373Y267177D01*
X474494Y267142D01*
X474555Y267137D01*
X474590Y267130D01*
X474638Y267131D01*
X474738Y267123D01*
X491571Y267123D01*
X495585Y265460D01*
X497239Y263806D01*
X497318Y263744D01*
X497390Y263674D01*
X497454Y263636D01*
X497512Y263590D01*
X497603Y263547D01*
X497689Y263495D01*
X497760Y263472D01*
X497827Y263441D01*
X497925Y263419D01*
X498021Y263389D01*
X498095Y263383D01*
X498168Y263367D01*
X498268Y263369D01*
X498368Y263361D01*
X498442Y263372D01*
G37*
%LPC*%
G36*
X157233Y259079D02*
X157233Y259079D01*
X150793Y265519D01*
X150694Y265598D01*
X150600Y265682D01*
X150558Y265706D01*
X150520Y265736D01*
X150406Y265790D01*
X150295Y265851D01*
X150249Y265864D01*
X150205Y265885D01*
X150082Y265911D01*
X149960Y265946D01*
X149899Y265951D01*
X149864Y265958D01*
X149816Y265957D01*
X149716Y265965D01*
X148296Y265965D01*
X146346Y266773D01*
X144853Y268266D01*
X144045Y270216D01*
X144045Y272328D01*
X144853Y274278D01*
X146346Y275771D01*
X148296Y276579D01*
X150408Y276579D01*
X152358Y275771D01*
X153851Y274278D01*
X154659Y272328D01*
X154659Y270908D01*
X154673Y270782D01*
X154680Y270656D01*
X154693Y270610D01*
X154699Y270562D01*
X154741Y270443D01*
X154776Y270321D01*
X154800Y270279D01*
X154816Y270233D01*
X154885Y270127D01*
X154946Y270017D01*
X154986Y269971D01*
X155005Y269941D01*
X155040Y269907D01*
X155105Y269831D01*
X159313Y265623D01*
X159412Y265544D01*
X159506Y265460D01*
X159548Y265436D01*
X159586Y265406D01*
X159700Y265352D01*
X159811Y265291D01*
X159857Y265278D01*
X159901Y265257D01*
X160024Y265231D01*
X160146Y265196D01*
X160207Y265191D01*
X160242Y265184D01*
X160290Y265185D01*
X160390Y265177D01*
X225934Y265177D01*
X226033Y265188D01*
X226134Y265190D01*
X226206Y265208D01*
X226280Y265217D01*
X226374Y265250D01*
X226472Y265275D01*
X226538Y265309D01*
X226608Y265334D01*
X226692Y265389D01*
X226782Y265435D01*
X226838Y265483D01*
X226901Y265523D01*
X226970Y265595D01*
X227047Y265660D01*
X227091Y265720D01*
X227143Y265774D01*
X227194Y265860D01*
X227254Y265941D01*
X227284Y266009D01*
X227322Y266073D01*
X227352Y266169D01*
X227392Y266261D01*
X227405Y266334D01*
X227428Y266405D01*
X227436Y266505D01*
X227454Y266604D01*
X227450Y266678D01*
X227456Y266752D01*
X227441Y266852D01*
X227436Y266952D01*
X227415Y267023D01*
X227404Y267097D01*
X227367Y267190D01*
X227339Y267287D01*
X227303Y267352D01*
X227275Y267421D01*
X227218Y267503D01*
X227169Y267591D01*
X227104Y267667D01*
X227077Y267707D01*
X227050Y267731D01*
X227011Y267777D01*
X226047Y268740D01*
X226047Y278858D01*
X226036Y278958D01*
X226034Y279058D01*
X226016Y279131D01*
X226007Y279204D01*
X225974Y279299D01*
X225949Y279396D01*
X225915Y279463D01*
X225890Y279533D01*
X225835Y279617D01*
X225789Y279706D01*
X225741Y279763D01*
X225701Y279825D01*
X225629Y279895D01*
X225564Y279972D01*
X225504Y280016D01*
X225450Y280068D01*
X225364Y280119D01*
X225283Y280179D01*
X225215Y280208D01*
X225151Y280246D01*
X225055Y280277D01*
X224963Y280317D01*
X224890Y280330D01*
X224819Y280353D01*
X224719Y280361D01*
X224620Y280378D01*
X224546Y280375D01*
X224472Y280381D01*
X224372Y280366D01*
X224272Y280361D01*
X224201Y280340D01*
X224127Y280329D01*
X224034Y280292D01*
X223937Y280264D01*
X223872Y280228D01*
X223803Y280200D01*
X223721Y280143D01*
X223633Y280094D01*
X223557Y280029D01*
X223517Y280001D01*
X223493Y279975D01*
X223447Y279935D01*
X218920Y275409D01*
X211510Y272339D01*
X203490Y272339D01*
X196080Y275409D01*
X190409Y281080D01*
X187339Y288490D01*
X187339Y296510D01*
X190409Y303920D01*
X196080Y309591D01*
X203490Y312661D01*
X211510Y312661D01*
X218920Y309591D01*
X224591Y303920D01*
X227661Y296510D01*
X227661Y288490D01*
X227459Y288003D01*
X227418Y287858D01*
X227372Y287715D01*
X227370Y287691D01*
X227363Y287668D01*
X227356Y287517D01*
X227344Y287368D01*
X227348Y287344D01*
X227346Y287320D01*
X227373Y287172D01*
X227396Y287023D01*
X227405Y287001D01*
X227409Y286977D01*
X227469Y286839D01*
X227524Y286699D01*
X227538Y286679D01*
X227548Y286657D01*
X227638Y286536D01*
X227723Y286413D01*
X227741Y286397D01*
X227756Y286377D01*
X227871Y286280D01*
X227982Y286180D01*
X228003Y286168D01*
X228022Y286152D01*
X228155Y286084D01*
X228287Y286011D01*
X228310Y286005D01*
X228332Y285994D01*
X228478Y285957D01*
X228623Y285916D01*
X228652Y285914D01*
X228670Y285909D01*
X228717Y285909D01*
X228866Y285897D01*
X234704Y285897D01*
X235597Y285004D01*
X235597Y268740D01*
X234633Y267777D01*
X234571Y267698D01*
X234501Y267626D01*
X234463Y267562D01*
X234417Y267504D01*
X234374Y267413D01*
X234322Y267327D01*
X234300Y267256D01*
X234268Y267189D01*
X234247Y267091D01*
X234216Y266995D01*
X234210Y266921D01*
X234194Y266848D01*
X234196Y266748D01*
X234188Y266648D01*
X234199Y266574D01*
X234200Y266500D01*
X234225Y266403D01*
X234240Y266303D01*
X234267Y266234D01*
X234285Y266162D01*
X234331Y266073D01*
X234369Y265979D01*
X234411Y265918D01*
X234445Y265852D01*
X234510Y265776D01*
X234567Y265693D01*
X234623Y265643D01*
X234671Y265587D01*
X234752Y265527D01*
X234826Y265460D01*
X234891Y265424D01*
X234951Y265379D01*
X235043Y265340D01*
X235131Y265291D01*
X235203Y265271D01*
X235271Y265241D01*
X235370Y265224D01*
X235467Y265196D01*
X235567Y265188D01*
X235614Y265180D01*
X235650Y265182D01*
X235710Y265177D01*
X238634Y265177D01*
X238733Y265188D01*
X238834Y265190D01*
X238906Y265208D01*
X238980Y265217D01*
X239074Y265250D01*
X239172Y265275D01*
X239238Y265309D01*
X239308Y265334D01*
X239392Y265389D01*
X239482Y265435D01*
X239538Y265483D01*
X239601Y265523D01*
X239670Y265595D01*
X239747Y265660D01*
X239791Y265720D01*
X239843Y265774D01*
X239894Y265860D01*
X239954Y265941D01*
X239984Y266009D01*
X240022Y266073D01*
X240052Y266169D01*
X240092Y266261D01*
X240105Y266334D01*
X240128Y266405D01*
X240136Y266505D01*
X240154Y266604D01*
X240150Y266678D01*
X240156Y266752D01*
X240141Y266852D01*
X240136Y266952D01*
X240115Y267023D01*
X240104Y267097D01*
X240067Y267190D01*
X240039Y267287D01*
X240003Y267352D01*
X239975Y267421D01*
X239918Y267503D01*
X239869Y267591D01*
X239804Y267667D01*
X239777Y267707D01*
X239750Y267731D01*
X239711Y267777D01*
X238747Y268740D01*
X238747Y285004D01*
X239640Y285897D01*
X247404Y285897D01*
X248297Y285004D01*
X248297Y268740D01*
X247017Y267461D01*
X246938Y267361D01*
X246854Y267268D01*
X246830Y267225D01*
X246800Y267188D01*
X246746Y267073D01*
X246685Y266963D01*
X246672Y266916D01*
X246651Y266873D01*
X246625Y266749D01*
X246590Y266627D01*
X246585Y266567D01*
X246578Y266532D01*
X246579Y266484D01*
X246571Y266384D01*
X246571Y263595D01*
X242055Y259079D01*
X157233Y259079D01*
G37*
%LPD*%
%LPC*%
G36*
X230175Y170179D02*
X230175Y170179D01*
X224525Y175829D01*
X224426Y175908D01*
X224332Y175992D01*
X224290Y176016D01*
X224252Y176046D01*
X224138Y176100D01*
X224027Y176161D01*
X223980Y176174D01*
X223937Y176195D01*
X223813Y176221D01*
X223692Y176256D01*
X223631Y176261D01*
X223596Y176268D01*
X223548Y176267D01*
X223448Y176275D01*
X193599Y176275D01*
X188243Y181631D01*
X188222Y181648D01*
X188205Y181668D01*
X188086Y181756D01*
X187970Y181848D01*
X187946Y181859D01*
X187925Y181875D01*
X187788Y181934D01*
X187654Y181997D01*
X187629Y182003D01*
X187605Y182013D01*
X187458Y182039D01*
X187314Y182070D01*
X187288Y182070D01*
X187262Y182075D01*
X187113Y182067D01*
X186965Y182064D01*
X186940Y182058D01*
X186914Y182057D01*
X186771Y182016D01*
X186627Y181979D01*
X186604Y181967D01*
X186579Y181960D01*
X186450Y181888D01*
X186317Y181820D01*
X186297Y181803D01*
X186275Y181790D01*
X186088Y181631D01*
X185886Y181429D01*
X183936Y180621D01*
X181824Y180621D01*
X179874Y181429D01*
X178381Y182922D01*
X177573Y184872D01*
X177573Y186984D01*
X178381Y188934D01*
X179874Y190427D01*
X181824Y191235D01*
X183936Y191235D01*
X185886Y190427D01*
X186382Y189931D01*
X186481Y189852D01*
X186575Y189768D01*
X186617Y189744D01*
X186655Y189714D01*
X186769Y189660D01*
X186880Y189599D01*
X186926Y189586D01*
X186970Y189565D01*
X187093Y189539D01*
X187215Y189504D01*
X187276Y189499D01*
X187311Y189492D01*
X187359Y189493D01*
X187459Y189485D01*
X190449Y189485D01*
X196099Y183835D01*
X196198Y183756D01*
X196292Y183672D01*
X196334Y183648D01*
X196372Y183618D01*
X196486Y183564D01*
X196597Y183503D01*
X196644Y183490D01*
X196687Y183469D01*
X196811Y183443D01*
X196932Y183408D01*
X196993Y183403D01*
X197028Y183396D01*
X197076Y183397D01*
X197176Y183389D01*
X227025Y183389D01*
X232675Y177739D01*
X232774Y177660D01*
X232868Y177576D01*
X232910Y177552D01*
X232948Y177522D01*
X233062Y177468D01*
X233173Y177407D01*
X233220Y177394D01*
X233263Y177373D01*
X233387Y177347D01*
X233508Y177312D01*
X233569Y177307D01*
X233604Y177300D01*
X233652Y177301D01*
X233752Y177293D01*
X245364Y177293D01*
X245390Y177296D01*
X245416Y177294D01*
X245563Y177316D01*
X245710Y177333D01*
X245735Y177341D01*
X245761Y177345D01*
X245899Y177400D01*
X246038Y177450D01*
X246060Y177464D01*
X246085Y177474D01*
X246206Y177559D01*
X246331Y177639D01*
X246349Y177658D01*
X246371Y177673D01*
X246470Y177783D01*
X246573Y177890D01*
X246587Y177912D01*
X246604Y177932D01*
X246676Y178062D01*
X246752Y178189D01*
X246760Y178214D01*
X246773Y178237D01*
X246813Y178380D01*
X246858Y178521D01*
X246860Y178547D01*
X246868Y178572D01*
X246887Y178816D01*
X246887Y184143D01*
X249119Y186375D01*
X252727Y189983D01*
X252806Y190082D01*
X252890Y190176D01*
X252914Y190218D01*
X252944Y190256D01*
X252998Y190370D01*
X253059Y190481D01*
X253072Y190527D01*
X253093Y190571D01*
X253119Y190694D01*
X253154Y190816D01*
X253159Y190877D01*
X253166Y190912D01*
X253165Y190960D01*
X253173Y191060D01*
X253173Y212383D01*
X253159Y212509D01*
X253152Y212635D01*
X253139Y212682D01*
X253133Y212730D01*
X253091Y212849D01*
X253056Y212970D01*
X253032Y213012D01*
X253016Y213058D01*
X252947Y213164D01*
X252886Y213274D01*
X252846Y213321D01*
X252827Y213351D01*
X252792Y213384D01*
X252727Y213461D01*
X251447Y214740D01*
X251447Y231004D01*
X252340Y231897D01*
X260104Y231897D01*
X260997Y231004D01*
X260997Y214740D01*
X259717Y213461D01*
X259638Y213362D01*
X259554Y213268D01*
X259530Y213225D01*
X259500Y213188D01*
X259446Y213073D01*
X259385Y212963D01*
X259372Y212916D01*
X259351Y212872D01*
X259325Y212749D01*
X259290Y212627D01*
X259285Y212567D01*
X259278Y212532D01*
X259279Y212484D01*
X259271Y212383D01*
X259271Y187903D01*
X253431Y182063D01*
X253352Y181964D01*
X253268Y181870D01*
X253244Y181828D01*
X253214Y181790D01*
X253160Y181676D01*
X253099Y181565D01*
X253086Y181519D01*
X253065Y181475D01*
X253039Y181352D01*
X253004Y181230D01*
X252999Y181169D01*
X252992Y181135D01*
X252993Y181087D01*
X252985Y180986D01*
X252985Y178816D01*
X252988Y178790D01*
X252986Y178764D01*
X253008Y178617D01*
X253025Y178470D01*
X253033Y178445D01*
X253037Y178419D01*
X253092Y178281D01*
X253142Y178142D01*
X253156Y178120D01*
X253166Y178095D01*
X253251Y177974D01*
X253331Y177849D01*
X253350Y177831D01*
X253365Y177809D01*
X253475Y177710D01*
X253582Y177607D01*
X253604Y177593D01*
X253624Y177576D01*
X253754Y177504D01*
X253881Y177428D01*
X253906Y177420D01*
X253929Y177407D01*
X254072Y177367D01*
X254213Y177322D01*
X254239Y177320D01*
X254264Y177312D01*
X254508Y177293D01*
X342320Y177293D01*
X342445Y177307D01*
X342572Y177314D01*
X342618Y177327D01*
X342666Y177333D01*
X342785Y177375D01*
X342906Y177410D01*
X342949Y177434D01*
X342994Y177450D01*
X343100Y177519D01*
X343211Y177580D01*
X343257Y177620D01*
X343287Y177639D01*
X343320Y177674D01*
X343397Y177739D01*
X346517Y180859D01*
X346596Y180958D01*
X346680Y181052D01*
X346704Y181094D01*
X346734Y181132D01*
X346788Y181246D01*
X346849Y181357D01*
X346862Y181404D01*
X346883Y181447D01*
X346909Y181571D01*
X346944Y181692D01*
X346949Y181753D01*
X346956Y181788D01*
X346955Y181836D01*
X346963Y181936D01*
X346963Y187445D01*
X346949Y187571D01*
X346942Y187697D01*
X346929Y187743D01*
X346923Y187791D01*
X346881Y187910D01*
X346846Y188032D01*
X346822Y188074D01*
X346806Y188119D01*
X346737Y188225D01*
X346676Y188336D01*
X346636Y188382D01*
X346617Y188412D01*
X346582Y188446D01*
X346517Y188522D01*
X346021Y189018D01*
X345213Y190968D01*
X345213Y193080D01*
X346021Y195030D01*
X347514Y196523D01*
X349464Y197331D01*
X351576Y197331D01*
X353526Y196523D01*
X355019Y195030D01*
X355827Y193080D01*
X355827Y190968D01*
X355019Y189018D01*
X354523Y188522D01*
X354444Y188423D01*
X354360Y188329D01*
X354336Y188287D01*
X354306Y188249D01*
X354252Y188135D01*
X354191Y188024D01*
X354178Y187978D01*
X354157Y187934D01*
X354131Y187810D01*
X354096Y187689D01*
X354091Y187628D01*
X354084Y187593D01*
X354085Y187545D01*
X354077Y187445D01*
X354077Y178359D01*
X351547Y175829D01*
X348427Y172709D01*
X345897Y170179D01*
X230175Y170179D01*
G37*
%LPD*%
%LPC*%
G36*
X288490Y187339D02*
X288490Y187339D01*
X281080Y190409D01*
X275409Y196080D01*
X272339Y203490D01*
X272339Y211510D01*
X272435Y211741D01*
X272476Y211886D01*
X272522Y212029D01*
X272524Y212053D01*
X272531Y212076D01*
X272538Y212226D01*
X272550Y212376D01*
X272546Y212400D01*
X272548Y212424D01*
X272521Y212572D01*
X272498Y212721D01*
X272489Y212743D01*
X272485Y212767D01*
X272425Y212905D01*
X272370Y213045D01*
X272356Y213065D01*
X272346Y213087D01*
X272256Y213208D01*
X272171Y213331D01*
X272153Y213347D01*
X272138Y213366D01*
X272023Y213464D01*
X271912Y213564D01*
X271891Y213576D01*
X271872Y213592D01*
X271739Y213660D01*
X271607Y213733D01*
X271584Y213739D01*
X271562Y213750D01*
X271416Y213787D01*
X271271Y213828D01*
X271242Y213830D01*
X271224Y213835D01*
X271177Y213835D01*
X271028Y213847D01*
X265040Y213847D01*
X264147Y214740D01*
X264147Y231004D01*
X265040Y231897D01*
X272804Y231897D01*
X273697Y231004D01*
X273697Y220886D01*
X273708Y220786D01*
X273710Y220686D01*
X273728Y220613D01*
X273737Y220540D01*
X273770Y220445D01*
X273795Y220348D01*
X273829Y220281D01*
X273854Y220211D01*
X273909Y220127D01*
X273955Y220038D01*
X274003Y219981D01*
X274043Y219919D01*
X274115Y219849D01*
X274180Y219772D01*
X274240Y219728D01*
X274294Y219676D01*
X274380Y219625D01*
X274461Y219565D01*
X274529Y219536D01*
X274593Y219498D01*
X274689Y219467D01*
X274781Y219427D01*
X274854Y219414D01*
X274925Y219391D01*
X275025Y219383D01*
X275124Y219366D01*
X275198Y219369D01*
X275272Y219363D01*
X275372Y219378D01*
X275472Y219383D01*
X275543Y219404D01*
X275617Y219415D01*
X275710Y219452D01*
X275807Y219480D01*
X275872Y219516D01*
X275941Y219544D01*
X276023Y219601D01*
X276111Y219650D01*
X276187Y219715D01*
X276227Y219743D01*
X276251Y219769D01*
X276297Y219809D01*
X281080Y224591D01*
X288490Y227661D01*
X296510Y227661D01*
X303920Y224591D01*
X309591Y218920D01*
X312661Y211510D01*
X312661Y203490D01*
X309591Y196080D01*
X303920Y190409D01*
X296510Y187339D01*
X288490Y187339D01*
G37*
%LPD*%
%LPC*%
G36*
X288490Y272339D02*
X288490Y272339D01*
X281080Y275409D01*
X277313Y279175D01*
X277235Y279238D01*
X277162Y279308D01*
X277098Y279346D01*
X277040Y279392D01*
X276949Y279435D01*
X276863Y279486D01*
X276792Y279509D01*
X276725Y279541D01*
X276627Y279562D01*
X276531Y279593D01*
X276457Y279599D01*
X276384Y279614D01*
X276284Y279613D01*
X276184Y279621D01*
X276110Y279610D01*
X276036Y279608D01*
X275939Y279584D01*
X275839Y279569D01*
X275770Y279541D01*
X275698Y279523D01*
X275608Y279477D01*
X275515Y279440D01*
X275454Y279398D01*
X275388Y279364D01*
X275311Y279298D01*
X275229Y279241D01*
X275179Y279186D01*
X275123Y279138D01*
X275063Y279057D01*
X274996Y278982D01*
X274960Y278917D01*
X274915Y278858D01*
X274876Y278765D01*
X274827Y278677D01*
X274807Y278606D01*
X274777Y278538D01*
X274770Y278496D01*
X270546Y278496D01*
X270546Y286913D01*
X270816Y286913D01*
X270842Y286916D01*
X270868Y286914D01*
X271015Y286936D01*
X271162Y286953D01*
X271187Y286961D01*
X271213Y286965D01*
X271351Y287020D01*
X271490Y287070D01*
X271512Y287084D01*
X271537Y287094D01*
X271658Y287179D01*
X271783Y287259D01*
X271801Y287278D01*
X271823Y287293D01*
X271922Y287403D01*
X272025Y287510D01*
X272039Y287532D01*
X272056Y287552D01*
X272128Y287682D01*
X272204Y287809D01*
X272212Y287834D01*
X272225Y287857D01*
X272265Y288000D01*
X272310Y288141D01*
X272312Y288167D01*
X272320Y288192D01*
X272339Y288436D01*
X272339Y296510D01*
X275409Y303920D01*
X281080Y309591D01*
X288490Y312661D01*
X296510Y312661D01*
X303920Y309591D01*
X309591Y303920D01*
X312661Y296510D01*
X312661Y288490D01*
X309591Y281080D01*
X303920Y275409D01*
X296510Y272339D01*
X288490Y272339D01*
G37*
%LPD*%
%LPC*%
G36*
X203490Y187339D02*
X203490Y187339D01*
X196080Y190409D01*
X190409Y196080D01*
X187339Y203490D01*
X187339Y211510D01*
X190409Y218920D01*
X196080Y224591D01*
X203490Y227661D01*
X211510Y227661D01*
X218920Y224591D01*
X222431Y221081D01*
X222509Y221018D01*
X222582Y220948D01*
X222646Y220910D01*
X222704Y220864D01*
X222795Y220821D01*
X222881Y220770D01*
X222952Y220747D01*
X223019Y220715D01*
X223117Y220694D01*
X223213Y220663D01*
X223287Y220657D01*
X223360Y220642D01*
X223460Y220643D01*
X223560Y220635D01*
X223634Y220646D01*
X223708Y220648D01*
X223805Y220672D01*
X223905Y220687D01*
X223974Y220715D01*
X224046Y220733D01*
X224136Y220779D01*
X224229Y220816D01*
X224290Y220858D01*
X224356Y220892D01*
X224432Y220957D01*
X224515Y221015D01*
X224565Y221070D01*
X224621Y221118D01*
X224681Y221199D01*
X224725Y221248D01*
X229198Y221248D01*
X229198Y212831D01*
X229184Y212831D01*
X229158Y212828D01*
X229132Y212830D01*
X228985Y212808D01*
X228838Y212791D01*
X228813Y212783D01*
X228787Y212779D01*
X228649Y212724D01*
X228510Y212674D01*
X228488Y212660D01*
X228463Y212650D01*
X228342Y212565D01*
X228217Y212485D01*
X228199Y212466D01*
X228177Y212451D01*
X228078Y212341D01*
X227975Y212234D01*
X227961Y212212D01*
X227944Y212192D01*
X227872Y212062D01*
X227796Y211935D01*
X227788Y211910D01*
X227775Y211887D01*
X227735Y211744D01*
X227690Y211603D01*
X227688Y211577D01*
X227680Y211552D01*
X227661Y211308D01*
X227661Y203490D01*
X224591Y196080D01*
X218920Y190409D01*
X211510Y187339D01*
X203490Y187339D01*
G37*
%LPD*%
%LPC*%
G36*
X184872Y241581D02*
X184872Y241581D01*
X182922Y242389D01*
X181429Y243882D01*
X180621Y245832D01*
X180621Y247252D01*
X180607Y247378D01*
X180600Y247504D01*
X180587Y247550D01*
X180581Y247598D01*
X180539Y247717D01*
X180504Y247839D01*
X180480Y247881D01*
X180464Y247927D01*
X180395Y248033D01*
X180334Y248143D01*
X180294Y248189D01*
X180275Y248219D01*
X180240Y248253D01*
X180175Y248329D01*
X179015Y249489D01*
X178916Y249568D01*
X178822Y249652D01*
X178780Y249676D01*
X178742Y249706D01*
X178628Y249760D01*
X178517Y249821D01*
X178471Y249834D01*
X178427Y249855D01*
X178304Y249881D01*
X178182Y249916D01*
X178121Y249921D01*
X178086Y249928D01*
X178038Y249927D01*
X177938Y249935D01*
X133103Y249935D01*
X132977Y249921D01*
X132851Y249914D01*
X132805Y249901D01*
X132757Y249895D01*
X132638Y249853D01*
X132516Y249818D01*
X132474Y249794D01*
X132429Y249778D01*
X132323Y249709D01*
X132212Y249648D01*
X132166Y249608D01*
X132136Y249589D01*
X132102Y249554D01*
X132026Y249489D01*
X131022Y248485D01*
X129072Y247677D01*
X126960Y247677D01*
X125010Y248485D01*
X123517Y249978D01*
X122709Y251928D01*
X122709Y254040D01*
X123517Y255990D01*
X125010Y257483D01*
X126960Y258291D01*
X129072Y258291D01*
X131022Y257483D01*
X132026Y256479D01*
X132125Y256400D01*
X132219Y256316D01*
X132261Y256292D01*
X132299Y256262D01*
X132413Y256208D01*
X132524Y256147D01*
X132570Y256134D01*
X132614Y256113D01*
X132737Y256087D01*
X132859Y256052D01*
X132920Y256047D01*
X132955Y256040D01*
X133003Y256041D01*
X133103Y256033D01*
X181095Y256033D01*
X184487Y252641D01*
X184586Y252562D01*
X184680Y252478D01*
X184722Y252454D01*
X184760Y252424D01*
X184874Y252370D01*
X184985Y252309D01*
X185031Y252296D01*
X185075Y252275D01*
X185198Y252249D01*
X185320Y252214D01*
X185381Y252209D01*
X185416Y252202D01*
X185464Y252203D01*
X185564Y252195D01*
X186984Y252195D01*
X188934Y251387D01*
X189938Y250383D01*
X190037Y250304D01*
X190131Y250220D01*
X190173Y250196D01*
X190211Y250166D01*
X190325Y250112D01*
X190436Y250051D01*
X190482Y250038D01*
X190526Y250017D01*
X190649Y249991D01*
X190771Y249956D01*
X190832Y249951D01*
X190867Y249944D01*
X190915Y249945D01*
X191015Y249937D01*
X244994Y249937D01*
X245120Y249951D01*
X245246Y249958D01*
X245292Y249971D01*
X245340Y249977D01*
X245459Y250019D01*
X245581Y250054D01*
X245623Y250078D01*
X245669Y250094D01*
X245775Y250163D01*
X245885Y250224D01*
X245931Y250264D01*
X245961Y250283D01*
X245995Y250318D01*
X246071Y250383D01*
X252727Y257039D01*
X252806Y257138D01*
X252890Y257232D01*
X252914Y257274D01*
X252944Y257312D01*
X252998Y257426D01*
X253059Y257537D01*
X253072Y257583D01*
X253093Y257627D01*
X253119Y257750D01*
X253154Y257872D01*
X253159Y257933D01*
X253166Y257968D01*
X253165Y258016D01*
X253173Y258116D01*
X253173Y266383D01*
X253159Y266509D01*
X253152Y266635D01*
X253139Y266682D01*
X253133Y266730D01*
X253091Y266849D01*
X253056Y266970D01*
X253032Y267012D01*
X253016Y267058D01*
X252947Y267164D01*
X252886Y267274D01*
X252846Y267321D01*
X252827Y267351D01*
X252792Y267384D01*
X252727Y267461D01*
X251447Y268740D01*
X251447Y285004D01*
X252340Y285897D01*
X260104Y285897D01*
X260928Y285072D01*
X260968Y285040D01*
X261003Y285003D01*
X261105Y284932D01*
X261201Y284855D01*
X261247Y284834D01*
X261289Y284805D01*
X261405Y284759D01*
X261516Y284707D01*
X261566Y284696D01*
X261614Y284677D01*
X261736Y284659D01*
X261857Y284633D01*
X261908Y284634D01*
X261959Y284627D01*
X262082Y284637D01*
X262206Y284639D01*
X262255Y284652D01*
X262306Y284656D01*
X262424Y284694D01*
X262544Y284724D01*
X262589Y284747D01*
X262637Y284763D01*
X262743Y284827D01*
X262853Y284884D01*
X262892Y284917D01*
X262936Y284943D01*
X263025Y285029D01*
X263119Y285110D01*
X263149Y285151D01*
X263186Y285186D01*
X263325Y285388D01*
X263639Y285932D01*
X264112Y286405D01*
X264691Y286740D01*
X265337Y286913D01*
X267298Y286913D01*
X267298Y276973D01*
X267301Y276947D01*
X267299Y276921D01*
X267306Y276872D01*
X267298Y276771D01*
X267298Y266831D01*
X265337Y266831D01*
X264691Y267004D01*
X264112Y267339D01*
X263639Y267812D01*
X263325Y268356D01*
X263294Y268397D01*
X263271Y268443D01*
X263202Y268523D01*
X263151Y268597D01*
X263136Y268610D01*
X263117Y268636D01*
X263078Y268669D01*
X263045Y268708D01*
X262950Y268779D01*
X262892Y268830D01*
X262880Y268837D01*
X262851Y268862D01*
X262806Y268885D01*
X262765Y268915D01*
X262651Y268964D01*
X262633Y268974D01*
X262587Y268999D01*
X262580Y269001D01*
X262541Y269021D01*
X262491Y269033D01*
X262445Y269053D01*
X262323Y269075D01*
X262270Y269088D01*
X262252Y269094D01*
X262248Y269094D01*
X262203Y269105D01*
X262152Y269106D01*
X262102Y269115D01*
X262031Y269111D01*
X262008Y269113D01*
X262000Y269113D01*
X261963Y269109D01*
X261854Y269111D01*
X261804Y269100D01*
X261754Y269097D01*
X261682Y269077D01*
X261654Y269073D01*
X261610Y269058D01*
X261514Y269037D01*
X261468Y269015D01*
X261419Y269001D01*
X261361Y268968D01*
X261326Y268956D01*
X261278Y268924D01*
X261199Y268887D01*
X261159Y268855D01*
X261115Y268830D01*
X261060Y268784D01*
X261033Y268767D01*
X261004Y268736D01*
X260928Y268672D01*
X259717Y267461D01*
X259638Y267362D01*
X259554Y267268D01*
X259530Y267225D01*
X259500Y267188D01*
X259446Y267073D01*
X259385Y266963D01*
X259372Y266916D01*
X259351Y266872D01*
X259325Y266749D01*
X259290Y266627D01*
X259285Y266567D01*
X259278Y266532D01*
X259279Y266484D01*
X259271Y266383D01*
X259271Y254959D01*
X248151Y243839D01*
X191015Y243839D01*
X190889Y243825D01*
X190763Y243818D01*
X190717Y243805D01*
X190669Y243799D01*
X190550Y243757D01*
X190428Y243722D01*
X190386Y243698D01*
X190341Y243682D01*
X190235Y243613D01*
X190124Y243552D01*
X190078Y243512D01*
X190048Y243493D01*
X190014Y243458D01*
X189938Y243393D01*
X188934Y242389D01*
X186984Y241581D01*
X184872Y241581D01*
G37*
%LPD*%
%LPC*%
G36*
X236688Y299493D02*
X236688Y299493D01*
X234738Y300301D01*
X233245Y301794D01*
X232437Y303744D01*
X232437Y305856D01*
X233245Y307806D01*
X234249Y308810D01*
X234328Y308909D01*
X234412Y309003D01*
X234436Y309045D01*
X234466Y309083D01*
X234520Y309197D01*
X234581Y309308D01*
X234594Y309354D01*
X234615Y309398D01*
X234641Y309521D01*
X234676Y309643D01*
X234681Y309704D01*
X234688Y309739D01*
X234687Y309787D01*
X234695Y309887D01*
X234695Y321303D01*
X279153Y365761D01*
X321194Y365761D01*
X321320Y365775D01*
X321446Y365782D01*
X321492Y365795D01*
X321540Y365801D01*
X321659Y365843D01*
X321781Y365878D01*
X321823Y365902D01*
X321869Y365918D01*
X321975Y365987D01*
X322085Y366048D01*
X322131Y366088D01*
X322161Y366107D01*
X322195Y366142D01*
X322271Y366207D01*
X322641Y366577D01*
X322720Y366676D01*
X322804Y366770D01*
X322828Y366812D01*
X322858Y366850D01*
X322912Y366964D01*
X322973Y367075D01*
X322986Y367121D01*
X323007Y367165D01*
X323033Y367288D01*
X323068Y367410D01*
X323073Y367471D01*
X323080Y367506D01*
X323079Y367554D01*
X323087Y367654D01*
X323087Y382009D01*
X323073Y382135D01*
X323066Y382261D01*
X323053Y382307D01*
X323047Y382355D01*
X323005Y382474D01*
X322970Y382596D01*
X322946Y382638D01*
X322930Y382683D01*
X322861Y382789D01*
X322800Y382900D01*
X322760Y382946D01*
X322741Y382976D01*
X322706Y383010D01*
X322641Y383086D01*
X321637Y384090D01*
X320829Y386040D01*
X320829Y388152D01*
X321637Y390102D01*
X323130Y391595D01*
X325080Y392403D01*
X327192Y392403D01*
X329142Y391595D01*
X330635Y390102D01*
X331443Y388152D01*
X331443Y386040D01*
X330635Y384090D01*
X329631Y383086D01*
X329552Y382987D01*
X329468Y382893D01*
X329444Y382851D01*
X329414Y382813D01*
X329360Y382699D01*
X329299Y382588D01*
X329286Y382542D01*
X329265Y382498D01*
X329239Y382375D01*
X329204Y382253D01*
X329199Y382192D01*
X329192Y382157D01*
X329193Y382109D01*
X329185Y382009D01*
X329185Y364497D01*
X324351Y359663D01*
X282310Y359663D01*
X282184Y359649D01*
X282058Y359642D01*
X282012Y359629D01*
X281964Y359623D01*
X281845Y359581D01*
X281723Y359546D01*
X281681Y359522D01*
X281635Y359506D01*
X281529Y359437D01*
X281419Y359376D01*
X281373Y359336D01*
X281343Y359317D01*
X281309Y359282D01*
X281233Y359217D01*
X241239Y319223D01*
X241160Y319124D01*
X241076Y319030D01*
X241052Y318988D01*
X241022Y318950D01*
X240968Y318836D01*
X240907Y318725D01*
X240894Y318679D01*
X240873Y318635D01*
X240847Y318512D01*
X240812Y318390D01*
X240807Y318329D01*
X240800Y318294D01*
X240801Y318246D01*
X240793Y318146D01*
X240793Y309887D01*
X240807Y309761D01*
X240814Y309635D01*
X240827Y309589D01*
X240833Y309541D01*
X240875Y309422D01*
X240910Y309300D01*
X240934Y309258D01*
X240950Y309213D01*
X241019Y309107D01*
X241080Y308996D01*
X241120Y308950D01*
X241139Y308920D01*
X241174Y308886D01*
X241239Y308810D01*
X242243Y307806D01*
X243051Y305856D01*
X243051Y303744D01*
X242243Y301794D01*
X240750Y300301D01*
X238800Y299493D01*
X236688Y299493D01*
G37*
%LPD*%
%LPC*%
G36*
X300696Y40413D02*
X300696Y40413D01*
X298746Y41221D01*
X297253Y42714D01*
X296445Y44664D01*
X296445Y46084D01*
X296431Y46210D01*
X296424Y46336D01*
X296411Y46382D01*
X296405Y46430D01*
X296363Y46549D01*
X296328Y46671D01*
X296304Y46713D01*
X296288Y46759D01*
X296219Y46865D01*
X296158Y46975D01*
X296118Y47021D01*
X296099Y47051D01*
X296064Y47085D01*
X295999Y47161D01*
X291791Y51369D01*
X291692Y51448D01*
X291598Y51532D01*
X291556Y51556D01*
X291518Y51586D01*
X291404Y51640D01*
X291293Y51701D01*
X291247Y51714D01*
X291203Y51735D01*
X291080Y51761D01*
X290958Y51796D01*
X290897Y51801D01*
X290862Y51808D01*
X290814Y51807D01*
X290714Y51815D01*
X233433Y51815D01*
X202609Y82639D01*
X202510Y82718D01*
X202416Y82802D01*
X202374Y82826D01*
X202336Y82856D01*
X202222Y82910D01*
X202111Y82971D01*
X202065Y82984D01*
X202021Y83005D01*
X201898Y83031D01*
X201776Y83066D01*
X201715Y83071D01*
X201680Y83078D01*
X201632Y83077D01*
X201532Y83085D01*
X200112Y83085D01*
X198162Y83893D01*
X196669Y85386D01*
X195861Y87336D01*
X195861Y89448D01*
X196669Y91398D01*
X198162Y92891D01*
X200112Y93699D01*
X202224Y93699D01*
X204174Y92891D01*
X205667Y91398D01*
X206475Y89448D01*
X206475Y88028D01*
X206489Y87902D01*
X206496Y87776D01*
X206509Y87730D01*
X206515Y87682D01*
X206557Y87563D01*
X206592Y87441D01*
X206616Y87399D01*
X206632Y87353D01*
X206701Y87247D01*
X206762Y87137D01*
X206802Y87091D01*
X206821Y87061D01*
X206856Y87027D01*
X206921Y86951D01*
X235513Y58359D01*
X235612Y58280D01*
X235706Y58196D01*
X235748Y58172D01*
X235786Y58142D01*
X235900Y58088D01*
X236011Y58027D01*
X236057Y58014D01*
X236101Y57993D01*
X236224Y57967D01*
X236346Y57932D01*
X236407Y57927D01*
X236442Y57920D01*
X236490Y57921D01*
X236590Y57913D01*
X293871Y57913D01*
X300311Y51473D01*
X300410Y51394D01*
X300504Y51310D01*
X300546Y51286D01*
X300584Y51256D01*
X300698Y51202D01*
X300809Y51141D01*
X300855Y51128D01*
X300899Y51107D01*
X301022Y51081D01*
X301144Y51046D01*
X301205Y51041D01*
X301240Y51034D01*
X301288Y51035D01*
X301388Y51027D01*
X302808Y51027D01*
X304758Y50219D01*
X306251Y48726D01*
X307059Y46776D01*
X307059Y44664D01*
X306251Y42714D01*
X304758Y41221D01*
X302808Y40413D01*
X300696Y40413D01*
G37*
%LPD*%
%LPC*%
G36*
X377827Y439679D02*
X377827Y439679D01*
X373813Y441342D01*
X370740Y444415D01*
X369077Y448429D01*
X369077Y471571D01*
X370740Y475585D01*
X373813Y478658D01*
X377827Y480321D01*
X382173Y480321D01*
X386187Y478658D01*
X389260Y475585D01*
X390923Y471571D01*
X390923Y448429D01*
X389260Y444415D01*
X386187Y441342D01*
X382173Y439679D01*
X377827Y439679D01*
G37*
%LPD*%
%LPC*%
G36*
X251928Y299493D02*
X251928Y299493D01*
X249978Y300301D01*
X248485Y301794D01*
X247677Y303744D01*
X247677Y305856D01*
X248485Y307806D01*
X249489Y308810D01*
X249568Y308909D01*
X249652Y309003D01*
X249676Y309045D01*
X249706Y309083D01*
X249760Y309197D01*
X249821Y309308D01*
X249834Y309354D01*
X249855Y309398D01*
X249881Y309521D01*
X249916Y309643D01*
X249921Y309704D01*
X249928Y309739D01*
X249927Y309787D01*
X249935Y309887D01*
X249935Y321303D01*
X285249Y356617D01*
X299967Y356617D01*
X303359Y353225D01*
X303458Y353146D01*
X303552Y353062D01*
X303594Y353038D01*
X303632Y353008D01*
X303746Y352954D01*
X303857Y352893D01*
X303903Y352880D01*
X303947Y352859D01*
X304070Y352833D01*
X304192Y352798D01*
X304253Y352793D01*
X304287Y352786D01*
X304335Y352787D01*
X304436Y352779D01*
X305856Y352779D01*
X307806Y351971D01*
X309299Y350478D01*
X310107Y348528D01*
X310107Y346416D01*
X309299Y344466D01*
X307806Y342973D01*
X305856Y342165D01*
X303744Y342165D01*
X301794Y342973D01*
X300301Y344466D01*
X299493Y346416D01*
X299493Y347836D01*
X299479Y347962D01*
X299472Y348088D01*
X299459Y348134D01*
X299453Y348182D01*
X299411Y348302D01*
X299376Y348423D01*
X299352Y348465D01*
X299336Y348511D01*
X299267Y348617D01*
X299206Y348727D01*
X299166Y348773D01*
X299147Y348803D01*
X299112Y348837D01*
X299047Y348913D01*
X297887Y350073D01*
X297788Y350152D01*
X297694Y350236D01*
X297652Y350260D01*
X297614Y350290D01*
X297500Y350344D01*
X297389Y350405D01*
X297343Y350418D01*
X297299Y350439D01*
X297176Y350465D01*
X297054Y350500D01*
X296993Y350505D01*
X296958Y350512D01*
X296910Y350511D01*
X296810Y350519D01*
X288406Y350519D01*
X288280Y350505D01*
X288154Y350498D01*
X288108Y350485D01*
X288060Y350479D01*
X287941Y350437D01*
X287819Y350402D01*
X287777Y350378D01*
X287731Y350362D01*
X287625Y350293D01*
X287515Y350232D01*
X287469Y350192D01*
X287439Y350173D01*
X287405Y350138D01*
X287329Y350073D01*
X256479Y319223D01*
X256400Y319124D01*
X256316Y319030D01*
X256292Y318988D01*
X256262Y318950D01*
X256208Y318836D01*
X256147Y318725D01*
X256134Y318679D01*
X256113Y318635D01*
X256087Y318512D01*
X256052Y318390D01*
X256047Y318329D01*
X256040Y318294D01*
X256041Y318246D01*
X256033Y318146D01*
X256033Y309887D01*
X256047Y309761D01*
X256054Y309635D01*
X256067Y309589D01*
X256073Y309541D01*
X256115Y309422D01*
X256150Y309300D01*
X256174Y309258D01*
X256190Y309213D01*
X256259Y309107D01*
X256320Y308996D01*
X256360Y308950D01*
X256379Y308920D01*
X256414Y308886D01*
X256479Y308810D01*
X257483Y307806D01*
X258291Y305856D01*
X258291Y303744D01*
X257483Y301794D01*
X255990Y300301D01*
X254040Y299493D01*
X251928Y299493D01*
G37*
%LPD*%
%LPC*%
G36*
X346416Y427509D02*
X346416Y427509D01*
X344466Y428317D01*
X342973Y429810D01*
X342165Y431760D01*
X342165Y433872D01*
X343011Y435914D01*
X343021Y435926D01*
X343032Y435950D01*
X343048Y435971D01*
X343106Y436107D01*
X343170Y436241D01*
X343175Y436267D01*
X343186Y436291D01*
X343212Y436436D01*
X343243Y436581D01*
X343243Y436608D01*
X343247Y436634D01*
X343240Y436782D01*
X343237Y436930D01*
X343231Y436956D01*
X343230Y436982D01*
X343189Y437124D01*
X343152Y437268D01*
X343140Y437292D01*
X343133Y437317D01*
X343061Y437446D01*
X342993Y437578D01*
X342976Y437598D01*
X342963Y437621D01*
X342804Y437807D01*
X341995Y438616D01*
X341995Y451880D01*
X342888Y452773D01*
X358152Y452773D01*
X359045Y451880D01*
X359045Y438616D01*
X358152Y437723D01*
X353463Y437723D01*
X353314Y437706D01*
X353164Y437694D01*
X353141Y437686D01*
X353117Y437683D01*
X352976Y437633D01*
X352832Y437587D01*
X352811Y437574D01*
X352789Y437566D01*
X352663Y437484D01*
X352534Y437407D01*
X352516Y437390D01*
X352496Y437377D01*
X352391Y437269D01*
X352284Y437164D01*
X352270Y437144D01*
X352254Y437126D01*
X352176Y436997D01*
X352095Y436871D01*
X352087Y436848D01*
X352075Y436827D01*
X352029Y436684D01*
X351979Y436542D01*
X351976Y436518D01*
X351969Y436495D01*
X351957Y436346D01*
X351940Y436196D01*
X351943Y436172D01*
X351941Y436148D01*
X351963Y435999D01*
X351981Y435850D01*
X351989Y435822D01*
X351992Y435803D01*
X352010Y435759D01*
X352056Y435617D01*
X352779Y433872D01*
X352779Y431760D01*
X351971Y429810D01*
X350478Y428317D01*
X348528Y427509D01*
X346416Y427509D01*
G37*
%LPD*%
%LPC*%
G36*
X325080Y427509D02*
X325080Y427509D01*
X323130Y428317D01*
X321637Y429810D01*
X320829Y431760D01*
X320829Y433872D01*
X321450Y435369D01*
X321491Y435514D01*
X321537Y435657D01*
X321539Y435681D01*
X321545Y435704D01*
X321553Y435855D01*
X321565Y436004D01*
X321561Y436028D01*
X321562Y436052D01*
X321535Y436200D01*
X321513Y436349D01*
X321504Y436371D01*
X321500Y436395D01*
X321440Y436533D01*
X321384Y436673D01*
X321370Y436693D01*
X321361Y436715D01*
X321271Y436836D01*
X321185Y436959D01*
X321167Y436975D01*
X321153Y436995D01*
X321038Y437092D01*
X320927Y437192D01*
X320905Y437204D01*
X320887Y437220D01*
X320753Y437288D01*
X320621Y437361D01*
X320598Y437367D01*
X320577Y437378D01*
X320431Y437415D01*
X320286Y437456D01*
X320257Y437458D01*
X320238Y437463D01*
X320191Y437463D01*
X320188Y437464D01*
X319283Y438368D01*
X319283Y451632D01*
X320176Y452525D01*
X335440Y452525D01*
X336333Y451632D01*
X336333Y438368D01*
X335440Y437475D01*
X332230Y437475D01*
X332080Y437458D01*
X331931Y437446D01*
X331908Y437438D01*
X331883Y437435D01*
X331742Y437385D01*
X331599Y437338D01*
X331578Y437326D01*
X331555Y437318D01*
X331429Y437236D01*
X331300Y437159D01*
X331283Y437142D01*
X331263Y437129D01*
X331158Y437021D01*
X331050Y436916D01*
X331037Y436896D01*
X331020Y436878D01*
X330943Y436749D01*
X330862Y436623D01*
X330854Y436600D01*
X330842Y436579D01*
X330796Y436436D01*
X330745Y436294D01*
X330743Y436270D01*
X330735Y436247D01*
X330723Y436098D01*
X330706Y435948D01*
X330709Y435924D01*
X330707Y435900D01*
X330730Y435751D01*
X330747Y435602D01*
X330756Y435574D01*
X330759Y435555D01*
X330777Y435511D01*
X330822Y435369D01*
X331443Y433872D01*
X331443Y431760D01*
X330635Y429810D01*
X329142Y428317D01*
X327192Y427509D01*
X325080Y427509D01*
G37*
%LPD*%
%LPC*%
G36*
X300696Y427509D02*
X300696Y427509D01*
X298746Y428317D01*
X297253Y429810D01*
X296445Y431760D01*
X296445Y433872D01*
X297066Y435369D01*
X297107Y435514D01*
X297153Y435657D01*
X297155Y435681D01*
X297161Y435704D01*
X297169Y435855D01*
X297181Y436004D01*
X297177Y436028D01*
X297178Y436052D01*
X297151Y436200D01*
X297129Y436349D01*
X297120Y436371D01*
X297116Y436395D01*
X297056Y436533D01*
X297000Y436673D01*
X296986Y436693D01*
X296977Y436715D01*
X296887Y436836D01*
X296801Y436959D01*
X296783Y436975D01*
X296769Y436995D01*
X296666Y437081D01*
X295379Y438368D01*
X295379Y451632D01*
X296272Y452525D01*
X311536Y452525D01*
X312429Y451632D01*
X312429Y438368D01*
X311536Y437475D01*
X307846Y437475D01*
X307696Y437458D01*
X307547Y437446D01*
X307524Y437438D01*
X307499Y437435D01*
X307358Y437385D01*
X307215Y437338D01*
X307194Y437326D01*
X307171Y437318D01*
X307045Y437236D01*
X306916Y437159D01*
X306899Y437142D01*
X306879Y437129D01*
X306774Y437021D01*
X306666Y436916D01*
X306653Y436896D01*
X306636Y436878D01*
X306559Y436749D01*
X306478Y436623D01*
X306470Y436600D01*
X306458Y436579D01*
X306412Y436436D01*
X306361Y436294D01*
X306359Y436270D01*
X306351Y436247D01*
X306339Y436098D01*
X306322Y435948D01*
X306325Y435924D01*
X306323Y435900D01*
X306346Y435751D01*
X306363Y435602D01*
X306372Y435574D01*
X306375Y435555D01*
X306393Y435511D01*
X306438Y435369D01*
X307059Y433872D01*
X307059Y431760D01*
X306251Y429810D01*
X304758Y428317D01*
X302808Y427509D01*
X300696Y427509D01*
G37*
%LPD*%
%LPC*%
G36*
X87336Y235485D02*
X87336Y235485D01*
X85386Y236293D01*
X83893Y237786D01*
X83085Y239736D01*
X83085Y241848D01*
X83893Y243798D01*
X84897Y244802D01*
X84976Y244901D01*
X85060Y244995D01*
X85084Y245037D01*
X85114Y245075D01*
X85168Y245189D01*
X85229Y245300D01*
X85242Y245346D01*
X85263Y245390D01*
X85289Y245513D01*
X85324Y245635D01*
X85329Y245696D01*
X85336Y245731D01*
X85335Y245779D01*
X85343Y245879D01*
X85343Y272281D01*
X85329Y272407D01*
X85322Y272533D01*
X85309Y272579D01*
X85303Y272627D01*
X85261Y272746D01*
X85226Y272868D01*
X85202Y272910D01*
X85186Y272955D01*
X85117Y273061D01*
X85056Y273172D01*
X85016Y273218D01*
X84997Y273248D01*
X84962Y273282D01*
X84897Y273358D01*
X83893Y274362D01*
X83085Y276312D01*
X83085Y278424D01*
X83893Y280374D01*
X85386Y281867D01*
X87336Y282675D01*
X89448Y282675D01*
X91398Y281867D01*
X92891Y280374D01*
X93699Y278424D01*
X93699Y276312D01*
X92891Y274362D01*
X91887Y273358D01*
X91808Y273259D01*
X91724Y273165D01*
X91700Y273123D01*
X91670Y273085D01*
X91616Y272971D01*
X91555Y272860D01*
X91542Y272814D01*
X91521Y272770D01*
X91495Y272647D01*
X91460Y272525D01*
X91455Y272464D01*
X91448Y272429D01*
X91449Y272381D01*
X91441Y272281D01*
X91441Y245879D01*
X91455Y245753D01*
X91462Y245627D01*
X91475Y245581D01*
X91481Y245533D01*
X91523Y245414D01*
X91558Y245292D01*
X91582Y245250D01*
X91598Y245205D01*
X91667Y245099D01*
X91728Y244988D01*
X91768Y244942D01*
X91787Y244912D01*
X91822Y244878D01*
X91887Y244802D01*
X92891Y243798D01*
X93699Y241848D01*
X93699Y239736D01*
X92891Y237786D01*
X91398Y236293D01*
X89448Y235485D01*
X87336Y235485D01*
G37*
%LPD*%
%LPC*%
G36*
X102576Y235485D02*
X102576Y235485D01*
X100626Y236293D01*
X99133Y237786D01*
X98325Y239736D01*
X98325Y241848D01*
X99133Y243798D01*
X100137Y244802D01*
X100216Y244901D01*
X100300Y244995D01*
X100324Y245037D01*
X100354Y245075D01*
X100408Y245189D01*
X100469Y245300D01*
X100482Y245346D01*
X100503Y245390D01*
X100529Y245513D01*
X100564Y245635D01*
X100569Y245696D01*
X100576Y245731D01*
X100575Y245779D01*
X100583Y245879D01*
X100583Y272281D01*
X100569Y272407D01*
X100562Y272533D01*
X100549Y272579D01*
X100543Y272627D01*
X100501Y272746D01*
X100466Y272868D01*
X100442Y272910D01*
X100426Y272955D01*
X100357Y273061D01*
X100296Y273172D01*
X100256Y273218D01*
X100237Y273248D01*
X100202Y273282D01*
X100137Y273358D01*
X99133Y274362D01*
X98325Y276312D01*
X98325Y278424D01*
X99133Y280374D01*
X100626Y281867D01*
X102576Y282675D01*
X104688Y282675D01*
X106638Y281867D01*
X108131Y280374D01*
X108939Y278424D01*
X108939Y276312D01*
X108131Y274362D01*
X107127Y273358D01*
X107048Y273259D01*
X106964Y273165D01*
X106940Y273123D01*
X106910Y273085D01*
X106856Y272971D01*
X106795Y272860D01*
X106782Y272814D01*
X106761Y272770D01*
X106735Y272647D01*
X106700Y272525D01*
X106695Y272464D01*
X106688Y272429D01*
X106689Y272381D01*
X106681Y272281D01*
X106681Y245879D01*
X106695Y245753D01*
X106702Y245627D01*
X106715Y245581D01*
X106721Y245533D01*
X106763Y245414D01*
X106798Y245292D01*
X106822Y245250D01*
X106838Y245205D01*
X106907Y245099D01*
X106968Y244988D01*
X107008Y244942D01*
X107027Y244912D01*
X107062Y244878D01*
X107127Y244802D01*
X108131Y243798D01*
X108939Y241848D01*
X108939Y239736D01*
X108131Y237786D01*
X106638Y236293D01*
X104688Y235485D01*
X102576Y235485D01*
G37*
%LPD*%
%LPC*%
G36*
X232446Y212831D02*
X232446Y212831D01*
X232446Y222771D01*
X232443Y222797D01*
X232445Y222823D01*
X232438Y222872D01*
X232446Y222973D01*
X232446Y232913D01*
X234407Y232913D01*
X235053Y232740D01*
X235632Y232405D01*
X236105Y231932D01*
X236419Y231388D01*
X236450Y231347D01*
X236473Y231301D01*
X236553Y231207D01*
X236627Y231108D01*
X236666Y231075D01*
X236699Y231036D01*
X236799Y230962D01*
X236893Y230882D01*
X236938Y230859D01*
X236979Y230829D01*
X237093Y230780D01*
X237203Y230723D01*
X237253Y230711D01*
X237299Y230691D01*
X237421Y230669D01*
X237541Y230639D01*
X237592Y230638D01*
X237642Y230629D01*
X237766Y230635D01*
X237890Y230633D01*
X237939Y230644D01*
X237990Y230647D01*
X238109Y230681D01*
X238230Y230707D01*
X238276Y230729D01*
X238325Y230743D01*
X238433Y230804D01*
X238545Y230857D01*
X238585Y230889D01*
X238629Y230914D01*
X238816Y231072D01*
X239640Y231897D01*
X247404Y231897D01*
X248297Y231004D01*
X248297Y214740D01*
X247404Y213847D01*
X239640Y213847D01*
X238816Y214672D01*
X238776Y214704D01*
X238741Y214741D01*
X238640Y214812D01*
X238543Y214889D01*
X238497Y214910D01*
X238455Y214939D01*
X238339Y214985D01*
X238228Y215038D01*
X238178Y215048D01*
X238130Y215067D01*
X238008Y215085D01*
X237887Y215111D01*
X237836Y215110D01*
X237785Y215117D01*
X237662Y215107D01*
X237538Y215105D01*
X237489Y215092D01*
X237438Y215088D01*
X237320Y215050D01*
X237201Y215020D01*
X237155Y214997D01*
X237107Y214981D01*
X237001Y214917D01*
X236891Y214860D01*
X236852Y214827D01*
X236808Y214801D01*
X236719Y214715D01*
X236625Y214634D01*
X236595Y214593D01*
X236558Y214558D01*
X236419Y214356D01*
X236105Y213812D01*
X235632Y213339D01*
X235053Y213004D01*
X234407Y212831D01*
X232446Y212831D01*
G37*
%LPD*%
%LPC*%
G36*
X103808Y435615D02*
X103808Y435615D01*
X102915Y436508D01*
X102915Y445392D01*
X103808Y446285D01*
X120312Y446285D01*
X121205Y445392D01*
X121205Y436508D01*
X120312Y435615D01*
X103808Y435615D01*
G37*
%LPD*%
%LPC*%
G36*
X203808Y435615D02*
X203808Y435615D01*
X202915Y436508D01*
X202915Y445392D01*
X203808Y446285D01*
X220312Y446285D01*
X221205Y445392D01*
X221205Y436508D01*
X220312Y435615D01*
X203808Y435615D01*
G37*
%LPD*%
%LPC*%
G36*
X203808Y473715D02*
X203808Y473715D01*
X202915Y474608D01*
X202915Y483492D01*
X203808Y484385D01*
X220312Y484385D01*
X221205Y483492D01*
X221205Y474608D01*
X220312Y473715D01*
X203808Y473715D01*
G37*
%LPD*%
%LPC*%
G36*
X103808Y473715D02*
X103808Y473715D01*
X102915Y474608D01*
X102915Y483492D01*
X103808Y484385D01*
X120312Y484385D01*
X121205Y483492D01*
X121205Y474608D01*
X120312Y473715D01*
X103808Y473715D01*
G37*
%LPD*%
%LPC*%
G36*
X469662Y168061D02*
X469662Y168061D01*
X467806Y168355D01*
X466019Y168936D01*
X464345Y169789D01*
X462824Y170894D01*
X461496Y172222D01*
X460391Y173743D01*
X459538Y175417D01*
X458957Y177204D01*
X458957Y177207D01*
X477207Y177207D01*
X477207Y168061D01*
X469662Y168061D01*
G37*
%LPD*%
%LPC*%
G36*
X469662Y88061D02*
X469662Y88061D01*
X467806Y88355D01*
X466019Y88936D01*
X464345Y89789D01*
X462824Y90894D01*
X461496Y92222D01*
X460391Y93743D01*
X459538Y95417D01*
X458957Y97204D01*
X458957Y97207D01*
X477207Y97207D01*
X477207Y88061D01*
X469662Y88061D01*
G37*
%LPD*%
%LPC*%
G36*
X269844Y480954D02*
X269844Y480954D01*
X269844Y485401D01*
X275895Y485401D01*
X276541Y485228D01*
X277120Y484893D01*
X277593Y484420D01*
X277928Y483841D01*
X278101Y483195D01*
X278101Y480954D01*
X269844Y480954D01*
G37*
%LPD*%
%LPC*%
G36*
X169844Y480954D02*
X169844Y480954D01*
X169844Y485401D01*
X175895Y485401D01*
X176541Y485228D01*
X177120Y484893D01*
X177593Y484420D01*
X177928Y483841D01*
X178101Y483195D01*
X178101Y480954D01*
X169844Y480954D01*
G37*
%LPD*%
%LPC*%
G36*
X257779Y480954D02*
X257779Y480954D01*
X257779Y483195D01*
X257952Y483841D01*
X258287Y484420D01*
X258760Y484893D01*
X259339Y485228D01*
X259985Y485401D01*
X266036Y485401D01*
X266036Y480954D01*
X257779Y480954D01*
G37*
%LPD*%
%LPC*%
G36*
X157779Y480954D02*
X157779Y480954D01*
X157779Y483195D01*
X157952Y483841D01*
X158287Y484420D01*
X158760Y484893D01*
X159339Y485228D01*
X159985Y485401D01*
X166036Y485401D01*
X166036Y480954D01*
X157779Y480954D01*
G37*
%LPD*%
%LPC*%
G36*
X169844Y472699D02*
X169844Y472699D01*
X169844Y477146D01*
X178101Y477146D01*
X178101Y474905D01*
X177928Y474259D01*
X177593Y473680D01*
X177120Y473207D01*
X176541Y472872D01*
X175895Y472699D01*
X169844Y472699D01*
G37*
%LPD*%
%LPC*%
G36*
X269844Y472699D02*
X269844Y472699D01*
X269844Y477146D01*
X278101Y477146D01*
X278101Y474905D01*
X277928Y474259D01*
X277593Y473680D01*
X277120Y473207D01*
X276541Y472872D01*
X275895Y472699D01*
X269844Y472699D01*
G37*
%LPD*%
%LPC*%
G36*
X259985Y472699D02*
X259985Y472699D01*
X259339Y472872D01*
X258760Y473207D01*
X258287Y473680D01*
X257952Y474259D01*
X257779Y474905D01*
X257779Y477146D01*
X266036Y477146D01*
X266036Y472699D01*
X259985Y472699D01*
G37*
%LPD*%
%LPC*%
G36*
X159985Y472699D02*
X159985Y472699D01*
X159339Y472872D01*
X158760Y473207D01*
X158287Y473680D01*
X157952Y474259D01*
X157779Y474905D01*
X157779Y477146D01*
X166036Y477146D01*
X166036Y472699D01*
X159985Y472699D01*
G37*
%LPD*%
%LPC*%
G36*
X330807Y477999D02*
X330807Y477999D01*
X330807Y483541D01*
X335143Y483541D01*
X335789Y483368D01*
X336368Y483033D01*
X336841Y482560D01*
X337176Y481981D01*
X337349Y481335D01*
X337349Y477999D01*
X330807Y477999D01*
G37*
%LPD*%
%LPC*%
G36*
X306903Y477999D02*
X306903Y477999D01*
X306903Y483541D01*
X311239Y483541D01*
X311885Y483368D01*
X312464Y483033D01*
X312937Y482560D01*
X313272Y481981D01*
X313445Y481335D01*
X313445Y477999D01*
X306903Y477999D01*
G37*
%LPD*%
%LPC*%
G36*
X353519Y478247D02*
X353519Y478247D01*
X353519Y483789D01*
X357855Y483789D01*
X358501Y483616D01*
X359080Y483281D01*
X359553Y482808D01*
X359888Y482229D01*
X360061Y481583D01*
X360061Y478247D01*
X353519Y478247D01*
G37*
%LPD*%
%LPC*%
G36*
X340979Y478247D02*
X340979Y478247D01*
X340979Y481583D01*
X341152Y482229D01*
X341487Y482808D01*
X341960Y483281D01*
X342539Y483616D01*
X343185Y483789D01*
X347521Y483789D01*
X347521Y478247D01*
X340979Y478247D01*
G37*
%LPD*%
%LPC*%
G36*
X318267Y477999D02*
X318267Y477999D01*
X318267Y481335D01*
X318440Y481981D01*
X318775Y482560D01*
X319248Y483033D01*
X319827Y483368D01*
X320473Y483541D01*
X324809Y483541D01*
X324809Y477999D01*
X318267Y477999D01*
G37*
%LPD*%
%LPC*%
G36*
X294363Y477999D02*
X294363Y477999D01*
X294363Y481335D01*
X294536Y481981D01*
X294871Y482560D01*
X295344Y483033D01*
X295923Y483368D01*
X296569Y483541D01*
X300905Y483541D01*
X300905Y477999D01*
X294363Y477999D01*
G37*
%LPD*%
%LPC*%
G36*
X330807Y466459D02*
X330807Y466459D01*
X330807Y472001D01*
X337349Y472001D01*
X337349Y468665D01*
X337176Y468019D01*
X336841Y467440D01*
X336368Y466967D01*
X335789Y466632D01*
X335143Y466459D01*
X330807Y466459D01*
G37*
%LPD*%
%LPC*%
G36*
X353519Y466707D02*
X353519Y466707D01*
X353519Y472249D01*
X360061Y472249D01*
X360061Y468913D01*
X359888Y468267D01*
X359553Y467688D01*
X359080Y467215D01*
X358501Y466880D01*
X357855Y466707D01*
X353519Y466707D01*
G37*
%LPD*%
%LPC*%
G36*
X306903Y466459D02*
X306903Y466459D01*
X306903Y472001D01*
X313445Y472001D01*
X313445Y468665D01*
X313272Y468019D01*
X312937Y467440D01*
X312464Y466967D01*
X311885Y466632D01*
X311239Y466459D01*
X306903Y466459D01*
G37*
%LPD*%
%LPC*%
G36*
X296569Y466459D02*
X296569Y466459D01*
X295923Y466632D01*
X295344Y466967D01*
X294871Y467440D01*
X294536Y468019D01*
X294363Y468665D01*
X294363Y472001D01*
X300905Y472001D01*
X300905Y466459D01*
X296569Y466459D01*
G37*
%LPD*%
%LPC*%
G36*
X320473Y466459D02*
X320473Y466459D01*
X319827Y466632D01*
X319248Y466967D01*
X318775Y467440D01*
X318440Y468019D01*
X318267Y468665D01*
X318267Y472001D01*
X324809Y472001D01*
X324809Y466459D01*
X320473Y466459D01*
G37*
%LPD*%
%LPC*%
G36*
X343185Y466707D02*
X343185Y466707D01*
X342539Y466880D01*
X341960Y467215D01*
X341487Y467688D01*
X341152Y468267D01*
X340979Y468913D01*
X340979Y472249D01*
X347521Y472249D01*
X347521Y466707D01*
X343185Y466707D01*
G37*
%LPD*%
%LPC*%
G36*
X270546Y266831D02*
X270546Y266831D01*
X270546Y275248D01*
X274713Y275248D01*
X274713Y269037D01*
X274540Y268391D01*
X274205Y267812D01*
X273732Y267339D01*
X273153Y267004D01*
X272507Y266831D01*
X270546Y266831D01*
G37*
%LPD*%
%LPC*%
G36*
X225031Y224496D02*
X225031Y224496D01*
X225031Y230707D01*
X225204Y231353D01*
X225539Y231932D01*
X226012Y232405D01*
X226591Y232740D01*
X227237Y232913D01*
X229198Y232913D01*
X229198Y224496D01*
X225031Y224496D01*
G37*
%LPD*%
D10*
X268922Y222872D03*
X256222Y222872D03*
X243522Y222872D03*
X230822Y222872D03*
X230822Y276872D03*
X243522Y276872D03*
X256222Y276872D03*
X268922Y276872D03*
D11*
X230000Y13904D03*
X255400Y13904D03*
X280800Y13904D03*
D12*
X112060Y440950D03*
X167940Y440950D03*
X112060Y479050D03*
X167940Y479050D03*
X212060Y440950D03*
X267940Y440950D03*
X212060Y479050D03*
X267940Y479050D03*
D13*
X380000Y469398D02*
X380000Y450602D01*
X405400Y450602D02*
X405400Y469398D01*
X470602Y300000D02*
X489398Y300000D01*
X489398Y325400D02*
X470602Y325400D01*
X470602Y350800D02*
X489398Y350800D01*
X489398Y376200D02*
X470602Y376200D01*
X470602Y401600D02*
X489398Y401600D01*
X489398Y100000D02*
X470602Y100000D01*
X470602Y125400D02*
X489398Y125400D01*
X489398Y180000D02*
X470602Y180000D01*
X470602Y205400D02*
X489398Y205400D01*
X489398Y230800D02*
X470602Y230800D01*
X470602Y256200D02*
X489398Y256200D01*
D14*
X303904Y445000D03*
X303904Y475000D03*
X327808Y445000D03*
X327808Y475000D03*
X350520Y445248D03*
X350520Y475248D03*
D15*
X417576Y33528D03*
X417576Y48768D03*
X344424Y88392D03*
X320040Y97536D03*
X347472Y131064D03*
X234696Y42672D03*
X417576Y18288D03*
D16*
X445008Y145008D02*
X480000Y180000D01*
X445008Y145008D02*
X445008Y115824D01*
X460832Y100000D01*
X480000Y100000D01*
D15*
X441960Y164592D03*
X362712Y204216D03*
X54864Y140208D03*
D17*
X45720Y149352D01*
X36576Y149352D01*
X21336Y164592D01*
D15*
X21336Y164592D03*
X164592Y42672D03*
X94488Y42672D03*
D17*
X268224Y276174D02*
X268922Y276872D01*
X268224Y276174D02*
X268224Y246888D01*
X259080Y237744D01*
X237744Y237744D01*
X230822Y230822D02*
X230822Y222872D01*
X230822Y230822D02*
X237744Y237744D01*
X268922Y276872D02*
X323088Y222706D01*
X323088Y210312D01*
X329184Y204216D01*
X362712Y204216D01*
D15*
X182880Y170688D03*
D17*
X222504Y170688D02*
X228600Y164592D01*
X359664Y164592D01*
X362712Y167640D01*
X362712Y204216D01*
X222504Y170688D02*
X182880Y170688D01*
X350272Y475000D02*
X350520Y475248D01*
X350272Y475000D02*
X327808Y475000D01*
X303904Y475000D01*
X280416Y475000D01*
X271990Y475000D01*
X267940Y479050D01*
X177598Y469392D02*
X167940Y479050D01*
X258282Y469392D02*
X267940Y479050D01*
X258282Y469392D02*
X177598Y469392D01*
X455448Y376200D02*
X480000Y376200D01*
X455448Y376200D02*
X451104Y371856D01*
X451104Y295656D01*
X466344Y280416D01*
X481584Y280416D01*
D15*
X481584Y280416D03*
X371856Y173736D03*
X283464Y463296D03*
D18*
X280416Y466344D01*
X280416Y475000D01*
D15*
X387096Y414528D03*
D18*
X387096Y393192D01*
X384048Y390144D01*
X385572Y388620D01*
D15*
X385572Y388620D03*
X422148Y342900D03*
X236220Y352044D03*
X114300Y352044D03*
X175260Y416052D03*
X248412Y416052D03*
X138684Y428244D03*
X16764Y416052D03*
X59436Y336804D03*
X86868Y483108D03*
X239268Y483108D03*
X318516Y306324D03*
X178308Y306324D03*
X65532Y275844D03*
X77724Y224028D03*
X123444Y224028D03*
X86868Y123444D03*
X44196Y89916D03*
X199644Y126492D03*
X443484Y117348D03*
X326136Y185928D03*
X286512Y249936D03*
X420624Y283464D03*
X350520Y344424D03*
X429768Y429768D03*
X15240Y335280D03*
X108204Y297180D03*
D18*
X89916Y126492D02*
X199644Y126492D01*
X89916Y126492D02*
X86868Y123444D01*
X76200Y112776D01*
X64008Y112776D01*
X54864Y121920D01*
X54864Y140208D01*
D15*
X137160Y94488D03*
X356616Y27432D03*
X338328Y27432D03*
X307848Y76200D03*
X79248Y176784D03*
X236220Y141732D03*
X280416Y128016D03*
X219456Y106680D03*
X182880Y185928D03*
D17*
X188976Y185928D01*
X195072Y179832D01*
X225552Y179832D01*
X231648Y173736D01*
X249936Y173736D01*
X344424Y173736D01*
X350520Y179832D01*
X350520Y192024D01*
D15*
X350520Y192024D03*
D18*
X256222Y189166D02*
X256222Y222872D01*
X256222Y189166D02*
X249936Y182880D01*
D17*
X430504Y401600D02*
X480000Y401600D01*
X430504Y401600D02*
X405384Y426720D01*
X405384Y459984D01*
X405400Y460000D01*
X438912Y297288D02*
X480000Y256200D01*
X438912Y297288D02*
X438912Y384048D01*
X456464Y401600D01*
X480000Y401600D01*
D18*
X249936Y182880D02*
X249936Y173736D01*
D15*
X280416Y42672D03*
D17*
X280416Y14288D01*
X280800Y13904D01*
D15*
X259546Y39158D03*
D17*
X259546Y18050D01*
X255400Y13904D01*
D15*
X426720Y225552D03*
D17*
X426720Y176784D01*
X405384Y155448D01*
D15*
X405384Y155448D03*
X24384Y124968D03*
D18*
X12192Y137160D01*
X12192Y310896D02*
X15240Y313944D01*
D15*
X15240Y313944D03*
D18*
X12192Y310896D02*
X12192Y137160D01*
D15*
X97536Y310896D03*
D18*
X39624Y310896D01*
X36576Y313944D01*
D15*
X36576Y313944D03*
D18*
X97536Y310896D02*
X97536Y353568D01*
X167940Y423972D02*
X167940Y440950D01*
X167940Y423972D02*
X97536Y353568D01*
D15*
X70104Y131064D03*
D18*
X70104Y140208D01*
X24384Y185928D01*
X24384Y316992D01*
X152400Y423672D02*
X152400Y445008D01*
X161544Y454152D01*
X254738Y454152D02*
X267940Y440950D01*
X33528Y326136D02*
X24384Y316992D01*
X33528Y326136D02*
X76200Y326136D01*
X88392Y338328D01*
X88392Y359664D01*
X152400Y423672D01*
X161544Y454152D02*
X254738Y454152D01*
D15*
X88392Y240792D03*
D18*
X88392Y277368D01*
D15*
X88392Y277368D03*
X103632Y240792D03*
D18*
X103632Y277368D01*
D15*
X103632Y277368D03*
D18*
X462112Y205400D02*
X480000Y205400D01*
X462112Y205400D02*
X432816Y234696D01*
X420624Y234696D01*
D15*
X140208Y185928D03*
D18*
X140208Y167640D02*
X152400Y155448D01*
X411480Y225552D02*
X420624Y234696D01*
X140208Y185928D02*
X140208Y167640D01*
X411480Y176784D02*
X411480Y225552D01*
X222504Y152400D02*
X219456Y155448D01*
X222504Y152400D02*
X256032Y152400D01*
X259080Y152400D01*
X387096Y152400D01*
X219456Y155448D02*
X152400Y155448D01*
X387096Y152400D02*
X411480Y176784D01*
X445856Y230800D02*
X480000Y230800D01*
X445856Y230800D02*
X435864Y240792D01*
X414528Y240792D01*
D15*
X140208Y198120D03*
D18*
X146304Y198120D01*
X149352Y195072D01*
X405384Y231648D02*
X414528Y240792D01*
X149352Y195072D02*
X149352Y167640D01*
X155448Y161544D01*
X387096Y164592D02*
X390144Y167640D01*
X405384Y182880D01*
X405384Y231648D01*
X225552Y158496D02*
X222504Y161544D01*
X225552Y158496D02*
X381000Y158496D01*
X387096Y164592D01*
X222504Y161544D02*
X155448Y161544D01*
X256222Y256222D02*
X256222Y276872D01*
X246888Y246888D02*
X185928Y246888D01*
D15*
X185928Y246888D03*
D18*
X246888Y246888D02*
X256222Y256222D01*
D15*
X128016Y252984D03*
D18*
X179832Y252984D01*
X185928Y246888D01*
X243522Y264858D02*
X243522Y276872D01*
X243522Y264858D02*
X240792Y262128D01*
X231648Y262128D01*
X158496Y262128D01*
X149352Y271272D01*
D15*
X149352Y271272D03*
X237744Y304800D03*
D18*
X237744Y320040D01*
X280416Y362712D01*
X323088Y362712D01*
X326136Y365760D01*
D15*
X326136Y387096D03*
D18*
X326136Y365760D01*
D15*
X252984Y304800D03*
D18*
X252984Y320040D01*
X286512Y353568D01*
X298704Y353568D01*
X304800Y347472D01*
D15*
X304800Y347472D03*
X301752Y432816D03*
D18*
X301752Y442848D01*
X303904Y445000D01*
D15*
X326136Y432816D03*
D18*
X326136Y443328D01*
X327808Y445000D01*
D15*
X347472Y432816D03*
D18*
X347472Y442200D01*
X350520Y445248D01*
D15*
X301752Y45720D03*
D18*
X292608Y54864D01*
X234696Y54864D02*
X201168Y88392D01*
X234696Y54864D02*
X292608Y54864D01*
D15*
X201168Y88392D03*
M02*
