G04 EAGLE Gerber RS-274X export*
G75*
%MOMM*%
%FSLAX34Y34*%
%LPD*%
%IN*%
%IPPOS*%
%AMOC8*
5,1,8,0,0,1.08239X$1,22.5*%
G01*
%ADD10C,0.254000*%


D10*
X0Y0D02*
X510000Y0D01*
X510000Y500000D01*
X0Y500000D01*
X0Y0D01*
X485000Y39464D02*
X484924Y38396D01*
X484771Y37335D01*
X484543Y36288D01*
X484241Y35260D01*
X483867Y34256D01*
X483422Y33281D01*
X482908Y32341D01*
X482329Y31440D01*
X481687Y30582D01*
X480985Y29772D01*
X480228Y29015D01*
X479418Y28313D01*
X478560Y27671D01*
X477659Y27092D01*
X476719Y26578D01*
X475744Y26133D01*
X474740Y25759D01*
X473712Y25457D01*
X472665Y25229D01*
X471604Y25076D01*
X470536Y25000D01*
X469464Y25000D01*
X468396Y25076D01*
X467335Y25229D01*
X466288Y25457D01*
X465260Y25759D01*
X464256Y26133D01*
X463281Y26578D01*
X462341Y27092D01*
X461440Y27671D01*
X460582Y28313D01*
X459772Y29015D01*
X459015Y29772D01*
X458313Y30582D01*
X457671Y31440D01*
X457092Y32341D01*
X456578Y33281D01*
X456133Y34256D01*
X455759Y35260D01*
X455457Y36288D01*
X455229Y37335D01*
X455076Y38396D01*
X455000Y39464D01*
X455000Y40536D01*
X455076Y41604D01*
X455229Y42665D01*
X455457Y43712D01*
X455759Y44740D01*
X456133Y45744D01*
X456578Y46719D01*
X457092Y47659D01*
X457671Y48560D01*
X458313Y49418D01*
X459015Y50228D01*
X459772Y50985D01*
X460582Y51687D01*
X461440Y52329D01*
X462341Y52908D01*
X463281Y53422D01*
X464256Y53867D01*
X465260Y54241D01*
X466288Y54543D01*
X467335Y54771D01*
X468396Y54924D01*
X469464Y55000D01*
X470536Y55000D01*
X471604Y54924D01*
X472665Y54771D01*
X473712Y54543D01*
X474740Y54241D01*
X475744Y53867D01*
X476719Y53422D01*
X477659Y52908D01*
X478560Y52329D01*
X479418Y51687D01*
X480228Y50985D01*
X480985Y50228D01*
X481687Y49418D01*
X482329Y48560D01*
X482908Y47659D01*
X483422Y46719D01*
X483867Y45744D01*
X484241Y44740D01*
X484543Y43712D01*
X484771Y42665D01*
X484924Y41604D01*
X485000Y40536D01*
X485000Y39464D01*
X485000Y459464D02*
X484924Y458396D01*
X484771Y457335D01*
X484543Y456288D01*
X484241Y455260D01*
X483867Y454256D01*
X483422Y453281D01*
X482908Y452341D01*
X482329Y451440D01*
X481687Y450582D01*
X480985Y449772D01*
X480228Y449015D01*
X479418Y448313D01*
X478560Y447671D01*
X477659Y447092D01*
X476719Y446578D01*
X475744Y446133D01*
X474740Y445759D01*
X473712Y445457D01*
X472665Y445229D01*
X471604Y445076D01*
X470536Y445000D01*
X469464Y445000D01*
X468396Y445076D01*
X467335Y445229D01*
X466288Y445457D01*
X465260Y445759D01*
X464256Y446133D01*
X463281Y446578D01*
X462341Y447092D01*
X461440Y447671D01*
X460582Y448313D01*
X459772Y449015D01*
X459015Y449772D01*
X458313Y450582D01*
X457671Y451440D01*
X457092Y452341D01*
X456578Y453281D01*
X456133Y454256D01*
X455759Y455260D01*
X455457Y456288D01*
X455229Y457335D01*
X455076Y458396D01*
X455000Y459464D01*
X455000Y460536D01*
X455076Y461604D01*
X455229Y462665D01*
X455457Y463712D01*
X455759Y464740D01*
X456133Y465744D01*
X456578Y466719D01*
X457092Y467659D01*
X457671Y468560D01*
X458313Y469418D01*
X459015Y470228D01*
X459772Y470985D01*
X460582Y471687D01*
X461440Y472329D01*
X462341Y472908D01*
X463281Y473422D01*
X464256Y473867D01*
X465260Y474241D01*
X466288Y474543D01*
X467335Y474771D01*
X468396Y474924D01*
X469464Y475000D01*
X470536Y475000D01*
X471604Y474924D01*
X472665Y474771D01*
X473712Y474543D01*
X474740Y474241D01*
X475744Y473867D01*
X476719Y473422D01*
X477659Y472908D01*
X478560Y472329D01*
X479418Y471687D01*
X480228Y470985D01*
X480985Y470228D01*
X481687Y469418D01*
X482329Y468560D01*
X482908Y467659D01*
X483422Y466719D01*
X483867Y465744D01*
X484241Y464740D01*
X484543Y463712D01*
X484771Y462665D01*
X484924Y461604D01*
X485000Y460536D01*
X485000Y459464D01*
X55000Y39464D02*
X54924Y38396D01*
X54771Y37335D01*
X54543Y36288D01*
X54241Y35260D01*
X53867Y34256D01*
X53422Y33281D01*
X52908Y32341D01*
X52329Y31440D01*
X51687Y30582D01*
X50985Y29772D01*
X50228Y29015D01*
X49418Y28313D01*
X48560Y27671D01*
X47659Y27092D01*
X46719Y26578D01*
X45744Y26133D01*
X44740Y25759D01*
X43712Y25457D01*
X42665Y25229D01*
X41604Y25076D01*
X40536Y25000D01*
X39464Y25000D01*
X38396Y25076D01*
X37335Y25229D01*
X36288Y25457D01*
X35260Y25759D01*
X34256Y26133D01*
X33281Y26578D01*
X32341Y27092D01*
X31440Y27671D01*
X30582Y28313D01*
X29772Y29015D01*
X29015Y29772D01*
X28313Y30582D01*
X27671Y31440D01*
X27092Y32341D01*
X26578Y33281D01*
X26133Y34256D01*
X25759Y35260D01*
X25457Y36288D01*
X25229Y37335D01*
X25076Y38396D01*
X25000Y39464D01*
X25000Y40536D01*
X25076Y41604D01*
X25229Y42665D01*
X25457Y43712D01*
X25759Y44740D01*
X26133Y45744D01*
X26578Y46719D01*
X27092Y47659D01*
X27671Y48560D01*
X28313Y49418D01*
X29015Y50228D01*
X29772Y50985D01*
X30582Y51687D01*
X31440Y52329D01*
X32341Y52908D01*
X33281Y53422D01*
X34256Y53867D01*
X35260Y54241D01*
X36288Y54543D01*
X37335Y54771D01*
X38396Y54924D01*
X39464Y55000D01*
X40536Y55000D01*
X41604Y54924D01*
X42665Y54771D01*
X43712Y54543D01*
X44740Y54241D01*
X45744Y53867D01*
X46719Y53422D01*
X47659Y52908D01*
X48560Y52329D01*
X49418Y51687D01*
X50228Y50985D01*
X50985Y50228D01*
X51687Y49418D01*
X52329Y48560D01*
X52908Y47659D01*
X53422Y46719D01*
X53867Y45744D01*
X54241Y44740D01*
X54543Y43712D01*
X54771Y42665D01*
X54924Y41604D01*
X55000Y40536D01*
X55000Y39464D01*
X55000Y459464D02*
X54924Y458396D01*
X54771Y457335D01*
X54543Y456288D01*
X54241Y455260D01*
X53867Y454256D01*
X53422Y453281D01*
X52908Y452341D01*
X52329Y451440D01*
X51687Y450582D01*
X50985Y449772D01*
X50228Y449015D01*
X49418Y448313D01*
X48560Y447671D01*
X47659Y447092D01*
X46719Y446578D01*
X45744Y446133D01*
X44740Y445759D01*
X43712Y445457D01*
X42665Y445229D01*
X41604Y445076D01*
X40536Y445000D01*
X39464Y445000D01*
X38396Y445076D01*
X37335Y445229D01*
X36288Y445457D01*
X35260Y445759D01*
X34256Y446133D01*
X33281Y446578D01*
X32341Y447092D01*
X31440Y447671D01*
X30582Y448313D01*
X29772Y449015D01*
X29015Y449772D01*
X28313Y450582D01*
X27671Y451440D01*
X27092Y452341D01*
X26578Y453281D01*
X26133Y454256D01*
X25759Y455260D01*
X25457Y456288D01*
X25229Y457335D01*
X25076Y458396D01*
X25000Y459464D01*
X25000Y460536D01*
X25076Y461604D01*
X25229Y462665D01*
X25457Y463712D01*
X25759Y464740D01*
X26133Y465744D01*
X26578Y466719D01*
X27092Y467659D01*
X27671Y468560D01*
X28313Y469418D01*
X29015Y470228D01*
X29772Y470985D01*
X30582Y471687D01*
X31440Y472329D01*
X32341Y472908D01*
X33281Y473422D01*
X34256Y473867D01*
X35260Y474241D01*
X36288Y474543D01*
X37335Y474771D01*
X38396Y474924D01*
X39464Y475000D01*
X40536Y475000D01*
X41604Y474924D01*
X42665Y474771D01*
X43712Y474543D01*
X44740Y474241D01*
X45744Y473867D01*
X46719Y473422D01*
X47659Y472908D01*
X48560Y472329D01*
X49418Y471687D01*
X50228Y470985D01*
X50985Y470228D01*
X51687Y469418D01*
X52329Y468560D01*
X52908Y467659D01*
X53422Y466719D01*
X53867Y465744D01*
X54241Y464740D01*
X54543Y463712D01*
X54771Y462665D01*
X54924Y461604D01*
X55000Y460536D01*
X55000Y459464D01*
X197500Y292063D02*
X197576Y291194D01*
X197728Y290334D01*
X197954Y289490D01*
X198252Y288670D01*
X198621Y287878D01*
X199058Y287122D01*
X199559Y286407D01*
X200120Y285738D01*
X200738Y285120D01*
X201407Y284559D01*
X202122Y284058D01*
X202878Y283621D01*
X203670Y283252D01*
X204490Y282954D01*
X205334Y282728D01*
X206194Y282576D01*
X207063Y282500D01*
X207937Y282500D01*
X208807Y282576D01*
X209666Y282728D01*
X210510Y282954D01*
X211330Y283252D01*
X212122Y283621D01*
X212878Y284058D01*
X213593Y284559D01*
X214262Y285120D01*
X214880Y285738D01*
X215441Y286407D01*
X215942Y287122D01*
X216379Y287878D01*
X216748Y288670D01*
X217046Y289490D01*
X217272Y290334D01*
X217424Y291194D01*
X217500Y292063D01*
X217500Y292937D01*
X217424Y293807D01*
X217272Y294666D01*
X217046Y295510D01*
X216748Y296330D01*
X216379Y297122D01*
X215942Y297878D01*
X215441Y298593D01*
X214880Y299262D01*
X214262Y299880D01*
X213593Y300441D01*
X212878Y300942D01*
X212122Y301379D01*
X211330Y301748D01*
X210510Y302046D01*
X209666Y302272D01*
X208807Y302424D01*
X207937Y302500D01*
X207063Y302500D01*
X206194Y302424D01*
X205334Y302272D01*
X204490Y302046D01*
X203670Y301748D01*
X202878Y301379D01*
X202122Y300942D01*
X201407Y300441D01*
X200738Y299880D01*
X200120Y299262D01*
X199559Y298593D01*
X199058Y297878D01*
X198621Y297122D01*
X198252Y296330D01*
X197954Y295510D01*
X197728Y294666D01*
X197576Y293807D01*
X197500Y292937D01*
X197500Y292063D01*
X282500Y292063D02*
X282576Y291194D01*
X282728Y290334D01*
X282954Y289490D01*
X283252Y288670D01*
X283621Y287878D01*
X284058Y287122D01*
X284559Y286407D01*
X285120Y285738D01*
X285738Y285120D01*
X286407Y284559D01*
X287122Y284058D01*
X287878Y283621D01*
X288670Y283252D01*
X289490Y282954D01*
X290334Y282728D01*
X291194Y282576D01*
X292063Y282500D01*
X292937Y282500D01*
X293807Y282576D01*
X294666Y282728D01*
X295510Y282954D01*
X296330Y283252D01*
X297122Y283621D01*
X297878Y284058D01*
X298593Y284559D01*
X299262Y285120D01*
X299880Y285738D01*
X300441Y286407D01*
X300942Y287122D01*
X301379Y287878D01*
X301748Y288670D01*
X302046Y289490D01*
X302272Y290334D01*
X302424Y291194D01*
X302500Y292063D01*
X302500Y292937D01*
X302424Y293807D01*
X302272Y294666D01*
X302046Y295510D01*
X301748Y296330D01*
X301379Y297122D01*
X300942Y297878D01*
X300441Y298593D01*
X299880Y299262D01*
X299262Y299880D01*
X298593Y300441D01*
X297878Y300942D01*
X297122Y301379D01*
X296330Y301748D01*
X295510Y302046D01*
X294666Y302272D01*
X293807Y302424D01*
X292937Y302500D01*
X292063Y302500D01*
X291194Y302424D01*
X290334Y302272D01*
X289490Y302046D01*
X288670Y301748D01*
X287878Y301379D01*
X287122Y300942D01*
X286407Y300441D01*
X285738Y299880D01*
X285120Y299262D01*
X284559Y298593D01*
X284058Y297878D01*
X283621Y297122D01*
X283252Y296330D01*
X282954Y295510D01*
X282728Y294666D01*
X282576Y293807D01*
X282500Y292937D01*
X282500Y292063D01*
X282500Y207063D02*
X282576Y206194D01*
X282728Y205334D01*
X282954Y204490D01*
X283252Y203670D01*
X283621Y202878D01*
X284058Y202122D01*
X284559Y201407D01*
X285120Y200738D01*
X285738Y200120D01*
X286407Y199559D01*
X287122Y199058D01*
X287878Y198621D01*
X288670Y198252D01*
X289490Y197954D01*
X290334Y197728D01*
X291194Y197576D01*
X292063Y197500D01*
X292937Y197500D01*
X293807Y197576D01*
X294666Y197728D01*
X295510Y197954D01*
X296330Y198252D01*
X297122Y198621D01*
X297878Y199058D01*
X298593Y199559D01*
X299262Y200120D01*
X299880Y200738D01*
X300441Y201407D01*
X300942Y202122D01*
X301379Y202878D01*
X301748Y203670D01*
X302046Y204490D01*
X302272Y205334D01*
X302424Y206194D01*
X302500Y207063D01*
X302500Y207937D01*
X302424Y208807D01*
X302272Y209666D01*
X302046Y210510D01*
X301748Y211330D01*
X301379Y212122D01*
X300942Y212878D01*
X300441Y213593D01*
X299880Y214262D01*
X299262Y214880D01*
X298593Y215441D01*
X297878Y215942D01*
X297122Y216379D01*
X296330Y216748D01*
X295510Y217046D01*
X294666Y217272D01*
X293807Y217424D01*
X292937Y217500D01*
X292063Y217500D01*
X291194Y217424D01*
X290334Y217272D01*
X289490Y217046D01*
X288670Y216748D01*
X287878Y216379D01*
X287122Y215942D01*
X286407Y215441D01*
X285738Y214880D01*
X285120Y214262D01*
X284559Y213593D01*
X284058Y212878D01*
X283621Y212122D01*
X283252Y211330D01*
X282954Y210510D01*
X282728Y209666D01*
X282576Y208807D01*
X282500Y207937D01*
X282500Y207063D01*
X197500Y207063D02*
X197576Y206194D01*
X197728Y205334D01*
X197954Y204490D01*
X198252Y203670D01*
X198621Y202878D01*
X199058Y202122D01*
X199559Y201407D01*
X200120Y200738D01*
X200738Y200120D01*
X201407Y199559D01*
X202122Y199058D01*
X202878Y198621D01*
X203670Y198252D01*
X204490Y197954D01*
X205334Y197728D01*
X206194Y197576D01*
X207063Y197500D01*
X207937Y197500D01*
X208807Y197576D01*
X209666Y197728D01*
X210510Y197954D01*
X211330Y198252D01*
X212122Y198621D01*
X212878Y199058D01*
X213593Y199559D01*
X214262Y200120D01*
X214880Y200738D01*
X215441Y201407D01*
X215942Y202122D01*
X216379Y202878D01*
X216748Y203670D01*
X217046Y204490D01*
X217272Y205334D01*
X217424Y206194D01*
X217500Y207063D01*
X217500Y207937D01*
X217424Y208807D01*
X217272Y209666D01*
X217046Y210510D01*
X216748Y211330D01*
X216379Y212122D01*
X215942Y212878D01*
X215441Y213593D01*
X214880Y214262D01*
X214262Y214880D01*
X213593Y215441D01*
X212878Y215942D01*
X212122Y216379D01*
X211330Y216748D01*
X210510Y217046D01*
X209666Y217272D01*
X208807Y217424D01*
X207937Y217500D01*
X207063Y217500D01*
X206194Y217424D01*
X205334Y217272D01*
X204490Y217046D01*
X203670Y216748D01*
X202878Y216379D01*
X202122Y215942D01*
X201407Y215441D01*
X200738Y214880D01*
X200120Y214262D01*
X199559Y213593D01*
X199058Y212878D01*
X198621Y212122D01*
X198252Y211330D01*
X197954Y210510D01*
X197728Y209666D01*
X197576Y208807D01*
X197500Y207937D01*
X197500Y207063D01*
M02*
