G04 EAGLE Gerber RS-274X export*
G75*
%MOMM*%
%FSLAX34Y34*%
%LPD*%
%INSilkscreen Bottom*%
%IPPOS*%
%AMOC8*
5,1,8,0,0,1.08239X$1,22.5*%
G01*
%ADD10C,0.152400*%
%ADD11C,0.101600*%
%ADD12C,0.200000*%
%ADD13C,0.203200*%
%ADD14C,0.025400*%
%ADD15C,0.127000*%


D10*
X363474Y419975D02*
X367990Y419975D01*
X367990Y419974D02*
X368123Y419976D01*
X368255Y419982D01*
X368387Y419992D01*
X368519Y420005D01*
X368651Y420023D01*
X368781Y420044D01*
X368912Y420069D01*
X369041Y420098D01*
X369169Y420131D01*
X369297Y420167D01*
X369423Y420207D01*
X369548Y420251D01*
X369672Y420299D01*
X369794Y420350D01*
X369915Y420405D01*
X370034Y420463D01*
X370152Y420525D01*
X370267Y420590D01*
X370381Y420659D01*
X370492Y420730D01*
X370601Y420806D01*
X370708Y420884D01*
X370813Y420965D01*
X370915Y421050D01*
X371015Y421137D01*
X371112Y421227D01*
X371207Y421320D01*
X371298Y421416D01*
X371387Y421514D01*
X371473Y421615D01*
X371556Y421719D01*
X371636Y421825D01*
X371712Y421933D01*
X371786Y422043D01*
X371856Y422156D01*
X371923Y422270D01*
X371986Y422387D01*
X372046Y422505D01*
X372103Y422625D01*
X372156Y422747D01*
X372205Y422870D01*
X372251Y422994D01*
X372293Y423120D01*
X372331Y423247D01*
X372366Y423375D01*
X372397Y423504D01*
X372424Y423633D01*
X372447Y423764D01*
X372467Y423895D01*
X372482Y424027D01*
X372494Y424159D01*
X372502Y424291D01*
X372506Y424424D01*
X372506Y424556D01*
X372502Y424689D01*
X372494Y424821D01*
X372482Y424953D01*
X372467Y425085D01*
X372447Y425216D01*
X372424Y425347D01*
X372397Y425476D01*
X372366Y425605D01*
X372331Y425733D01*
X372293Y425860D01*
X372251Y425986D01*
X372205Y426110D01*
X372156Y426233D01*
X372103Y426355D01*
X372046Y426475D01*
X371986Y426593D01*
X371923Y426710D01*
X371856Y426824D01*
X371786Y426937D01*
X371712Y427047D01*
X371636Y427155D01*
X371556Y427261D01*
X371473Y427365D01*
X371387Y427466D01*
X371298Y427564D01*
X371207Y427660D01*
X371112Y427753D01*
X371015Y427843D01*
X370915Y427930D01*
X370813Y428015D01*
X370708Y428096D01*
X370601Y428174D01*
X370492Y428250D01*
X370381Y428321D01*
X370267Y428390D01*
X370152Y428455D01*
X370034Y428517D01*
X369915Y428575D01*
X369794Y428630D01*
X369672Y428681D01*
X369548Y428729D01*
X369423Y428773D01*
X369297Y428813D01*
X369169Y428849D01*
X369041Y428882D01*
X368912Y428911D01*
X368781Y428936D01*
X368651Y428957D01*
X368519Y428975D01*
X368387Y428988D01*
X368255Y428998D01*
X368123Y429004D01*
X367990Y429006D01*
X363474Y429006D01*
X363474Y412750D01*
X367990Y412750D01*
X368109Y412752D01*
X368229Y412758D01*
X368348Y412768D01*
X368466Y412782D01*
X368585Y412799D01*
X368702Y412821D01*
X368819Y412846D01*
X368934Y412876D01*
X369049Y412909D01*
X369163Y412946D01*
X369275Y412986D01*
X369386Y413031D01*
X369495Y413079D01*
X369603Y413130D01*
X369709Y413185D01*
X369813Y413244D01*
X369915Y413306D01*
X370015Y413371D01*
X370113Y413440D01*
X370209Y413512D01*
X370302Y413587D01*
X370392Y413664D01*
X370480Y413745D01*
X370565Y413829D01*
X370647Y413916D01*
X370727Y414005D01*
X370803Y414097D01*
X370877Y414191D01*
X370947Y414288D01*
X371014Y414386D01*
X371078Y414487D01*
X371138Y414591D01*
X371195Y414696D01*
X371248Y414803D01*
X371298Y414911D01*
X371344Y415021D01*
X371386Y415133D01*
X371425Y415246D01*
X371460Y415360D01*
X371491Y415475D01*
X371519Y415592D01*
X371542Y415709D01*
X371562Y415826D01*
X371578Y415945D01*
X371590Y416064D01*
X371598Y416183D01*
X371602Y416302D01*
X371602Y416422D01*
X371598Y416541D01*
X371590Y416660D01*
X371578Y416779D01*
X371562Y416898D01*
X371542Y417015D01*
X371519Y417132D01*
X371491Y417249D01*
X371460Y417364D01*
X371425Y417478D01*
X371386Y417591D01*
X371344Y417703D01*
X371298Y417813D01*
X371248Y417921D01*
X371195Y418028D01*
X371138Y418133D01*
X371078Y418237D01*
X371014Y418338D01*
X370947Y418436D01*
X370877Y418533D01*
X370803Y418627D01*
X370727Y418719D01*
X370647Y418808D01*
X370565Y418895D01*
X370480Y418979D01*
X370392Y419060D01*
X370302Y419137D01*
X370209Y419212D01*
X370113Y419284D01*
X370015Y419353D01*
X369915Y419418D01*
X369813Y419480D01*
X369709Y419539D01*
X369603Y419594D01*
X369495Y419645D01*
X369386Y419693D01*
X369275Y419738D01*
X369163Y419778D01*
X369049Y419815D01*
X368934Y419848D01*
X368819Y419878D01*
X368702Y419903D01*
X368585Y419925D01*
X368466Y419942D01*
X368348Y419956D01*
X368229Y419966D01*
X368109Y419972D01*
X367990Y419974D01*
X378373Y417266D02*
X378373Y424490D01*
X378373Y417266D02*
X378375Y417133D01*
X378381Y417001D01*
X378391Y416869D01*
X378404Y416737D01*
X378422Y416605D01*
X378443Y416475D01*
X378468Y416344D01*
X378497Y416215D01*
X378530Y416087D01*
X378566Y415959D01*
X378606Y415833D01*
X378650Y415708D01*
X378698Y415584D01*
X378749Y415462D01*
X378804Y415341D01*
X378862Y415222D01*
X378924Y415104D01*
X378989Y414989D01*
X379058Y414875D01*
X379129Y414764D01*
X379205Y414655D01*
X379283Y414548D01*
X379364Y414443D01*
X379449Y414341D01*
X379536Y414241D01*
X379626Y414144D01*
X379719Y414049D01*
X379815Y413958D01*
X379913Y413869D01*
X380014Y413783D01*
X380118Y413700D01*
X380224Y413620D01*
X380332Y413544D01*
X380442Y413470D01*
X380555Y413400D01*
X380669Y413333D01*
X380786Y413270D01*
X380904Y413210D01*
X381024Y413153D01*
X381146Y413100D01*
X381269Y413051D01*
X381393Y413005D01*
X381519Y412963D01*
X381646Y412925D01*
X381774Y412890D01*
X381903Y412859D01*
X382032Y412832D01*
X382163Y412809D01*
X382294Y412789D01*
X382426Y412774D01*
X382558Y412762D01*
X382690Y412754D01*
X382823Y412750D01*
X382955Y412750D01*
X383088Y412754D01*
X383220Y412762D01*
X383352Y412774D01*
X383484Y412789D01*
X383615Y412809D01*
X383746Y412832D01*
X383875Y412859D01*
X384004Y412890D01*
X384132Y412925D01*
X384259Y412963D01*
X384385Y413005D01*
X384509Y413051D01*
X384632Y413100D01*
X384754Y413153D01*
X384874Y413210D01*
X384992Y413270D01*
X385109Y413333D01*
X385223Y413400D01*
X385336Y413470D01*
X385446Y413544D01*
X385554Y413620D01*
X385660Y413700D01*
X385764Y413783D01*
X385865Y413869D01*
X385963Y413958D01*
X386059Y414049D01*
X386152Y414144D01*
X386242Y414241D01*
X386329Y414341D01*
X386414Y414443D01*
X386495Y414548D01*
X386573Y414655D01*
X386649Y414764D01*
X386720Y414875D01*
X386789Y414989D01*
X386854Y415104D01*
X386916Y415222D01*
X386974Y415341D01*
X387029Y415462D01*
X387080Y415584D01*
X387128Y415708D01*
X387172Y415833D01*
X387212Y415959D01*
X387248Y416087D01*
X387281Y416215D01*
X387310Y416344D01*
X387335Y416475D01*
X387356Y416605D01*
X387374Y416737D01*
X387387Y416869D01*
X387397Y417001D01*
X387403Y417133D01*
X387405Y417266D01*
X387404Y417266D02*
X387404Y424490D01*
X387405Y424490D02*
X387403Y424623D01*
X387397Y424755D01*
X387387Y424887D01*
X387374Y425019D01*
X387356Y425151D01*
X387335Y425281D01*
X387310Y425412D01*
X387281Y425541D01*
X387248Y425669D01*
X387212Y425797D01*
X387172Y425923D01*
X387128Y426048D01*
X387080Y426172D01*
X387029Y426294D01*
X386974Y426415D01*
X386916Y426534D01*
X386854Y426652D01*
X386789Y426767D01*
X386720Y426881D01*
X386649Y426992D01*
X386573Y427101D01*
X386495Y427208D01*
X386414Y427313D01*
X386329Y427415D01*
X386242Y427515D01*
X386152Y427612D01*
X386059Y427707D01*
X385963Y427798D01*
X385865Y427887D01*
X385764Y427973D01*
X385660Y428056D01*
X385554Y428136D01*
X385446Y428212D01*
X385336Y428286D01*
X385223Y428356D01*
X385109Y428423D01*
X384992Y428486D01*
X384874Y428546D01*
X384754Y428603D01*
X384632Y428656D01*
X384509Y428705D01*
X384385Y428751D01*
X384259Y428793D01*
X384132Y428831D01*
X384004Y428866D01*
X383875Y428897D01*
X383746Y428924D01*
X383615Y428947D01*
X383484Y428967D01*
X383352Y428982D01*
X383220Y428994D01*
X383088Y429002D01*
X382955Y429006D01*
X382823Y429006D01*
X382690Y429002D01*
X382558Y428994D01*
X382426Y428982D01*
X382294Y428967D01*
X382163Y428947D01*
X382032Y428924D01*
X381903Y428897D01*
X381774Y428866D01*
X381646Y428831D01*
X381519Y428793D01*
X381393Y428751D01*
X381269Y428705D01*
X381146Y428656D01*
X381024Y428603D01*
X380904Y428546D01*
X380786Y428486D01*
X380669Y428423D01*
X380555Y428356D01*
X380442Y428286D01*
X380332Y428212D01*
X380224Y428136D01*
X380118Y428056D01*
X380014Y427973D01*
X379913Y427887D01*
X379815Y427798D01*
X379719Y427707D01*
X379626Y427612D01*
X379536Y427515D01*
X379449Y427415D01*
X379364Y427313D01*
X379283Y427208D01*
X379205Y427101D01*
X379129Y426992D01*
X379058Y426881D01*
X378989Y426767D01*
X378924Y426652D01*
X378862Y426534D01*
X378804Y426415D01*
X378749Y426294D01*
X378698Y426172D01*
X378650Y426048D01*
X378606Y425923D01*
X378566Y425797D01*
X378530Y425669D01*
X378497Y425541D01*
X378468Y425412D01*
X378443Y425281D01*
X378422Y425151D01*
X378404Y425019D01*
X378391Y424887D01*
X378381Y424755D01*
X378375Y424623D01*
X378373Y424490D01*
X394004Y424490D02*
X394004Y417266D01*
X394006Y417133D01*
X394012Y417001D01*
X394022Y416869D01*
X394035Y416737D01*
X394053Y416605D01*
X394074Y416475D01*
X394099Y416344D01*
X394128Y416215D01*
X394161Y416087D01*
X394197Y415959D01*
X394237Y415833D01*
X394281Y415708D01*
X394329Y415584D01*
X394380Y415462D01*
X394435Y415341D01*
X394493Y415222D01*
X394555Y415104D01*
X394620Y414989D01*
X394689Y414875D01*
X394760Y414764D01*
X394836Y414655D01*
X394914Y414548D01*
X394995Y414443D01*
X395080Y414341D01*
X395167Y414241D01*
X395257Y414144D01*
X395350Y414049D01*
X395446Y413958D01*
X395544Y413869D01*
X395645Y413783D01*
X395749Y413700D01*
X395855Y413620D01*
X395963Y413544D01*
X396073Y413470D01*
X396186Y413400D01*
X396300Y413333D01*
X396417Y413270D01*
X396535Y413210D01*
X396655Y413153D01*
X396777Y413100D01*
X396900Y413051D01*
X397024Y413005D01*
X397150Y412963D01*
X397277Y412925D01*
X397405Y412890D01*
X397534Y412859D01*
X397663Y412832D01*
X397794Y412809D01*
X397925Y412789D01*
X398057Y412774D01*
X398189Y412762D01*
X398321Y412754D01*
X398454Y412750D01*
X398586Y412750D01*
X398719Y412754D01*
X398851Y412762D01*
X398983Y412774D01*
X399115Y412789D01*
X399246Y412809D01*
X399377Y412832D01*
X399506Y412859D01*
X399635Y412890D01*
X399763Y412925D01*
X399890Y412963D01*
X400016Y413005D01*
X400140Y413051D01*
X400263Y413100D01*
X400385Y413153D01*
X400505Y413210D01*
X400623Y413270D01*
X400740Y413333D01*
X400854Y413400D01*
X400967Y413470D01*
X401077Y413544D01*
X401185Y413620D01*
X401291Y413700D01*
X401395Y413783D01*
X401496Y413869D01*
X401594Y413958D01*
X401690Y414049D01*
X401783Y414144D01*
X401873Y414241D01*
X401960Y414341D01*
X402045Y414443D01*
X402126Y414548D01*
X402204Y414655D01*
X402280Y414764D01*
X402351Y414875D01*
X402420Y414989D01*
X402485Y415104D01*
X402547Y415222D01*
X402605Y415341D01*
X402660Y415462D01*
X402711Y415584D01*
X402759Y415708D01*
X402803Y415833D01*
X402843Y415959D01*
X402879Y416087D01*
X402912Y416215D01*
X402941Y416344D01*
X402966Y416475D01*
X402987Y416605D01*
X403005Y416737D01*
X403018Y416869D01*
X403028Y417001D01*
X403034Y417133D01*
X403036Y417266D01*
X403036Y424490D01*
X403034Y424623D01*
X403028Y424755D01*
X403018Y424887D01*
X403005Y425019D01*
X402987Y425151D01*
X402966Y425281D01*
X402941Y425412D01*
X402912Y425541D01*
X402879Y425669D01*
X402843Y425797D01*
X402803Y425923D01*
X402759Y426048D01*
X402711Y426172D01*
X402660Y426294D01*
X402605Y426415D01*
X402547Y426534D01*
X402485Y426652D01*
X402420Y426767D01*
X402351Y426881D01*
X402280Y426992D01*
X402204Y427101D01*
X402126Y427208D01*
X402045Y427313D01*
X401960Y427415D01*
X401873Y427515D01*
X401783Y427612D01*
X401690Y427707D01*
X401594Y427798D01*
X401496Y427887D01*
X401395Y427973D01*
X401291Y428056D01*
X401185Y428136D01*
X401077Y428212D01*
X400967Y428286D01*
X400854Y428356D01*
X400740Y428423D01*
X400623Y428486D01*
X400505Y428546D01*
X400385Y428603D01*
X400263Y428656D01*
X400140Y428705D01*
X400016Y428751D01*
X399890Y428793D01*
X399763Y428831D01*
X399635Y428866D01*
X399506Y428897D01*
X399377Y428924D01*
X399246Y428947D01*
X399115Y428967D01*
X398983Y428982D01*
X398851Y428994D01*
X398719Y429002D01*
X398586Y429006D01*
X398454Y429006D01*
X398321Y429002D01*
X398189Y428994D01*
X398057Y428982D01*
X397925Y428967D01*
X397794Y428947D01*
X397663Y428924D01*
X397534Y428897D01*
X397405Y428866D01*
X397277Y428831D01*
X397150Y428793D01*
X397024Y428751D01*
X396900Y428705D01*
X396777Y428656D01*
X396655Y428603D01*
X396535Y428546D01*
X396417Y428486D01*
X396300Y428423D01*
X396186Y428356D01*
X396073Y428286D01*
X395963Y428212D01*
X395855Y428136D01*
X395749Y428056D01*
X395645Y427973D01*
X395544Y427887D01*
X395446Y427798D01*
X395350Y427707D01*
X395257Y427612D01*
X395167Y427515D01*
X395080Y427415D01*
X394995Y427313D01*
X394914Y427208D01*
X394836Y427101D01*
X394760Y426992D01*
X394689Y426881D01*
X394620Y426767D01*
X394555Y426652D01*
X394493Y426534D01*
X394435Y426415D01*
X394380Y426294D01*
X394329Y426172D01*
X394281Y426048D01*
X394237Y425923D01*
X394197Y425797D01*
X394161Y425669D01*
X394128Y425541D01*
X394099Y425412D01*
X394074Y425281D01*
X394053Y425151D01*
X394035Y425019D01*
X394022Y424887D01*
X394012Y424755D01*
X394006Y424623D01*
X394004Y424490D01*
X413109Y429006D02*
X413109Y412750D01*
X408594Y412750D02*
X417625Y412750D01*
X208026Y412750D02*
X208026Y424490D01*
X208028Y424623D01*
X208034Y424755D01*
X208044Y424887D01*
X208057Y425019D01*
X208075Y425151D01*
X208096Y425281D01*
X208121Y425412D01*
X208150Y425541D01*
X208183Y425669D01*
X208219Y425797D01*
X208259Y425923D01*
X208303Y426048D01*
X208351Y426172D01*
X208402Y426294D01*
X208457Y426415D01*
X208515Y426534D01*
X208577Y426652D01*
X208642Y426767D01*
X208711Y426881D01*
X208782Y426992D01*
X208858Y427101D01*
X208936Y427208D01*
X209017Y427313D01*
X209102Y427415D01*
X209189Y427515D01*
X209279Y427612D01*
X209372Y427707D01*
X209468Y427798D01*
X209566Y427887D01*
X209667Y427973D01*
X209771Y428056D01*
X209877Y428136D01*
X209985Y428212D01*
X210095Y428286D01*
X210208Y428356D01*
X210322Y428423D01*
X210439Y428486D01*
X210557Y428546D01*
X210677Y428603D01*
X210799Y428656D01*
X210922Y428705D01*
X211046Y428751D01*
X211172Y428793D01*
X211299Y428831D01*
X211427Y428866D01*
X211556Y428897D01*
X211685Y428924D01*
X211816Y428947D01*
X211947Y428967D01*
X212079Y428982D01*
X212211Y428994D01*
X212343Y429002D01*
X212476Y429006D01*
X212608Y429006D01*
X212741Y429002D01*
X212873Y428994D01*
X213005Y428982D01*
X213137Y428967D01*
X213268Y428947D01*
X213399Y428924D01*
X213528Y428897D01*
X213657Y428866D01*
X213785Y428831D01*
X213912Y428793D01*
X214038Y428751D01*
X214162Y428705D01*
X214285Y428656D01*
X214407Y428603D01*
X214527Y428546D01*
X214645Y428486D01*
X214762Y428423D01*
X214876Y428356D01*
X214989Y428286D01*
X215099Y428212D01*
X215207Y428136D01*
X215313Y428056D01*
X215417Y427973D01*
X215518Y427887D01*
X215616Y427798D01*
X215712Y427707D01*
X215805Y427612D01*
X215895Y427515D01*
X215982Y427415D01*
X216067Y427313D01*
X216148Y427208D01*
X216226Y427101D01*
X216302Y426992D01*
X216373Y426881D01*
X216442Y426767D01*
X216507Y426652D01*
X216569Y426534D01*
X216627Y426415D01*
X216682Y426294D01*
X216733Y426172D01*
X216781Y426048D01*
X216825Y425923D01*
X216865Y425797D01*
X216901Y425669D01*
X216934Y425541D01*
X216963Y425412D01*
X216988Y425281D01*
X217009Y425151D01*
X217027Y425019D01*
X217040Y424887D01*
X217050Y424755D01*
X217056Y424623D01*
X217058Y424490D01*
X217057Y424490D02*
X217057Y412750D01*
X232688Y425394D02*
X232686Y425512D01*
X232680Y425630D01*
X232671Y425748D01*
X232657Y425865D01*
X232640Y425982D01*
X232619Y426099D01*
X232594Y426214D01*
X232565Y426329D01*
X232532Y426443D01*
X232496Y426555D01*
X232456Y426666D01*
X232413Y426776D01*
X232366Y426885D01*
X232316Y426992D01*
X232261Y427097D01*
X232204Y427200D01*
X232143Y427301D01*
X232079Y427401D01*
X232012Y427498D01*
X231942Y427593D01*
X231868Y427685D01*
X231792Y427776D01*
X231712Y427863D01*
X231630Y427948D01*
X231545Y428030D01*
X231458Y428110D01*
X231367Y428186D01*
X231275Y428260D01*
X231180Y428330D01*
X231083Y428397D01*
X230983Y428461D01*
X230882Y428522D01*
X230779Y428579D01*
X230674Y428634D01*
X230567Y428684D01*
X230458Y428731D01*
X230348Y428774D01*
X230237Y428814D01*
X230125Y428850D01*
X230011Y428883D01*
X229896Y428912D01*
X229781Y428937D01*
X229664Y428958D01*
X229547Y428975D01*
X229430Y428989D01*
X229312Y428998D01*
X229194Y429004D01*
X229076Y429006D01*
X228893Y429004D01*
X228711Y428997D01*
X228529Y428986D01*
X228347Y428971D01*
X228165Y428951D01*
X227984Y428928D01*
X227804Y428899D01*
X227624Y428867D01*
X227445Y428830D01*
X227268Y428789D01*
X227091Y428743D01*
X226915Y428694D01*
X226741Y428640D01*
X226567Y428582D01*
X226396Y428520D01*
X226226Y428454D01*
X226057Y428383D01*
X225890Y428309D01*
X225725Y428231D01*
X225562Y428149D01*
X225401Y428063D01*
X225242Y427973D01*
X225085Y427879D01*
X224931Y427782D01*
X224779Y427681D01*
X224629Y427576D01*
X224482Y427468D01*
X224338Y427357D01*
X224196Y427242D01*
X224057Y427123D01*
X223921Y427001D01*
X223788Y426876D01*
X223658Y426748D01*
X224109Y416362D02*
X224111Y416244D01*
X224117Y416126D01*
X224126Y416008D01*
X224140Y415891D01*
X224157Y415774D01*
X224178Y415657D01*
X224203Y415542D01*
X224232Y415427D01*
X224265Y415313D01*
X224301Y415201D01*
X224341Y415090D01*
X224384Y414980D01*
X224431Y414871D01*
X224481Y414764D01*
X224536Y414659D01*
X224593Y414556D01*
X224654Y414455D01*
X224718Y414355D01*
X224785Y414258D01*
X224855Y414163D01*
X224929Y414071D01*
X225005Y413980D01*
X225085Y413893D01*
X225167Y413808D01*
X225252Y413726D01*
X225339Y413646D01*
X225430Y413570D01*
X225522Y413496D01*
X225617Y413426D01*
X225714Y413359D01*
X225814Y413295D01*
X225915Y413234D01*
X226018Y413177D01*
X226123Y413122D01*
X226230Y413072D01*
X226339Y413025D01*
X226449Y412982D01*
X226560Y412942D01*
X226672Y412906D01*
X226786Y412873D01*
X226901Y412844D01*
X227016Y412819D01*
X227133Y412798D01*
X227250Y412781D01*
X227367Y412767D01*
X227485Y412758D01*
X227603Y412752D01*
X227721Y412750D01*
X227882Y412752D01*
X228044Y412758D01*
X228205Y412767D01*
X228366Y412781D01*
X228526Y412798D01*
X228686Y412819D01*
X228846Y412844D01*
X229005Y412873D01*
X229163Y412905D01*
X229320Y412941D01*
X229476Y412981D01*
X229632Y413025D01*
X229786Y413073D01*
X229939Y413124D01*
X230091Y413178D01*
X230242Y413237D01*
X230391Y413298D01*
X230538Y413364D01*
X230684Y413433D01*
X230829Y413505D01*
X230971Y413581D01*
X231112Y413660D01*
X231251Y413742D01*
X231387Y413828D01*
X231522Y413917D01*
X231655Y414009D01*
X231785Y414105D01*
X225915Y419523D02*
X225814Y419461D01*
X225714Y419396D01*
X225617Y419327D01*
X225522Y419255D01*
X225429Y419181D01*
X225339Y419103D01*
X225251Y419022D01*
X225166Y418939D01*
X225084Y418853D01*
X225005Y418764D01*
X224928Y418673D01*
X224855Y418579D01*
X224784Y418483D01*
X224717Y418385D01*
X224653Y418285D01*
X224592Y418182D01*
X224535Y418078D01*
X224481Y417972D01*
X224431Y417864D01*
X224384Y417755D01*
X224340Y417644D01*
X224300Y417532D01*
X224264Y417418D01*
X224232Y417304D01*
X224203Y417188D01*
X224178Y417072D01*
X224157Y416955D01*
X224140Y416837D01*
X224126Y416719D01*
X224117Y416600D01*
X224111Y416481D01*
X224109Y416362D01*
X230882Y422233D02*
X230983Y422295D01*
X231083Y422360D01*
X231180Y422429D01*
X231275Y422501D01*
X231368Y422575D01*
X231458Y422653D01*
X231546Y422734D01*
X231631Y422817D01*
X231713Y422903D01*
X231792Y422992D01*
X231869Y423083D01*
X231942Y423177D01*
X232013Y423273D01*
X232080Y423371D01*
X232144Y423471D01*
X232205Y423574D01*
X232262Y423678D01*
X232316Y423784D01*
X232366Y423892D01*
X232413Y424001D01*
X232457Y424112D01*
X232497Y424224D01*
X232533Y424338D01*
X232565Y424452D01*
X232594Y424568D01*
X232619Y424684D01*
X232640Y424801D01*
X232657Y424919D01*
X232671Y425037D01*
X232680Y425156D01*
X232686Y425275D01*
X232688Y425394D01*
X230882Y422233D02*
X225915Y419523D01*
X239318Y429006D02*
X246543Y429006D01*
X239318Y429006D02*
X239318Y412750D01*
X246543Y412750D01*
X244737Y419975D02*
X239318Y419975D01*
X252927Y412750D02*
X252927Y429006D01*
X252927Y412750D02*
X257443Y412750D01*
X257576Y412752D01*
X257708Y412758D01*
X257840Y412768D01*
X257972Y412781D01*
X258104Y412799D01*
X258234Y412820D01*
X258365Y412845D01*
X258494Y412874D01*
X258622Y412907D01*
X258750Y412943D01*
X258876Y412983D01*
X259001Y413027D01*
X259125Y413075D01*
X259247Y413126D01*
X259368Y413181D01*
X259487Y413239D01*
X259605Y413301D01*
X259720Y413366D01*
X259834Y413435D01*
X259945Y413506D01*
X260054Y413582D01*
X260161Y413660D01*
X260266Y413741D01*
X260368Y413826D01*
X260468Y413913D01*
X260565Y414003D01*
X260660Y414096D01*
X260751Y414192D01*
X260840Y414290D01*
X260926Y414391D01*
X261009Y414495D01*
X261089Y414601D01*
X261165Y414709D01*
X261239Y414819D01*
X261309Y414932D01*
X261376Y415046D01*
X261439Y415163D01*
X261499Y415281D01*
X261556Y415401D01*
X261609Y415523D01*
X261658Y415646D01*
X261704Y415770D01*
X261746Y415896D01*
X261784Y416023D01*
X261819Y416151D01*
X261850Y416280D01*
X261877Y416409D01*
X261900Y416540D01*
X261920Y416671D01*
X261935Y416803D01*
X261947Y416935D01*
X261955Y417067D01*
X261959Y417200D01*
X261959Y417332D01*
X261955Y417465D01*
X261947Y417597D01*
X261935Y417729D01*
X261920Y417861D01*
X261900Y417992D01*
X261877Y418123D01*
X261850Y418252D01*
X261819Y418381D01*
X261784Y418509D01*
X261746Y418636D01*
X261704Y418762D01*
X261658Y418886D01*
X261609Y419009D01*
X261556Y419131D01*
X261499Y419251D01*
X261439Y419369D01*
X261376Y419486D01*
X261309Y419600D01*
X261239Y419713D01*
X261165Y419823D01*
X261089Y419931D01*
X261009Y420037D01*
X260926Y420141D01*
X260840Y420242D01*
X260751Y420340D01*
X260660Y420436D01*
X260565Y420529D01*
X260468Y420619D01*
X260368Y420706D01*
X260266Y420791D01*
X260161Y420872D01*
X260054Y420950D01*
X259945Y421026D01*
X259834Y421097D01*
X259720Y421166D01*
X259605Y421231D01*
X259487Y421293D01*
X259368Y421351D01*
X259247Y421406D01*
X259125Y421457D01*
X259001Y421505D01*
X258876Y421549D01*
X258750Y421589D01*
X258622Y421625D01*
X258494Y421658D01*
X258365Y421687D01*
X258234Y421712D01*
X258104Y421733D01*
X257972Y421751D01*
X257840Y421764D01*
X257708Y421774D01*
X257576Y421780D01*
X257443Y421782D01*
X257443Y421781D02*
X252927Y421781D01*
X258346Y421781D02*
X261958Y429006D01*
X101346Y429006D02*
X101346Y412750D01*
X105862Y412750D01*
X105995Y412752D01*
X106127Y412758D01*
X106259Y412768D01*
X106391Y412781D01*
X106523Y412799D01*
X106653Y412820D01*
X106784Y412845D01*
X106913Y412874D01*
X107041Y412907D01*
X107169Y412943D01*
X107295Y412983D01*
X107420Y413027D01*
X107544Y413075D01*
X107666Y413126D01*
X107787Y413181D01*
X107906Y413239D01*
X108024Y413301D01*
X108139Y413366D01*
X108253Y413435D01*
X108364Y413506D01*
X108473Y413582D01*
X108580Y413660D01*
X108685Y413741D01*
X108787Y413826D01*
X108887Y413913D01*
X108984Y414003D01*
X109079Y414096D01*
X109170Y414192D01*
X109259Y414290D01*
X109345Y414391D01*
X109428Y414495D01*
X109508Y414601D01*
X109584Y414709D01*
X109658Y414819D01*
X109728Y414932D01*
X109795Y415046D01*
X109858Y415163D01*
X109918Y415281D01*
X109975Y415401D01*
X110028Y415523D01*
X110077Y415646D01*
X110123Y415770D01*
X110165Y415896D01*
X110203Y416023D01*
X110238Y416151D01*
X110269Y416280D01*
X110296Y416409D01*
X110319Y416540D01*
X110339Y416671D01*
X110354Y416803D01*
X110366Y416935D01*
X110374Y417067D01*
X110378Y417200D01*
X110378Y417332D01*
X110374Y417465D01*
X110366Y417597D01*
X110354Y417729D01*
X110339Y417861D01*
X110319Y417992D01*
X110296Y418123D01*
X110269Y418252D01*
X110238Y418381D01*
X110203Y418509D01*
X110165Y418636D01*
X110123Y418762D01*
X110077Y418886D01*
X110028Y419009D01*
X109975Y419131D01*
X109918Y419251D01*
X109858Y419369D01*
X109795Y419486D01*
X109728Y419600D01*
X109658Y419713D01*
X109584Y419823D01*
X109508Y419931D01*
X109428Y420037D01*
X109345Y420141D01*
X109259Y420242D01*
X109170Y420340D01*
X109079Y420436D01*
X108984Y420529D01*
X108887Y420619D01*
X108787Y420706D01*
X108685Y420791D01*
X108580Y420872D01*
X108473Y420950D01*
X108364Y421026D01*
X108253Y421097D01*
X108139Y421166D01*
X108024Y421231D01*
X107906Y421293D01*
X107787Y421351D01*
X107666Y421406D01*
X107544Y421457D01*
X107420Y421505D01*
X107295Y421549D01*
X107169Y421589D01*
X107041Y421625D01*
X106913Y421658D01*
X106784Y421687D01*
X106653Y421712D01*
X106523Y421733D01*
X106391Y421751D01*
X106259Y421764D01*
X106127Y421774D01*
X105995Y421780D01*
X105862Y421782D01*
X105862Y421781D02*
X101346Y421781D01*
X106765Y421781D02*
X110377Y429006D01*
X117437Y429006D02*
X124661Y429006D01*
X117437Y429006D02*
X117437Y412750D01*
X124661Y412750D01*
X122855Y419975D02*
X117437Y419975D01*
X135330Y429006D02*
X135448Y429004D01*
X135566Y428998D01*
X135684Y428989D01*
X135801Y428975D01*
X135918Y428958D01*
X136035Y428937D01*
X136150Y428912D01*
X136265Y428883D01*
X136379Y428850D01*
X136491Y428814D01*
X136602Y428774D01*
X136712Y428731D01*
X136821Y428684D01*
X136928Y428634D01*
X137033Y428579D01*
X137136Y428522D01*
X137237Y428461D01*
X137337Y428397D01*
X137434Y428330D01*
X137529Y428260D01*
X137621Y428186D01*
X137712Y428110D01*
X137799Y428030D01*
X137884Y427948D01*
X137966Y427863D01*
X138046Y427776D01*
X138122Y427685D01*
X138196Y427593D01*
X138266Y427498D01*
X138333Y427401D01*
X138397Y427301D01*
X138458Y427200D01*
X138515Y427097D01*
X138570Y426992D01*
X138620Y426885D01*
X138667Y426776D01*
X138710Y426666D01*
X138750Y426555D01*
X138786Y426443D01*
X138819Y426329D01*
X138848Y426214D01*
X138873Y426099D01*
X138894Y425982D01*
X138911Y425865D01*
X138925Y425748D01*
X138934Y425630D01*
X138940Y425512D01*
X138942Y425394D01*
X135330Y429006D02*
X135147Y429004D01*
X134965Y428997D01*
X134783Y428986D01*
X134601Y428971D01*
X134419Y428951D01*
X134238Y428928D01*
X134058Y428899D01*
X133878Y428867D01*
X133699Y428830D01*
X133522Y428789D01*
X133345Y428743D01*
X133169Y428694D01*
X132995Y428640D01*
X132821Y428582D01*
X132650Y428520D01*
X132480Y428454D01*
X132311Y428383D01*
X132144Y428309D01*
X131979Y428231D01*
X131816Y428149D01*
X131655Y428063D01*
X131496Y427973D01*
X131339Y427879D01*
X131185Y427782D01*
X131033Y427681D01*
X130883Y427576D01*
X130736Y427468D01*
X130592Y427357D01*
X130450Y427242D01*
X130311Y427123D01*
X130175Y427001D01*
X130042Y426876D01*
X129912Y426748D01*
X130364Y416362D02*
X130366Y416244D01*
X130372Y416126D01*
X130381Y416008D01*
X130395Y415891D01*
X130412Y415774D01*
X130433Y415657D01*
X130458Y415542D01*
X130487Y415427D01*
X130520Y415313D01*
X130556Y415201D01*
X130596Y415090D01*
X130639Y414980D01*
X130686Y414871D01*
X130736Y414764D01*
X130791Y414659D01*
X130848Y414556D01*
X130909Y414455D01*
X130973Y414355D01*
X131040Y414258D01*
X131110Y414163D01*
X131184Y414071D01*
X131260Y413980D01*
X131340Y413893D01*
X131422Y413808D01*
X131507Y413726D01*
X131594Y413646D01*
X131685Y413570D01*
X131777Y413496D01*
X131872Y413426D01*
X131969Y413359D01*
X132069Y413295D01*
X132170Y413234D01*
X132273Y413177D01*
X132378Y413122D01*
X132485Y413072D01*
X132594Y413025D01*
X132704Y412982D01*
X132815Y412942D01*
X132927Y412906D01*
X133041Y412873D01*
X133156Y412844D01*
X133271Y412819D01*
X133388Y412798D01*
X133505Y412781D01*
X133622Y412767D01*
X133740Y412758D01*
X133858Y412752D01*
X133976Y412750D01*
X134137Y412752D01*
X134299Y412758D01*
X134460Y412767D01*
X134621Y412781D01*
X134781Y412798D01*
X134941Y412819D01*
X135101Y412844D01*
X135260Y412873D01*
X135418Y412905D01*
X135575Y412941D01*
X135731Y412981D01*
X135887Y413025D01*
X136041Y413073D01*
X136194Y413124D01*
X136346Y413178D01*
X136497Y413237D01*
X136646Y413298D01*
X136793Y413364D01*
X136939Y413433D01*
X137084Y413505D01*
X137226Y413581D01*
X137367Y413660D01*
X137506Y413742D01*
X137642Y413828D01*
X137777Y413917D01*
X137910Y414009D01*
X138040Y414105D01*
X132169Y419523D02*
X132068Y419461D01*
X131968Y419396D01*
X131871Y419327D01*
X131776Y419255D01*
X131683Y419181D01*
X131593Y419103D01*
X131505Y419022D01*
X131420Y418939D01*
X131338Y418853D01*
X131259Y418764D01*
X131182Y418673D01*
X131109Y418579D01*
X131038Y418483D01*
X130971Y418385D01*
X130907Y418285D01*
X130846Y418182D01*
X130789Y418078D01*
X130735Y417972D01*
X130685Y417864D01*
X130638Y417755D01*
X130594Y417644D01*
X130554Y417532D01*
X130518Y417418D01*
X130486Y417304D01*
X130457Y417188D01*
X130432Y417072D01*
X130411Y416955D01*
X130394Y416837D01*
X130380Y416719D01*
X130371Y416600D01*
X130365Y416481D01*
X130363Y416362D01*
X137137Y422233D02*
X137238Y422295D01*
X137338Y422360D01*
X137435Y422429D01*
X137530Y422501D01*
X137623Y422575D01*
X137713Y422653D01*
X137801Y422734D01*
X137886Y422817D01*
X137968Y422903D01*
X138047Y422992D01*
X138124Y423083D01*
X138197Y423177D01*
X138268Y423273D01*
X138335Y423371D01*
X138399Y423471D01*
X138460Y423574D01*
X138517Y423678D01*
X138571Y423784D01*
X138621Y423892D01*
X138668Y424001D01*
X138712Y424112D01*
X138752Y424224D01*
X138788Y424338D01*
X138820Y424452D01*
X138849Y424568D01*
X138874Y424684D01*
X138895Y424801D01*
X138912Y424919D01*
X138926Y425037D01*
X138935Y425156D01*
X138941Y425275D01*
X138943Y425394D01*
X137137Y422233D02*
X132169Y419523D01*
X145573Y429006D02*
X152798Y429006D01*
X145573Y429006D02*
X145573Y412750D01*
X152798Y412750D01*
X150991Y419975D02*
X145573Y419975D01*
X162042Y412750D02*
X162042Y429006D01*
X157527Y412750D02*
X166558Y412750D01*
D11*
X411988Y407924D02*
X415234Y407924D01*
X415347Y407922D01*
X415460Y407916D01*
X415573Y407906D01*
X415686Y407892D01*
X415798Y407875D01*
X415909Y407853D01*
X416019Y407828D01*
X416129Y407798D01*
X416237Y407765D01*
X416344Y407728D01*
X416450Y407688D01*
X416554Y407643D01*
X416657Y407595D01*
X416758Y407544D01*
X416857Y407489D01*
X416954Y407431D01*
X417049Y407369D01*
X417142Y407304D01*
X417232Y407236D01*
X417320Y407165D01*
X417406Y407090D01*
X417489Y407013D01*
X417569Y406933D01*
X417646Y406850D01*
X417721Y406764D01*
X417792Y406676D01*
X417860Y406586D01*
X417925Y406493D01*
X417987Y406398D01*
X418045Y406301D01*
X418100Y406202D01*
X418151Y406101D01*
X418199Y405998D01*
X418244Y405894D01*
X418284Y405788D01*
X418321Y405681D01*
X418354Y405573D01*
X418384Y405463D01*
X418409Y405353D01*
X418431Y405242D01*
X418448Y405130D01*
X418462Y405017D01*
X418472Y404904D01*
X418478Y404791D01*
X418480Y404678D01*
X418478Y404565D01*
X418472Y404452D01*
X418462Y404339D01*
X418448Y404226D01*
X418431Y404114D01*
X418409Y404003D01*
X418384Y403893D01*
X418354Y403783D01*
X418321Y403675D01*
X418284Y403568D01*
X418244Y403462D01*
X418199Y403358D01*
X418151Y403255D01*
X418100Y403154D01*
X418045Y403055D01*
X417987Y402958D01*
X417925Y402863D01*
X417860Y402770D01*
X417792Y402680D01*
X417721Y402592D01*
X417646Y402506D01*
X417569Y402423D01*
X417489Y402343D01*
X417406Y402266D01*
X417320Y402191D01*
X417232Y402120D01*
X417142Y402052D01*
X417049Y401987D01*
X416954Y401925D01*
X416857Y401867D01*
X416758Y401812D01*
X416657Y401761D01*
X416554Y401713D01*
X416450Y401668D01*
X416344Y401628D01*
X416237Y401591D01*
X416129Y401558D01*
X416019Y401528D01*
X415909Y401503D01*
X415798Y401481D01*
X415686Y401464D01*
X415573Y401450D01*
X415460Y401440D01*
X415347Y401434D01*
X415234Y401432D01*
X415883Y396240D02*
X411988Y396240D01*
X415883Y396240D02*
X415984Y396242D01*
X416084Y396248D01*
X416184Y396258D01*
X416284Y396271D01*
X416383Y396289D01*
X416482Y396310D01*
X416579Y396335D01*
X416676Y396364D01*
X416771Y396397D01*
X416865Y396433D01*
X416957Y396473D01*
X417048Y396516D01*
X417137Y396563D01*
X417224Y396613D01*
X417310Y396667D01*
X417393Y396724D01*
X417473Y396784D01*
X417552Y396847D01*
X417628Y396914D01*
X417701Y396983D01*
X417771Y397055D01*
X417839Y397129D01*
X417904Y397206D01*
X417965Y397286D01*
X418024Y397368D01*
X418079Y397452D01*
X418131Y397538D01*
X418180Y397626D01*
X418225Y397716D01*
X418267Y397808D01*
X418305Y397901D01*
X418339Y397996D01*
X418370Y398091D01*
X418397Y398188D01*
X418420Y398286D01*
X418440Y398385D01*
X418455Y398485D01*
X418467Y398585D01*
X418475Y398685D01*
X418479Y398786D01*
X418479Y398886D01*
X418475Y398987D01*
X418467Y399087D01*
X418455Y399187D01*
X418440Y399287D01*
X418420Y399386D01*
X418397Y399484D01*
X418370Y399581D01*
X418339Y399676D01*
X418305Y399771D01*
X418267Y399864D01*
X418225Y399956D01*
X418180Y400046D01*
X418131Y400134D01*
X418079Y400220D01*
X418024Y400304D01*
X417965Y400386D01*
X417904Y400466D01*
X417839Y400543D01*
X417771Y400617D01*
X417701Y400689D01*
X417628Y400758D01*
X417552Y400825D01*
X417473Y400888D01*
X417393Y400948D01*
X417310Y401005D01*
X417224Y401059D01*
X417137Y401109D01*
X417048Y401156D01*
X416957Y401199D01*
X416865Y401239D01*
X416771Y401275D01*
X416676Y401308D01*
X416579Y401337D01*
X416482Y401362D01*
X416383Y401383D01*
X416284Y401401D01*
X416184Y401414D01*
X416084Y401424D01*
X415984Y401430D01*
X415883Y401432D01*
X415883Y401433D02*
X413286Y401433D01*
X422769Y396240D02*
X426664Y407924D01*
X430558Y396240D01*
X434848Y407924D02*
X438094Y407924D01*
X438207Y407922D01*
X438320Y407916D01*
X438433Y407906D01*
X438546Y407892D01*
X438658Y407875D01*
X438769Y407853D01*
X438879Y407828D01*
X438989Y407798D01*
X439097Y407765D01*
X439204Y407728D01*
X439310Y407688D01*
X439414Y407643D01*
X439517Y407595D01*
X439618Y407544D01*
X439717Y407489D01*
X439814Y407431D01*
X439909Y407369D01*
X440002Y407304D01*
X440092Y407236D01*
X440180Y407165D01*
X440266Y407090D01*
X440349Y407013D01*
X440429Y406933D01*
X440506Y406850D01*
X440581Y406764D01*
X440652Y406676D01*
X440720Y406586D01*
X440785Y406493D01*
X440847Y406398D01*
X440905Y406301D01*
X440960Y406202D01*
X441011Y406101D01*
X441059Y405998D01*
X441104Y405894D01*
X441144Y405788D01*
X441181Y405681D01*
X441214Y405573D01*
X441244Y405463D01*
X441269Y405353D01*
X441291Y405242D01*
X441308Y405130D01*
X441322Y405017D01*
X441332Y404904D01*
X441338Y404791D01*
X441340Y404678D01*
X441338Y404565D01*
X441332Y404452D01*
X441322Y404339D01*
X441308Y404226D01*
X441291Y404114D01*
X441269Y404003D01*
X441244Y403893D01*
X441214Y403783D01*
X441181Y403675D01*
X441144Y403568D01*
X441104Y403462D01*
X441059Y403358D01*
X441011Y403255D01*
X440960Y403154D01*
X440905Y403055D01*
X440847Y402958D01*
X440785Y402863D01*
X440720Y402770D01*
X440652Y402680D01*
X440581Y402592D01*
X440506Y402506D01*
X440429Y402423D01*
X440349Y402343D01*
X440266Y402266D01*
X440180Y402191D01*
X440092Y402120D01*
X440002Y402052D01*
X439909Y401987D01*
X439814Y401925D01*
X439717Y401867D01*
X439618Y401812D01*
X439517Y401761D01*
X439414Y401713D01*
X439310Y401668D01*
X439204Y401628D01*
X439097Y401591D01*
X438989Y401558D01*
X438879Y401528D01*
X438769Y401503D01*
X438658Y401481D01*
X438546Y401464D01*
X438433Y401450D01*
X438320Y401440D01*
X438207Y401434D01*
X438094Y401432D01*
X438743Y396240D02*
X434848Y396240D01*
X438743Y396240D02*
X438844Y396242D01*
X438944Y396248D01*
X439044Y396258D01*
X439144Y396271D01*
X439243Y396289D01*
X439342Y396310D01*
X439439Y396335D01*
X439536Y396364D01*
X439631Y396397D01*
X439725Y396433D01*
X439817Y396473D01*
X439908Y396516D01*
X439997Y396563D01*
X440084Y396613D01*
X440170Y396667D01*
X440253Y396724D01*
X440333Y396784D01*
X440412Y396847D01*
X440488Y396914D01*
X440561Y396983D01*
X440631Y397055D01*
X440699Y397129D01*
X440764Y397206D01*
X440825Y397286D01*
X440884Y397368D01*
X440939Y397452D01*
X440991Y397538D01*
X441040Y397626D01*
X441085Y397716D01*
X441127Y397808D01*
X441165Y397901D01*
X441199Y397996D01*
X441230Y398091D01*
X441257Y398188D01*
X441280Y398286D01*
X441300Y398385D01*
X441315Y398485D01*
X441327Y398585D01*
X441335Y398685D01*
X441339Y398786D01*
X441339Y398886D01*
X441335Y398987D01*
X441327Y399087D01*
X441315Y399187D01*
X441300Y399287D01*
X441280Y399386D01*
X441257Y399484D01*
X441230Y399581D01*
X441199Y399676D01*
X441165Y399771D01*
X441127Y399864D01*
X441085Y399956D01*
X441040Y400046D01*
X440991Y400134D01*
X440939Y400220D01*
X440884Y400304D01*
X440825Y400386D01*
X440764Y400466D01*
X440699Y400543D01*
X440631Y400617D01*
X440561Y400689D01*
X440488Y400758D01*
X440412Y400825D01*
X440333Y400888D01*
X440253Y400948D01*
X440170Y401005D01*
X440084Y401059D01*
X439997Y401109D01*
X439908Y401156D01*
X439817Y401199D01*
X439725Y401239D01*
X439631Y401275D01*
X439536Y401308D01*
X439439Y401337D01*
X439342Y401362D01*
X439243Y401383D01*
X439144Y401401D01*
X439044Y401414D01*
X438944Y401424D01*
X438844Y401430D01*
X438743Y401432D01*
X438743Y401433D02*
X436146Y401433D01*
X424378Y261620D02*
X421132Y261620D01*
X424378Y261620D02*
X424491Y261618D01*
X424604Y261612D01*
X424717Y261602D01*
X424830Y261588D01*
X424942Y261571D01*
X425053Y261549D01*
X425163Y261524D01*
X425273Y261494D01*
X425381Y261461D01*
X425488Y261424D01*
X425594Y261384D01*
X425698Y261339D01*
X425801Y261291D01*
X425902Y261240D01*
X426001Y261185D01*
X426098Y261127D01*
X426193Y261065D01*
X426286Y261000D01*
X426376Y260932D01*
X426464Y260861D01*
X426550Y260786D01*
X426633Y260709D01*
X426713Y260629D01*
X426790Y260546D01*
X426865Y260460D01*
X426936Y260372D01*
X427004Y260282D01*
X427069Y260189D01*
X427131Y260094D01*
X427189Y259997D01*
X427244Y259898D01*
X427295Y259797D01*
X427343Y259694D01*
X427388Y259590D01*
X427428Y259484D01*
X427465Y259377D01*
X427498Y259269D01*
X427528Y259159D01*
X427553Y259049D01*
X427575Y258938D01*
X427592Y258826D01*
X427606Y258713D01*
X427616Y258600D01*
X427622Y258487D01*
X427624Y258374D01*
X427622Y258261D01*
X427616Y258148D01*
X427606Y258035D01*
X427592Y257922D01*
X427575Y257810D01*
X427553Y257699D01*
X427528Y257589D01*
X427498Y257479D01*
X427465Y257371D01*
X427428Y257264D01*
X427388Y257158D01*
X427343Y257054D01*
X427295Y256951D01*
X427244Y256850D01*
X427189Y256751D01*
X427131Y256654D01*
X427069Y256559D01*
X427004Y256466D01*
X426936Y256376D01*
X426865Y256288D01*
X426790Y256202D01*
X426713Y256119D01*
X426633Y256039D01*
X426550Y255962D01*
X426464Y255887D01*
X426376Y255816D01*
X426286Y255748D01*
X426193Y255683D01*
X426098Y255621D01*
X426001Y255563D01*
X425902Y255508D01*
X425801Y255457D01*
X425698Y255409D01*
X425594Y255364D01*
X425488Y255324D01*
X425381Y255287D01*
X425273Y255254D01*
X425163Y255224D01*
X425053Y255199D01*
X424942Y255177D01*
X424830Y255160D01*
X424717Y255146D01*
X424604Y255136D01*
X424491Y255130D01*
X424378Y255128D01*
X425027Y249936D02*
X421132Y249936D01*
X425027Y249936D02*
X425128Y249938D01*
X425228Y249944D01*
X425328Y249954D01*
X425428Y249967D01*
X425527Y249985D01*
X425626Y250006D01*
X425723Y250031D01*
X425820Y250060D01*
X425915Y250093D01*
X426009Y250129D01*
X426101Y250169D01*
X426192Y250212D01*
X426281Y250259D01*
X426368Y250309D01*
X426454Y250363D01*
X426537Y250420D01*
X426617Y250480D01*
X426696Y250543D01*
X426772Y250610D01*
X426845Y250679D01*
X426915Y250751D01*
X426983Y250825D01*
X427048Y250902D01*
X427109Y250982D01*
X427168Y251064D01*
X427223Y251148D01*
X427275Y251234D01*
X427324Y251322D01*
X427369Y251412D01*
X427411Y251504D01*
X427449Y251597D01*
X427483Y251692D01*
X427514Y251787D01*
X427541Y251884D01*
X427564Y251982D01*
X427584Y252081D01*
X427599Y252181D01*
X427611Y252281D01*
X427619Y252381D01*
X427623Y252482D01*
X427623Y252582D01*
X427619Y252683D01*
X427611Y252783D01*
X427599Y252883D01*
X427584Y252983D01*
X427564Y253082D01*
X427541Y253180D01*
X427514Y253277D01*
X427483Y253372D01*
X427449Y253467D01*
X427411Y253560D01*
X427369Y253652D01*
X427324Y253742D01*
X427275Y253830D01*
X427223Y253916D01*
X427168Y254000D01*
X427109Y254082D01*
X427048Y254162D01*
X426983Y254239D01*
X426915Y254313D01*
X426845Y254385D01*
X426772Y254454D01*
X426696Y254521D01*
X426617Y254584D01*
X426537Y254644D01*
X426454Y254701D01*
X426368Y254755D01*
X426281Y254805D01*
X426192Y254852D01*
X426101Y254895D01*
X426009Y254935D01*
X425915Y254971D01*
X425820Y255004D01*
X425723Y255033D01*
X425626Y255058D01*
X425527Y255079D01*
X425428Y255097D01*
X425328Y255110D01*
X425228Y255120D01*
X425128Y255126D01*
X425027Y255128D01*
X425027Y255129D02*
X422430Y255129D01*
X431913Y249936D02*
X435808Y261620D01*
X439702Y249936D01*
X443992Y261620D02*
X447238Y261620D01*
X447351Y261618D01*
X447464Y261612D01*
X447577Y261602D01*
X447690Y261588D01*
X447802Y261571D01*
X447913Y261549D01*
X448023Y261524D01*
X448133Y261494D01*
X448241Y261461D01*
X448348Y261424D01*
X448454Y261384D01*
X448558Y261339D01*
X448661Y261291D01*
X448762Y261240D01*
X448861Y261185D01*
X448958Y261127D01*
X449053Y261065D01*
X449146Y261000D01*
X449236Y260932D01*
X449324Y260861D01*
X449410Y260786D01*
X449493Y260709D01*
X449573Y260629D01*
X449650Y260546D01*
X449725Y260460D01*
X449796Y260372D01*
X449864Y260282D01*
X449929Y260189D01*
X449991Y260094D01*
X450049Y259997D01*
X450104Y259898D01*
X450155Y259797D01*
X450203Y259694D01*
X450248Y259590D01*
X450288Y259484D01*
X450325Y259377D01*
X450358Y259269D01*
X450388Y259159D01*
X450413Y259049D01*
X450435Y258938D01*
X450452Y258826D01*
X450466Y258713D01*
X450476Y258600D01*
X450482Y258487D01*
X450484Y258374D01*
X450482Y258261D01*
X450476Y258148D01*
X450466Y258035D01*
X450452Y257922D01*
X450435Y257810D01*
X450413Y257699D01*
X450388Y257589D01*
X450358Y257479D01*
X450325Y257371D01*
X450288Y257264D01*
X450248Y257158D01*
X450203Y257054D01*
X450155Y256951D01*
X450104Y256850D01*
X450049Y256751D01*
X449991Y256654D01*
X449929Y256559D01*
X449864Y256466D01*
X449796Y256376D01*
X449725Y256288D01*
X449650Y256202D01*
X449573Y256119D01*
X449493Y256039D01*
X449410Y255962D01*
X449324Y255887D01*
X449236Y255816D01*
X449146Y255748D01*
X449053Y255683D01*
X448958Y255621D01*
X448861Y255563D01*
X448762Y255508D01*
X448661Y255457D01*
X448558Y255409D01*
X448454Y255364D01*
X448348Y255324D01*
X448241Y255287D01*
X448133Y255254D01*
X448023Y255224D01*
X447913Y255199D01*
X447802Y255177D01*
X447690Y255160D01*
X447577Y255146D01*
X447464Y255136D01*
X447351Y255130D01*
X447238Y255128D01*
X447887Y249936D02*
X443992Y249936D01*
X447887Y249936D02*
X447988Y249938D01*
X448088Y249944D01*
X448188Y249954D01*
X448288Y249967D01*
X448387Y249985D01*
X448486Y250006D01*
X448583Y250031D01*
X448680Y250060D01*
X448775Y250093D01*
X448869Y250129D01*
X448961Y250169D01*
X449052Y250212D01*
X449141Y250259D01*
X449228Y250309D01*
X449314Y250363D01*
X449397Y250420D01*
X449477Y250480D01*
X449556Y250543D01*
X449632Y250610D01*
X449705Y250679D01*
X449775Y250751D01*
X449843Y250825D01*
X449908Y250902D01*
X449969Y250982D01*
X450028Y251064D01*
X450083Y251148D01*
X450135Y251234D01*
X450184Y251322D01*
X450229Y251412D01*
X450271Y251504D01*
X450309Y251597D01*
X450343Y251692D01*
X450374Y251787D01*
X450401Y251884D01*
X450424Y251982D01*
X450444Y252081D01*
X450459Y252181D01*
X450471Y252281D01*
X450479Y252381D01*
X450483Y252482D01*
X450483Y252582D01*
X450479Y252683D01*
X450471Y252783D01*
X450459Y252883D01*
X450444Y252983D01*
X450424Y253082D01*
X450401Y253180D01*
X450374Y253277D01*
X450343Y253372D01*
X450309Y253467D01*
X450271Y253560D01*
X450229Y253652D01*
X450184Y253742D01*
X450135Y253830D01*
X450083Y253916D01*
X450028Y254000D01*
X449969Y254082D01*
X449908Y254162D01*
X449843Y254239D01*
X449775Y254313D01*
X449705Y254385D01*
X449632Y254454D01*
X449556Y254521D01*
X449477Y254584D01*
X449397Y254644D01*
X449314Y254701D01*
X449228Y254755D01*
X449141Y254805D01*
X449052Y254852D01*
X448961Y254895D01*
X448869Y254935D01*
X448775Y254971D01*
X448680Y255004D01*
X448583Y255033D01*
X448486Y255058D01*
X448387Y255079D01*
X448288Y255097D01*
X448188Y255110D01*
X448088Y255120D01*
X447988Y255126D01*
X447887Y255128D01*
X447887Y255129D02*
X445290Y255129D01*
X411988Y296503D02*
X411988Y304292D01*
X411988Y296503D02*
X415883Y296503D01*
X415883Y297801D01*
X421489Y304292D02*
X424734Y304292D01*
X421489Y304292D02*
X421402Y304290D01*
X421314Y304284D01*
X421228Y304274D01*
X421141Y304261D01*
X421056Y304243D01*
X420971Y304222D01*
X420887Y304197D01*
X420805Y304168D01*
X420724Y304135D01*
X420644Y304099D01*
X420566Y304060D01*
X420490Y304016D01*
X420416Y303970D01*
X420345Y303920D01*
X420275Y303867D01*
X420208Y303811D01*
X420144Y303752D01*
X420082Y303690D01*
X420023Y303626D01*
X419967Y303559D01*
X419914Y303489D01*
X419864Y303418D01*
X419818Y303344D01*
X419774Y303268D01*
X419735Y303190D01*
X419699Y303110D01*
X419666Y303029D01*
X419637Y302947D01*
X419612Y302863D01*
X419591Y302778D01*
X419573Y302693D01*
X419560Y302606D01*
X419550Y302520D01*
X419544Y302432D01*
X419542Y302345D01*
X419542Y299099D01*
X419544Y298998D01*
X419550Y298898D01*
X419560Y298798D01*
X419573Y298698D01*
X419591Y298599D01*
X419612Y298500D01*
X419637Y298403D01*
X419666Y298306D01*
X419699Y298211D01*
X419735Y298117D01*
X419775Y298025D01*
X419818Y297934D01*
X419865Y297845D01*
X419915Y297758D01*
X419969Y297672D01*
X420026Y297589D01*
X420086Y297509D01*
X420149Y297430D01*
X420216Y297354D01*
X420285Y297281D01*
X420357Y297211D01*
X420431Y297143D01*
X420508Y297078D01*
X420588Y297017D01*
X420670Y296958D01*
X420754Y296903D01*
X420840Y296851D01*
X420928Y296802D01*
X421018Y296757D01*
X421110Y296715D01*
X421203Y296677D01*
X421298Y296643D01*
X421393Y296612D01*
X421490Y296585D01*
X421588Y296562D01*
X421687Y296542D01*
X421787Y296527D01*
X421887Y296515D01*
X421987Y296507D01*
X422088Y296503D01*
X422188Y296503D01*
X422289Y296507D01*
X422389Y296515D01*
X422489Y296527D01*
X422589Y296542D01*
X422688Y296562D01*
X422786Y296585D01*
X422883Y296612D01*
X422978Y296643D01*
X423073Y296677D01*
X423166Y296715D01*
X423258Y296757D01*
X423348Y296802D01*
X423436Y296851D01*
X423522Y296903D01*
X423606Y296958D01*
X423688Y297017D01*
X423768Y297078D01*
X423845Y297143D01*
X423919Y297211D01*
X423991Y297281D01*
X424060Y297354D01*
X424127Y297430D01*
X424190Y297509D01*
X424250Y297589D01*
X424307Y297672D01*
X424361Y297758D01*
X424411Y297845D01*
X424458Y297934D01*
X424501Y298025D01*
X424541Y298117D01*
X424577Y298211D01*
X424610Y298306D01*
X424639Y298403D01*
X424664Y298500D01*
X424685Y298599D01*
X424703Y298698D01*
X424716Y298798D01*
X424726Y298898D01*
X424732Y298998D01*
X424734Y299099D01*
X424734Y300397D01*
X419542Y300397D01*
X430421Y299748D02*
X433667Y301046D01*
X430421Y299749D02*
X430346Y299716D01*
X430272Y299680D01*
X430200Y299641D01*
X430130Y299598D01*
X430063Y299552D01*
X429997Y299502D01*
X429935Y299450D01*
X429874Y299394D01*
X429817Y299336D01*
X429762Y299275D01*
X429711Y299211D01*
X429663Y299145D01*
X429618Y299076D01*
X429576Y299006D01*
X429538Y298933D01*
X429503Y298859D01*
X429472Y298783D01*
X429445Y298706D01*
X429422Y298627D01*
X429402Y298548D01*
X429387Y298467D01*
X429375Y298386D01*
X429367Y298304D01*
X429363Y298223D01*
X429364Y298141D01*
X429368Y298059D01*
X429376Y297977D01*
X429388Y297896D01*
X429404Y297816D01*
X429424Y297736D01*
X429448Y297658D01*
X429476Y297581D01*
X429507Y297505D01*
X429542Y297431D01*
X429580Y297359D01*
X429622Y297288D01*
X429668Y297220D01*
X429716Y297154D01*
X429768Y297091D01*
X429823Y297030D01*
X429881Y296972D01*
X429941Y296916D01*
X430004Y296864D01*
X430070Y296815D01*
X430138Y296769D01*
X430208Y296727D01*
X430280Y296687D01*
X430354Y296652D01*
X430429Y296620D01*
X430506Y296592D01*
X430584Y296568D01*
X430664Y296547D01*
X430744Y296530D01*
X430825Y296518D01*
X430906Y296509D01*
X430988Y296504D01*
X431070Y296503D01*
X431247Y296507D01*
X431424Y296516D01*
X431601Y296530D01*
X431778Y296547D01*
X431953Y296569D01*
X432129Y296594D01*
X432303Y296625D01*
X432477Y296659D01*
X432650Y296697D01*
X432822Y296740D01*
X432993Y296787D01*
X433163Y296837D01*
X433332Y296892D01*
X433499Y296951D01*
X433665Y297014D01*
X433829Y297081D01*
X433991Y297152D01*
X433667Y301046D02*
X433742Y301079D01*
X433816Y301115D01*
X433888Y301154D01*
X433958Y301197D01*
X434025Y301243D01*
X434091Y301293D01*
X434153Y301345D01*
X434214Y301401D01*
X434271Y301459D01*
X434326Y301520D01*
X434377Y301584D01*
X434425Y301650D01*
X434470Y301719D01*
X434512Y301789D01*
X434550Y301862D01*
X434585Y301936D01*
X434616Y302012D01*
X434643Y302089D01*
X434666Y302168D01*
X434686Y302248D01*
X434701Y302328D01*
X434713Y302409D01*
X434721Y302491D01*
X434725Y302572D01*
X434724Y302654D01*
X434720Y302736D01*
X434712Y302818D01*
X434700Y302899D01*
X434684Y302979D01*
X434664Y303059D01*
X434640Y303137D01*
X434612Y303214D01*
X434581Y303290D01*
X434546Y303364D01*
X434508Y303436D01*
X434466Y303507D01*
X434420Y303575D01*
X434372Y303641D01*
X434320Y303704D01*
X434265Y303765D01*
X434207Y303823D01*
X434147Y303879D01*
X434084Y303931D01*
X434018Y303980D01*
X433950Y304026D01*
X433880Y304068D01*
X433808Y304108D01*
X433734Y304143D01*
X433659Y304175D01*
X433582Y304203D01*
X433504Y304227D01*
X433424Y304248D01*
X433344Y304265D01*
X433263Y304277D01*
X433182Y304286D01*
X433100Y304291D01*
X433018Y304292D01*
X432758Y304285D01*
X432498Y304272D01*
X432238Y304253D01*
X431979Y304228D01*
X431720Y304196D01*
X431463Y304159D01*
X431206Y304115D01*
X430950Y304066D01*
X430696Y304010D01*
X430443Y303949D01*
X430192Y303881D01*
X429942Y303807D01*
X429694Y303728D01*
X429448Y303643D01*
X441301Y304292D02*
X444546Y304292D01*
X441301Y304292D02*
X441214Y304290D01*
X441126Y304284D01*
X441040Y304274D01*
X440953Y304261D01*
X440868Y304243D01*
X440783Y304222D01*
X440699Y304197D01*
X440617Y304168D01*
X440536Y304135D01*
X440456Y304099D01*
X440378Y304060D01*
X440302Y304016D01*
X440228Y303970D01*
X440157Y303920D01*
X440087Y303867D01*
X440020Y303811D01*
X439956Y303752D01*
X439894Y303690D01*
X439835Y303626D01*
X439779Y303559D01*
X439726Y303489D01*
X439676Y303418D01*
X439630Y303344D01*
X439586Y303268D01*
X439547Y303190D01*
X439511Y303110D01*
X439478Y303029D01*
X439449Y302947D01*
X439424Y302863D01*
X439403Y302778D01*
X439385Y302693D01*
X439372Y302606D01*
X439362Y302520D01*
X439356Y302432D01*
X439354Y302345D01*
X439354Y299099D01*
X439356Y298998D01*
X439362Y298898D01*
X439372Y298798D01*
X439385Y298698D01*
X439403Y298599D01*
X439424Y298500D01*
X439449Y298403D01*
X439478Y298306D01*
X439511Y298211D01*
X439547Y298117D01*
X439587Y298025D01*
X439630Y297934D01*
X439677Y297845D01*
X439727Y297758D01*
X439781Y297672D01*
X439838Y297589D01*
X439898Y297509D01*
X439961Y297430D01*
X440028Y297354D01*
X440097Y297281D01*
X440169Y297211D01*
X440243Y297143D01*
X440320Y297078D01*
X440400Y297017D01*
X440482Y296958D01*
X440566Y296903D01*
X440652Y296851D01*
X440740Y296802D01*
X440830Y296757D01*
X440922Y296715D01*
X441015Y296677D01*
X441110Y296643D01*
X441205Y296612D01*
X441302Y296585D01*
X441400Y296562D01*
X441499Y296542D01*
X441599Y296527D01*
X441699Y296515D01*
X441799Y296507D01*
X441900Y296503D01*
X442000Y296503D01*
X442101Y296507D01*
X442201Y296515D01*
X442301Y296527D01*
X442401Y296542D01*
X442500Y296562D01*
X442598Y296585D01*
X442695Y296612D01*
X442790Y296643D01*
X442885Y296677D01*
X442978Y296715D01*
X443070Y296757D01*
X443160Y296802D01*
X443248Y296851D01*
X443334Y296903D01*
X443418Y296958D01*
X443500Y297017D01*
X443580Y297078D01*
X443657Y297143D01*
X443731Y297211D01*
X443803Y297281D01*
X443872Y297354D01*
X443939Y297430D01*
X444002Y297509D01*
X444062Y297589D01*
X444119Y297672D01*
X444173Y297758D01*
X444223Y297845D01*
X444270Y297934D01*
X444313Y298025D01*
X444353Y298117D01*
X444389Y298211D01*
X444422Y298306D01*
X444451Y298403D01*
X444476Y298500D01*
X444497Y298599D01*
X444515Y298698D01*
X444528Y298798D01*
X444538Y298898D01*
X444544Y298998D01*
X444546Y299099D01*
X444546Y300397D01*
X439354Y300397D01*
X448292Y296503D02*
X452187Y296503D01*
X449591Y292608D02*
X449591Y302345D01*
X449593Y302432D01*
X449599Y302520D01*
X449609Y302606D01*
X449622Y302693D01*
X449640Y302778D01*
X449661Y302863D01*
X449686Y302947D01*
X449715Y303029D01*
X449748Y303110D01*
X449784Y303190D01*
X449823Y303268D01*
X449867Y303344D01*
X449913Y303418D01*
X449963Y303489D01*
X450016Y303559D01*
X450072Y303626D01*
X450131Y303690D01*
X450193Y303752D01*
X450257Y303811D01*
X450324Y303867D01*
X450394Y303920D01*
X450465Y303970D01*
X450539Y304016D01*
X450615Y304060D01*
X450693Y304099D01*
X450773Y304135D01*
X450854Y304168D01*
X450936Y304197D01*
X451020Y304222D01*
X451105Y304243D01*
X451190Y304261D01*
X451277Y304274D01*
X451363Y304284D01*
X451451Y304290D01*
X451538Y304292D01*
X452187Y304292D01*
X416532Y322382D02*
X413286Y321084D01*
X413286Y321085D02*
X413211Y321052D01*
X413137Y321016D01*
X413065Y320977D01*
X412995Y320934D01*
X412928Y320888D01*
X412862Y320838D01*
X412800Y320786D01*
X412739Y320730D01*
X412682Y320672D01*
X412627Y320611D01*
X412576Y320547D01*
X412528Y320481D01*
X412483Y320412D01*
X412441Y320342D01*
X412403Y320269D01*
X412368Y320195D01*
X412337Y320119D01*
X412310Y320042D01*
X412287Y319963D01*
X412267Y319884D01*
X412252Y319803D01*
X412240Y319722D01*
X412232Y319640D01*
X412228Y319559D01*
X412229Y319477D01*
X412233Y319395D01*
X412241Y319313D01*
X412253Y319232D01*
X412269Y319152D01*
X412289Y319072D01*
X412313Y318994D01*
X412341Y318917D01*
X412372Y318841D01*
X412407Y318767D01*
X412445Y318695D01*
X412487Y318624D01*
X412533Y318556D01*
X412581Y318490D01*
X412633Y318427D01*
X412688Y318366D01*
X412746Y318308D01*
X412806Y318252D01*
X412869Y318200D01*
X412935Y318151D01*
X413003Y318105D01*
X413073Y318063D01*
X413145Y318023D01*
X413219Y317988D01*
X413294Y317956D01*
X413371Y317928D01*
X413449Y317904D01*
X413529Y317883D01*
X413609Y317866D01*
X413690Y317854D01*
X413771Y317845D01*
X413853Y317840D01*
X413935Y317839D01*
X414112Y317843D01*
X414289Y317852D01*
X414466Y317866D01*
X414643Y317883D01*
X414818Y317905D01*
X414994Y317930D01*
X415168Y317961D01*
X415342Y317995D01*
X415515Y318033D01*
X415687Y318076D01*
X415858Y318123D01*
X416028Y318173D01*
X416197Y318228D01*
X416364Y318287D01*
X416530Y318350D01*
X416694Y318417D01*
X416856Y318488D01*
X416532Y322382D02*
X416607Y322415D01*
X416681Y322451D01*
X416753Y322490D01*
X416823Y322533D01*
X416890Y322579D01*
X416956Y322629D01*
X417018Y322681D01*
X417079Y322737D01*
X417136Y322795D01*
X417191Y322856D01*
X417242Y322920D01*
X417290Y322986D01*
X417335Y323055D01*
X417377Y323125D01*
X417415Y323198D01*
X417450Y323272D01*
X417481Y323348D01*
X417508Y323425D01*
X417531Y323504D01*
X417551Y323584D01*
X417566Y323664D01*
X417578Y323745D01*
X417586Y323827D01*
X417590Y323908D01*
X417589Y323990D01*
X417585Y324072D01*
X417577Y324154D01*
X417565Y324235D01*
X417549Y324315D01*
X417529Y324395D01*
X417505Y324473D01*
X417477Y324550D01*
X417446Y324626D01*
X417411Y324700D01*
X417373Y324772D01*
X417331Y324843D01*
X417285Y324911D01*
X417237Y324977D01*
X417185Y325040D01*
X417130Y325101D01*
X417072Y325159D01*
X417012Y325215D01*
X416949Y325267D01*
X416883Y325316D01*
X416815Y325362D01*
X416745Y325404D01*
X416673Y325444D01*
X416599Y325479D01*
X416524Y325511D01*
X416447Y325539D01*
X416369Y325563D01*
X416289Y325584D01*
X416209Y325601D01*
X416128Y325613D01*
X416047Y325622D01*
X415965Y325627D01*
X415883Y325628D01*
X415623Y325621D01*
X415363Y325608D01*
X415103Y325589D01*
X414844Y325564D01*
X414585Y325532D01*
X414328Y325495D01*
X414071Y325451D01*
X413815Y325402D01*
X413561Y325346D01*
X413308Y325285D01*
X413057Y325217D01*
X412807Y325143D01*
X412559Y325064D01*
X412313Y324979D01*
X424011Y325628D02*
X422063Y317839D01*
X425958Y320435D02*
X424011Y325628D01*
X427905Y325628D02*
X425958Y320435D01*
X429853Y317839D02*
X427905Y325628D01*
X436371Y325628D02*
X438968Y325628D01*
X436371Y325628D02*
X436284Y325626D01*
X436196Y325620D01*
X436110Y325610D01*
X436023Y325597D01*
X435938Y325579D01*
X435853Y325558D01*
X435769Y325533D01*
X435687Y325504D01*
X435606Y325471D01*
X435526Y325435D01*
X435448Y325396D01*
X435372Y325352D01*
X435298Y325306D01*
X435227Y325256D01*
X435157Y325203D01*
X435090Y325147D01*
X435026Y325088D01*
X434964Y325026D01*
X434905Y324962D01*
X434849Y324895D01*
X434796Y324825D01*
X434746Y324754D01*
X434700Y324680D01*
X434656Y324604D01*
X434617Y324526D01*
X434581Y324446D01*
X434548Y324365D01*
X434519Y324283D01*
X434494Y324199D01*
X434473Y324114D01*
X434455Y324029D01*
X434442Y323942D01*
X434432Y323856D01*
X434426Y323768D01*
X434424Y323681D01*
X434424Y319786D01*
X434426Y319699D01*
X434432Y319611D01*
X434442Y319525D01*
X434455Y319438D01*
X434473Y319353D01*
X434494Y319268D01*
X434519Y319184D01*
X434548Y319102D01*
X434581Y319021D01*
X434617Y318941D01*
X434656Y318863D01*
X434700Y318787D01*
X434746Y318713D01*
X434796Y318642D01*
X434849Y318572D01*
X434905Y318505D01*
X434964Y318441D01*
X435026Y318379D01*
X435090Y318320D01*
X435157Y318264D01*
X435227Y318211D01*
X435298Y318161D01*
X435372Y318115D01*
X435448Y318071D01*
X435526Y318032D01*
X435606Y317996D01*
X435687Y317963D01*
X435769Y317934D01*
X435853Y317909D01*
X435938Y317888D01*
X436023Y317870D01*
X436110Y317857D01*
X436196Y317847D01*
X436284Y317841D01*
X436371Y317839D01*
X438968Y317839D01*
X443323Y313944D02*
X443323Y323681D01*
X443325Y323768D01*
X443331Y323856D01*
X443341Y323942D01*
X443354Y324029D01*
X443372Y324114D01*
X443393Y324199D01*
X443418Y324283D01*
X443447Y324365D01*
X443480Y324446D01*
X443516Y324526D01*
X443555Y324604D01*
X443599Y324680D01*
X443645Y324754D01*
X443695Y324825D01*
X443748Y324895D01*
X443804Y324962D01*
X443863Y325026D01*
X443925Y325088D01*
X443989Y325147D01*
X444056Y325203D01*
X444126Y325256D01*
X444197Y325306D01*
X444271Y325352D01*
X444347Y325396D01*
X444425Y325435D01*
X444505Y325471D01*
X444586Y325504D01*
X444668Y325533D01*
X444752Y325558D01*
X444837Y325579D01*
X444922Y325597D01*
X445009Y325610D01*
X445095Y325620D01*
X445183Y325626D01*
X445270Y325628D01*
X449786Y325628D02*
X449786Y313944D01*
X454979Y317839D02*
X449786Y321733D01*
X452058Y320111D02*
X454979Y325628D01*
X416532Y349814D02*
X413286Y348516D01*
X413286Y348517D02*
X413211Y348484D01*
X413137Y348448D01*
X413065Y348409D01*
X412995Y348366D01*
X412928Y348320D01*
X412862Y348270D01*
X412800Y348218D01*
X412739Y348162D01*
X412682Y348104D01*
X412627Y348043D01*
X412576Y347979D01*
X412528Y347913D01*
X412483Y347844D01*
X412441Y347774D01*
X412403Y347701D01*
X412368Y347627D01*
X412337Y347551D01*
X412310Y347474D01*
X412287Y347395D01*
X412267Y347316D01*
X412252Y347235D01*
X412240Y347154D01*
X412232Y347072D01*
X412228Y346991D01*
X412229Y346909D01*
X412233Y346827D01*
X412241Y346745D01*
X412253Y346664D01*
X412269Y346584D01*
X412289Y346504D01*
X412313Y346426D01*
X412341Y346349D01*
X412372Y346273D01*
X412407Y346199D01*
X412445Y346127D01*
X412487Y346056D01*
X412533Y345988D01*
X412581Y345922D01*
X412633Y345859D01*
X412688Y345798D01*
X412746Y345740D01*
X412806Y345684D01*
X412869Y345632D01*
X412935Y345583D01*
X413003Y345537D01*
X413073Y345495D01*
X413145Y345455D01*
X413219Y345420D01*
X413294Y345388D01*
X413371Y345360D01*
X413449Y345336D01*
X413529Y345315D01*
X413609Y345298D01*
X413690Y345286D01*
X413771Y345277D01*
X413853Y345272D01*
X413935Y345271D01*
X414112Y345275D01*
X414289Y345284D01*
X414466Y345298D01*
X414643Y345315D01*
X414818Y345337D01*
X414994Y345362D01*
X415168Y345393D01*
X415342Y345427D01*
X415515Y345465D01*
X415687Y345508D01*
X415858Y345555D01*
X416028Y345605D01*
X416197Y345660D01*
X416364Y345719D01*
X416530Y345782D01*
X416694Y345849D01*
X416856Y345920D01*
X416532Y349814D02*
X416607Y349847D01*
X416681Y349883D01*
X416753Y349922D01*
X416823Y349965D01*
X416890Y350011D01*
X416956Y350061D01*
X417018Y350113D01*
X417079Y350169D01*
X417136Y350227D01*
X417191Y350288D01*
X417242Y350352D01*
X417290Y350418D01*
X417335Y350487D01*
X417377Y350557D01*
X417415Y350630D01*
X417450Y350704D01*
X417481Y350780D01*
X417508Y350857D01*
X417531Y350936D01*
X417551Y351016D01*
X417566Y351096D01*
X417578Y351177D01*
X417586Y351259D01*
X417590Y351340D01*
X417589Y351422D01*
X417585Y351504D01*
X417577Y351586D01*
X417565Y351667D01*
X417549Y351747D01*
X417529Y351827D01*
X417505Y351905D01*
X417477Y351982D01*
X417446Y352058D01*
X417411Y352132D01*
X417373Y352204D01*
X417331Y352275D01*
X417285Y352343D01*
X417237Y352409D01*
X417185Y352472D01*
X417130Y352533D01*
X417072Y352591D01*
X417012Y352647D01*
X416949Y352699D01*
X416883Y352748D01*
X416815Y352794D01*
X416745Y352836D01*
X416673Y352876D01*
X416599Y352911D01*
X416524Y352943D01*
X416447Y352971D01*
X416369Y352995D01*
X416289Y353016D01*
X416209Y353033D01*
X416128Y353045D01*
X416047Y353054D01*
X415965Y353059D01*
X415883Y353060D01*
X415623Y353053D01*
X415363Y353040D01*
X415103Y353021D01*
X414844Y352996D01*
X414585Y352964D01*
X414328Y352927D01*
X414071Y352883D01*
X413815Y352834D01*
X413561Y352778D01*
X413308Y352717D01*
X413057Y352649D01*
X412807Y352575D01*
X412559Y352496D01*
X412313Y352411D01*
X424011Y353060D02*
X422063Y345271D01*
X425958Y347867D02*
X424011Y353060D01*
X427905Y353060D02*
X425958Y347867D01*
X429853Y345271D02*
X427905Y353060D01*
X439545Y353060D02*
X439545Y341376D01*
X439545Y353060D02*
X436299Y353060D01*
X436212Y353058D01*
X436124Y353052D01*
X436038Y353042D01*
X435951Y353029D01*
X435866Y353011D01*
X435781Y352990D01*
X435697Y352965D01*
X435615Y352936D01*
X435534Y352903D01*
X435454Y352867D01*
X435376Y352828D01*
X435300Y352784D01*
X435226Y352738D01*
X435155Y352688D01*
X435085Y352635D01*
X435018Y352579D01*
X434954Y352520D01*
X434892Y352458D01*
X434833Y352394D01*
X434777Y352327D01*
X434724Y352257D01*
X434674Y352186D01*
X434628Y352112D01*
X434584Y352036D01*
X434545Y351958D01*
X434509Y351878D01*
X434476Y351797D01*
X434447Y351715D01*
X434422Y351631D01*
X434401Y351546D01*
X434383Y351461D01*
X434370Y351374D01*
X434360Y351288D01*
X434354Y351200D01*
X434352Y351113D01*
X434352Y347218D01*
X434354Y347131D01*
X434360Y347043D01*
X434370Y346957D01*
X434383Y346870D01*
X434401Y346785D01*
X434422Y346700D01*
X434447Y346616D01*
X434476Y346534D01*
X434509Y346453D01*
X434545Y346373D01*
X434584Y346295D01*
X434628Y346219D01*
X434674Y346145D01*
X434724Y346074D01*
X434777Y346004D01*
X434833Y345937D01*
X434892Y345873D01*
X434954Y345811D01*
X435018Y345752D01*
X435085Y345696D01*
X435155Y345643D01*
X435226Y345593D01*
X435300Y345547D01*
X435376Y345503D01*
X435454Y345464D01*
X435534Y345428D01*
X435615Y345395D01*
X435697Y345366D01*
X435781Y345341D01*
X435866Y345320D01*
X435951Y345302D01*
X436038Y345289D01*
X436124Y345279D01*
X436212Y345273D01*
X436299Y345271D01*
X439545Y345271D01*
X444627Y345271D02*
X444627Y353060D01*
X444302Y342025D02*
X444302Y341376D01*
X444952Y341376D01*
X444952Y342025D01*
X444302Y342025D01*
X449270Y347867D02*
X449270Y350464D01*
X449270Y347867D02*
X449272Y347766D01*
X449278Y347666D01*
X449288Y347566D01*
X449301Y347466D01*
X449319Y347367D01*
X449340Y347268D01*
X449365Y347171D01*
X449394Y347074D01*
X449427Y346979D01*
X449463Y346885D01*
X449503Y346793D01*
X449546Y346702D01*
X449593Y346613D01*
X449643Y346526D01*
X449697Y346440D01*
X449754Y346357D01*
X449814Y346277D01*
X449877Y346198D01*
X449944Y346122D01*
X450013Y346049D01*
X450085Y345979D01*
X450159Y345911D01*
X450236Y345846D01*
X450316Y345785D01*
X450398Y345726D01*
X450482Y345671D01*
X450568Y345619D01*
X450656Y345570D01*
X450746Y345525D01*
X450838Y345483D01*
X450931Y345445D01*
X451026Y345411D01*
X451121Y345380D01*
X451218Y345353D01*
X451316Y345330D01*
X451415Y345310D01*
X451515Y345295D01*
X451615Y345283D01*
X451715Y345275D01*
X451816Y345271D01*
X451916Y345271D01*
X452017Y345275D01*
X452117Y345283D01*
X452217Y345295D01*
X452317Y345310D01*
X452416Y345330D01*
X452514Y345353D01*
X452611Y345380D01*
X452706Y345411D01*
X452801Y345445D01*
X452894Y345483D01*
X452986Y345525D01*
X453076Y345570D01*
X453164Y345619D01*
X453250Y345671D01*
X453334Y345726D01*
X453416Y345785D01*
X453496Y345846D01*
X453573Y345911D01*
X453647Y345979D01*
X453719Y346049D01*
X453788Y346122D01*
X453855Y346198D01*
X453918Y346277D01*
X453978Y346357D01*
X454035Y346440D01*
X454089Y346526D01*
X454139Y346613D01*
X454186Y346702D01*
X454229Y346793D01*
X454269Y346885D01*
X454305Y346979D01*
X454338Y347074D01*
X454367Y347171D01*
X454392Y347268D01*
X454413Y347367D01*
X454431Y347466D01*
X454444Y347566D01*
X454454Y347666D01*
X454460Y347766D01*
X454462Y347867D01*
X454462Y350464D01*
X454460Y350565D01*
X454454Y350665D01*
X454444Y350765D01*
X454431Y350865D01*
X454413Y350964D01*
X454392Y351063D01*
X454367Y351160D01*
X454338Y351257D01*
X454305Y351352D01*
X454269Y351446D01*
X454229Y351538D01*
X454186Y351629D01*
X454139Y351718D01*
X454089Y351805D01*
X454035Y351891D01*
X453978Y351974D01*
X453918Y352054D01*
X453855Y352133D01*
X453788Y352209D01*
X453719Y352282D01*
X453647Y352352D01*
X453573Y352420D01*
X453496Y352485D01*
X453416Y352546D01*
X453334Y352605D01*
X453250Y352660D01*
X453164Y352712D01*
X453076Y352761D01*
X452986Y352806D01*
X452894Y352848D01*
X452801Y352886D01*
X452706Y352920D01*
X452611Y352951D01*
X452514Y352978D01*
X452416Y353001D01*
X452317Y353021D01*
X452217Y353036D01*
X452117Y353048D01*
X452017Y353056D01*
X451916Y353060D01*
X451816Y353060D01*
X451715Y353056D01*
X451615Y353048D01*
X451515Y353036D01*
X451415Y353021D01*
X451316Y353001D01*
X451218Y352978D01*
X451121Y352951D01*
X451026Y352920D01*
X450931Y352886D01*
X450838Y352848D01*
X450746Y352806D01*
X450656Y352761D01*
X450568Y352712D01*
X450482Y352660D01*
X450398Y352605D01*
X450316Y352546D01*
X450236Y352485D01*
X450159Y352420D01*
X450085Y352352D01*
X450013Y352282D01*
X449944Y352209D01*
X449877Y352133D01*
X449814Y352054D01*
X449754Y351974D01*
X449697Y351891D01*
X449643Y351805D01*
X449593Y351718D01*
X449546Y351629D01*
X449503Y351538D01*
X449463Y351446D01*
X449427Y351352D01*
X449394Y351257D01*
X449365Y351160D01*
X449340Y351063D01*
X449319Y350964D01*
X449301Y350865D01*
X449288Y350765D01*
X449278Y350665D01*
X449272Y350565D01*
X449270Y350464D01*
X417181Y380492D02*
X413935Y380492D01*
X413848Y380490D01*
X413760Y380484D01*
X413674Y380474D01*
X413587Y380461D01*
X413502Y380443D01*
X413417Y380422D01*
X413333Y380397D01*
X413251Y380368D01*
X413170Y380335D01*
X413090Y380299D01*
X413012Y380260D01*
X412936Y380216D01*
X412862Y380170D01*
X412791Y380120D01*
X412721Y380067D01*
X412654Y380011D01*
X412590Y379952D01*
X412528Y379890D01*
X412469Y379826D01*
X412413Y379759D01*
X412360Y379689D01*
X412310Y379618D01*
X412264Y379544D01*
X412220Y379468D01*
X412181Y379390D01*
X412145Y379310D01*
X412112Y379229D01*
X412083Y379147D01*
X412058Y379063D01*
X412037Y378978D01*
X412019Y378893D01*
X412006Y378806D01*
X411996Y378720D01*
X411990Y378632D01*
X411988Y378545D01*
X411988Y374650D01*
X411990Y374563D01*
X411996Y374475D01*
X412006Y374389D01*
X412019Y374302D01*
X412037Y374217D01*
X412058Y374132D01*
X412083Y374048D01*
X412112Y373966D01*
X412145Y373885D01*
X412181Y373805D01*
X412220Y373727D01*
X412264Y373651D01*
X412310Y373577D01*
X412360Y373506D01*
X412413Y373436D01*
X412469Y373369D01*
X412528Y373305D01*
X412590Y373243D01*
X412654Y373184D01*
X412721Y373128D01*
X412791Y373075D01*
X412862Y373025D01*
X412936Y372979D01*
X413012Y372935D01*
X413090Y372896D01*
X413170Y372860D01*
X413251Y372827D01*
X413333Y372798D01*
X413417Y372773D01*
X413502Y372752D01*
X413587Y372734D01*
X413674Y372721D01*
X413760Y372711D01*
X413848Y372705D01*
X413935Y372703D01*
X417181Y372703D01*
X417181Y382439D01*
X417179Y382526D01*
X417173Y382614D01*
X417163Y382700D01*
X417150Y382787D01*
X417132Y382872D01*
X417111Y382957D01*
X417086Y383041D01*
X417057Y383123D01*
X417024Y383204D01*
X416988Y383284D01*
X416949Y383362D01*
X416905Y383438D01*
X416859Y383512D01*
X416809Y383583D01*
X416756Y383653D01*
X416700Y383720D01*
X416641Y383784D01*
X416579Y383846D01*
X416515Y383905D01*
X416448Y383961D01*
X416378Y384014D01*
X416307Y384064D01*
X416233Y384110D01*
X416157Y384154D01*
X416079Y384193D01*
X415999Y384229D01*
X415918Y384262D01*
X415836Y384291D01*
X415752Y384316D01*
X415667Y384337D01*
X415582Y384355D01*
X415495Y384368D01*
X415409Y384378D01*
X415321Y384384D01*
X415234Y384386D01*
X415234Y384387D02*
X412637Y384387D01*
X422715Y380492D02*
X422715Y372703D01*
X425960Y372703D01*
X426047Y372705D01*
X426135Y372711D01*
X426221Y372721D01*
X426308Y372734D01*
X426393Y372752D01*
X426478Y372773D01*
X426562Y372798D01*
X426644Y372827D01*
X426725Y372860D01*
X426805Y372896D01*
X426883Y372935D01*
X426959Y372979D01*
X427033Y373025D01*
X427104Y373075D01*
X427174Y373128D01*
X427241Y373184D01*
X427305Y373243D01*
X427367Y373304D01*
X427426Y373369D01*
X427482Y373436D01*
X427535Y373506D01*
X427585Y373577D01*
X427631Y373651D01*
X427675Y373727D01*
X427714Y373805D01*
X427750Y373885D01*
X427783Y373966D01*
X427812Y374048D01*
X427837Y374132D01*
X427858Y374217D01*
X427876Y374302D01*
X427889Y374389D01*
X427899Y374475D01*
X427905Y374563D01*
X427907Y374650D01*
X427908Y374650D02*
X427908Y380492D01*
X438136Y380492D02*
X438136Y368808D01*
X438136Y380492D02*
X434890Y380492D01*
X434803Y380490D01*
X434715Y380484D01*
X434629Y380474D01*
X434542Y380461D01*
X434457Y380443D01*
X434372Y380422D01*
X434288Y380397D01*
X434206Y380368D01*
X434125Y380335D01*
X434045Y380299D01*
X433967Y380260D01*
X433891Y380216D01*
X433817Y380170D01*
X433746Y380120D01*
X433676Y380067D01*
X433609Y380011D01*
X433545Y379952D01*
X433483Y379890D01*
X433424Y379826D01*
X433368Y379759D01*
X433315Y379689D01*
X433265Y379618D01*
X433219Y379544D01*
X433175Y379468D01*
X433136Y379390D01*
X433100Y379310D01*
X433067Y379229D01*
X433038Y379147D01*
X433013Y379063D01*
X432992Y378978D01*
X432974Y378893D01*
X432961Y378806D01*
X432951Y378720D01*
X432945Y378632D01*
X432943Y378545D01*
X432943Y374650D01*
X432945Y374563D01*
X432951Y374475D01*
X432961Y374389D01*
X432974Y374302D01*
X432992Y374217D01*
X433013Y374132D01*
X433038Y374048D01*
X433067Y373966D01*
X433100Y373885D01*
X433136Y373805D01*
X433175Y373727D01*
X433219Y373651D01*
X433265Y373577D01*
X433315Y373506D01*
X433368Y373436D01*
X433424Y373369D01*
X433483Y373305D01*
X433545Y373243D01*
X433609Y373184D01*
X433676Y373128D01*
X433746Y373075D01*
X433817Y373025D01*
X433891Y372979D01*
X433967Y372935D01*
X434045Y372896D01*
X434125Y372860D01*
X434206Y372827D01*
X434288Y372798D01*
X434372Y372773D01*
X434457Y372752D01*
X434542Y372734D01*
X434629Y372721D01*
X434715Y372711D01*
X434803Y372705D01*
X434890Y372703D01*
X438136Y372703D01*
X429373Y182372D02*
X426127Y182372D01*
X426040Y182370D01*
X425952Y182364D01*
X425866Y182354D01*
X425779Y182341D01*
X425694Y182323D01*
X425609Y182302D01*
X425525Y182277D01*
X425443Y182248D01*
X425362Y182215D01*
X425282Y182179D01*
X425204Y182140D01*
X425128Y182096D01*
X425054Y182050D01*
X424983Y182000D01*
X424913Y181947D01*
X424846Y181891D01*
X424782Y181832D01*
X424720Y181770D01*
X424661Y181706D01*
X424605Y181639D01*
X424552Y181569D01*
X424502Y181498D01*
X424456Y181424D01*
X424412Y181348D01*
X424373Y181270D01*
X424337Y181190D01*
X424304Y181109D01*
X424275Y181027D01*
X424250Y180943D01*
X424229Y180858D01*
X424211Y180773D01*
X424198Y180686D01*
X424188Y180600D01*
X424182Y180512D01*
X424180Y180425D01*
X424180Y176530D01*
X424182Y176443D01*
X424188Y176355D01*
X424198Y176269D01*
X424211Y176182D01*
X424229Y176097D01*
X424250Y176012D01*
X424275Y175928D01*
X424304Y175846D01*
X424337Y175765D01*
X424373Y175685D01*
X424412Y175607D01*
X424456Y175531D01*
X424502Y175457D01*
X424552Y175386D01*
X424605Y175316D01*
X424661Y175249D01*
X424720Y175185D01*
X424782Y175123D01*
X424846Y175064D01*
X424913Y175008D01*
X424983Y174955D01*
X425054Y174905D01*
X425128Y174859D01*
X425204Y174815D01*
X425282Y174776D01*
X425362Y174740D01*
X425443Y174707D01*
X425525Y174678D01*
X425609Y174653D01*
X425694Y174632D01*
X425779Y174614D01*
X425866Y174601D01*
X425952Y174591D01*
X426040Y174585D01*
X426127Y174583D01*
X429373Y174583D01*
X429373Y184319D01*
X429371Y184406D01*
X429365Y184494D01*
X429355Y184580D01*
X429342Y184667D01*
X429324Y184752D01*
X429303Y184837D01*
X429278Y184921D01*
X429249Y185003D01*
X429216Y185084D01*
X429180Y185164D01*
X429141Y185242D01*
X429097Y185318D01*
X429051Y185392D01*
X429001Y185463D01*
X428948Y185533D01*
X428892Y185600D01*
X428833Y185664D01*
X428771Y185726D01*
X428707Y185785D01*
X428640Y185841D01*
X428570Y185894D01*
X428499Y185944D01*
X428425Y185990D01*
X428349Y186034D01*
X428271Y186073D01*
X428191Y186109D01*
X428110Y186142D01*
X428028Y186171D01*
X427944Y186196D01*
X427859Y186217D01*
X427774Y186235D01*
X427687Y186248D01*
X427601Y186258D01*
X427513Y186264D01*
X427426Y186266D01*
X427426Y186267D02*
X424829Y186267D01*
X434907Y182372D02*
X434907Y174583D01*
X438152Y174583D01*
X438239Y174585D01*
X438327Y174591D01*
X438413Y174601D01*
X438500Y174614D01*
X438585Y174632D01*
X438670Y174653D01*
X438754Y174678D01*
X438836Y174707D01*
X438917Y174740D01*
X438997Y174776D01*
X439075Y174815D01*
X439151Y174859D01*
X439225Y174905D01*
X439296Y174955D01*
X439366Y175008D01*
X439433Y175064D01*
X439497Y175123D01*
X439559Y175184D01*
X439618Y175249D01*
X439674Y175316D01*
X439727Y175386D01*
X439777Y175457D01*
X439823Y175531D01*
X439867Y175607D01*
X439906Y175685D01*
X439942Y175765D01*
X439975Y175846D01*
X440004Y175928D01*
X440029Y176012D01*
X440050Y176097D01*
X440068Y176182D01*
X440081Y176269D01*
X440091Y176355D01*
X440097Y176443D01*
X440099Y176530D01*
X440100Y176530D02*
X440100Y182372D01*
X450328Y182372D02*
X450328Y170688D01*
X450328Y182372D02*
X447082Y182372D01*
X446995Y182370D01*
X446907Y182364D01*
X446821Y182354D01*
X446734Y182341D01*
X446649Y182323D01*
X446564Y182302D01*
X446480Y182277D01*
X446398Y182248D01*
X446317Y182215D01*
X446237Y182179D01*
X446159Y182140D01*
X446083Y182096D01*
X446009Y182050D01*
X445938Y182000D01*
X445868Y181947D01*
X445801Y181891D01*
X445737Y181832D01*
X445675Y181770D01*
X445616Y181706D01*
X445560Y181639D01*
X445507Y181569D01*
X445457Y181498D01*
X445411Y181424D01*
X445367Y181348D01*
X445328Y181270D01*
X445292Y181190D01*
X445259Y181109D01*
X445230Y181027D01*
X445205Y180943D01*
X445184Y180858D01*
X445166Y180773D01*
X445153Y180686D01*
X445143Y180600D01*
X445137Y180512D01*
X445135Y180425D01*
X445135Y176530D01*
X445137Y176443D01*
X445143Y176355D01*
X445153Y176269D01*
X445166Y176182D01*
X445184Y176097D01*
X445205Y176012D01*
X445230Y175928D01*
X445259Y175846D01*
X445292Y175765D01*
X445328Y175685D01*
X445367Y175607D01*
X445411Y175531D01*
X445457Y175457D01*
X445507Y175386D01*
X445560Y175316D01*
X445616Y175249D01*
X445675Y175185D01*
X445737Y175123D01*
X445801Y175064D01*
X445868Y175008D01*
X445938Y174955D01*
X446009Y174905D01*
X446083Y174859D01*
X446159Y174815D01*
X446237Y174776D01*
X446317Y174740D01*
X446398Y174707D01*
X446480Y174678D01*
X446564Y174653D01*
X446649Y174632D01*
X446734Y174614D01*
X446821Y174601D01*
X446907Y174591D01*
X446995Y174585D01*
X447082Y174583D01*
X450328Y174583D01*
X424180Y226399D02*
X424180Y234188D01*
X424180Y226399D02*
X428075Y226399D01*
X428075Y227697D01*
X431353Y234188D02*
X436545Y226399D01*
X431353Y226399D02*
X436545Y234188D01*
X428075Y198967D02*
X424180Y198967D01*
X425478Y195072D02*
X425478Y204809D01*
X425479Y204809D02*
X425481Y204896D01*
X425487Y204984D01*
X425497Y205070D01*
X425510Y205157D01*
X425528Y205242D01*
X425549Y205327D01*
X425574Y205411D01*
X425603Y205493D01*
X425636Y205574D01*
X425672Y205654D01*
X425711Y205732D01*
X425755Y205808D01*
X425801Y205882D01*
X425851Y205953D01*
X425904Y206023D01*
X425960Y206090D01*
X426019Y206154D01*
X426081Y206216D01*
X426145Y206275D01*
X426212Y206331D01*
X426282Y206384D01*
X426353Y206434D01*
X426427Y206480D01*
X426503Y206524D01*
X426581Y206563D01*
X426661Y206599D01*
X426742Y206632D01*
X426824Y206661D01*
X426908Y206686D01*
X426993Y206707D01*
X427078Y206725D01*
X427165Y206738D01*
X427251Y206748D01*
X427339Y206754D01*
X427426Y206756D01*
X428075Y206756D01*
X432005Y206756D02*
X437198Y198967D01*
X432005Y198967D02*
X437198Y206756D01*
X432421Y103124D02*
X429175Y103124D01*
X429088Y103122D01*
X429000Y103116D01*
X428914Y103106D01*
X428827Y103093D01*
X428742Y103075D01*
X428657Y103054D01*
X428573Y103029D01*
X428491Y103000D01*
X428410Y102967D01*
X428330Y102931D01*
X428252Y102892D01*
X428176Y102848D01*
X428102Y102802D01*
X428031Y102752D01*
X427961Y102699D01*
X427894Y102643D01*
X427830Y102584D01*
X427768Y102522D01*
X427709Y102458D01*
X427653Y102391D01*
X427600Y102321D01*
X427550Y102250D01*
X427504Y102176D01*
X427460Y102100D01*
X427421Y102022D01*
X427385Y101942D01*
X427352Y101861D01*
X427323Y101779D01*
X427298Y101695D01*
X427277Y101610D01*
X427259Y101525D01*
X427246Y101438D01*
X427236Y101352D01*
X427230Y101264D01*
X427228Y101177D01*
X427228Y97282D01*
X427230Y97195D01*
X427236Y97107D01*
X427246Y97021D01*
X427259Y96934D01*
X427277Y96849D01*
X427298Y96764D01*
X427323Y96680D01*
X427352Y96598D01*
X427385Y96517D01*
X427421Y96437D01*
X427460Y96359D01*
X427504Y96283D01*
X427550Y96209D01*
X427600Y96138D01*
X427653Y96068D01*
X427709Y96001D01*
X427768Y95937D01*
X427830Y95875D01*
X427894Y95816D01*
X427961Y95760D01*
X428031Y95707D01*
X428102Y95657D01*
X428176Y95611D01*
X428252Y95567D01*
X428330Y95528D01*
X428410Y95492D01*
X428491Y95459D01*
X428573Y95430D01*
X428657Y95405D01*
X428742Y95384D01*
X428827Y95366D01*
X428914Y95353D01*
X429000Y95343D01*
X429088Y95337D01*
X429175Y95335D01*
X432421Y95335D01*
X432421Y105071D01*
X432419Y105158D01*
X432413Y105246D01*
X432403Y105332D01*
X432390Y105419D01*
X432372Y105504D01*
X432351Y105589D01*
X432326Y105673D01*
X432297Y105755D01*
X432264Y105836D01*
X432228Y105916D01*
X432189Y105994D01*
X432145Y106070D01*
X432099Y106144D01*
X432049Y106215D01*
X431996Y106285D01*
X431940Y106352D01*
X431881Y106416D01*
X431819Y106478D01*
X431755Y106537D01*
X431688Y106593D01*
X431618Y106646D01*
X431547Y106696D01*
X431473Y106742D01*
X431397Y106786D01*
X431319Y106825D01*
X431239Y106861D01*
X431158Y106894D01*
X431076Y106923D01*
X430992Y106948D01*
X430907Y106969D01*
X430822Y106987D01*
X430735Y107000D01*
X430649Y107010D01*
X430561Y107016D01*
X430474Y107018D01*
X430474Y107019D02*
X427877Y107019D01*
X437955Y103124D02*
X437955Y95335D01*
X441200Y95335D01*
X441287Y95337D01*
X441375Y95343D01*
X441461Y95353D01*
X441548Y95366D01*
X441633Y95384D01*
X441718Y95405D01*
X441802Y95430D01*
X441884Y95459D01*
X441965Y95492D01*
X442045Y95528D01*
X442123Y95567D01*
X442199Y95611D01*
X442273Y95657D01*
X442344Y95707D01*
X442414Y95760D01*
X442481Y95816D01*
X442545Y95875D01*
X442607Y95936D01*
X442666Y96001D01*
X442722Y96068D01*
X442775Y96138D01*
X442825Y96209D01*
X442871Y96283D01*
X442915Y96359D01*
X442954Y96437D01*
X442990Y96517D01*
X443023Y96598D01*
X443052Y96680D01*
X443077Y96764D01*
X443098Y96849D01*
X443116Y96934D01*
X443129Y97021D01*
X443139Y97107D01*
X443145Y97195D01*
X443147Y97282D01*
X443148Y97282D02*
X443148Y103124D01*
X453376Y103124D02*
X453376Y91440D01*
X453376Y103124D02*
X450130Y103124D01*
X450043Y103122D01*
X449955Y103116D01*
X449869Y103106D01*
X449782Y103093D01*
X449697Y103075D01*
X449612Y103054D01*
X449528Y103029D01*
X449446Y103000D01*
X449365Y102967D01*
X449285Y102931D01*
X449207Y102892D01*
X449131Y102848D01*
X449057Y102802D01*
X448986Y102752D01*
X448916Y102699D01*
X448849Y102643D01*
X448785Y102584D01*
X448723Y102522D01*
X448664Y102458D01*
X448608Y102391D01*
X448555Y102321D01*
X448505Y102250D01*
X448459Y102176D01*
X448415Y102100D01*
X448376Y102022D01*
X448340Y101942D01*
X448307Y101861D01*
X448278Y101779D01*
X448253Y101695D01*
X448232Y101610D01*
X448214Y101525D01*
X448201Y101438D01*
X448191Y101352D01*
X448185Y101264D01*
X448183Y101177D01*
X448183Y97282D01*
X448185Y97195D01*
X448191Y97107D01*
X448201Y97021D01*
X448214Y96934D01*
X448232Y96849D01*
X448253Y96764D01*
X448278Y96680D01*
X448307Y96598D01*
X448340Y96517D01*
X448376Y96437D01*
X448415Y96359D01*
X448459Y96283D01*
X448505Y96209D01*
X448555Y96138D01*
X448608Y96068D01*
X448664Y96001D01*
X448723Y95937D01*
X448785Y95875D01*
X448849Y95816D01*
X448916Y95760D01*
X448986Y95707D01*
X449057Y95657D01*
X449131Y95611D01*
X449207Y95567D01*
X449285Y95528D01*
X449365Y95492D01*
X449446Y95459D01*
X449528Y95430D01*
X449612Y95405D01*
X449697Y95384D01*
X449782Y95366D01*
X449869Y95353D01*
X449955Y95343D01*
X450043Y95337D01*
X450130Y95335D01*
X453376Y95335D01*
X427228Y122767D02*
X429824Y130556D01*
X432421Y122767D01*
X438714Y130556D02*
X441310Y130556D01*
X438714Y130556D02*
X438627Y130554D01*
X438539Y130548D01*
X438453Y130538D01*
X438366Y130525D01*
X438281Y130507D01*
X438196Y130486D01*
X438112Y130461D01*
X438030Y130432D01*
X437949Y130399D01*
X437869Y130363D01*
X437791Y130324D01*
X437715Y130280D01*
X437641Y130234D01*
X437570Y130184D01*
X437500Y130131D01*
X437433Y130075D01*
X437369Y130016D01*
X437307Y129954D01*
X437248Y129890D01*
X437192Y129823D01*
X437139Y129753D01*
X437089Y129682D01*
X437043Y129608D01*
X436999Y129532D01*
X436960Y129454D01*
X436924Y129374D01*
X436891Y129293D01*
X436862Y129211D01*
X436837Y129127D01*
X436816Y129042D01*
X436798Y128957D01*
X436785Y128870D01*
X436775Y128784D01*
X436769Y128696D01*
X436767Y128609D01*
X436766Y128609D02*
X436766Y124714D01*
X436767Y124714D02*
X436769Y124627D01*
X436775Y124539D01*
X436785Y124453D01*
X436798Y124366D01*
X436816Y124281D01*
X436837Y124196D01*
X436862Y124112D01*
X436891Y124030D01*
X436924Y123949D01*
X436960Y123869D01*
X436999Y123791D01*
X437043Y123715D01*
X437089Y123641D01*
X437139Y123570D01*
X437192Y123500D01*
X437248Y123433D01*
X437307Y123369D01*
X437369Y123307D01*
X437433Y123248D01*
X437500Y123192D01*
X437570Y123139D01*
X437641Y123089D01*
X437715Y123043D01*
X437791Y122999D01*
X437869Y122960D01*
X437949Y122924D01*
X438030Y122891D01*
X438112Y122862D01*
X438196Y122837D01*
X438281Y122816D01*
X438366Y122798D01*
X438453Y122785D01*
X438539Y122775D01*
X438627Y122769D01*
X438714Y122767D01*
X441310Y122767D01*
X447477Y130556D02*
X450073Y130556D01*
X447477Y130556D02*
X447390Y130554D01*
X447302Y130548D01*
X447216Y130538D01*
X447129Y130525D01*
X447044Y130507D01*
X446959Y130486D01*
X446875Y130461D01*
X446793Y130432D01*
X446712Y130399D01*
X446632Y130363D01*
X446554Y130324D01*
X446478Y130280D01*
X446404Y130234D01*
X446333Y130184D01*
X446263Y130131D01*
X446196Y130075D01*
X446132Y130016D01*
X446070Y129954D01*
X446011Y129890D01*
X445955Y129823D01*
X445902Y129753D01*
X445852Y129682D01*
X445806Y129608D01*
X445762Y129532D01*
X445723Y129454D01*
X445687Y129374D01*
X445654Y129293D01*
X445625Y129211D01*
X445600Y129127D01*
X445579Y129042D01*
X445561Y128957D01*
X445548Y128870D01*
X445538Y128784D01*
X445532Y128696D01*
X445530Y128609D01*
X445529Y128609D02*
X445529Y124714D01*
X445530Y124714D02*
X445532Y124627D01*
X445538Y124539D01*
X445548Y124453D01*
X445561Y124366D01*
X445579Y124281D01*
X445600Y124196D01*
X445625Y124112D01*
X445654Y124030D01*
X445687Y123949D01*
X445723Y123869D01*
X445762Y123791D01*
X445806Y123715D01*
X445852Y123641D01*
X445902Y123570D01*
X445955Y123500D01*
X446011Y123433D01*
X446070Y123369D01*
X446132Y123307D01*
X446196Y123248D01*
X446263Y123192D01*
X446333Y123139D01*
X446404Y123089D01*
X446478Y123043D01*
X446554Y122999D01*
X446632Y122960D01*
X446712Y122924D01*
X446793Y122891D01*
X446875Y122862D01*
X446959Y122837D01*
X447044Y122816D01*
X447129Y122798D01*
X447216Y122785D01*
X447302Y122775D01*
X447390Y122769D01*
X447477Y122767D01*
X450073Y122767D01*
D12*
X274372Y233872D02*
X274372Y265872D01*
X225372Y265872D01*
X225372Y233872D01*
X274372Y233872D01*
X275672Y230372D02*
X275672Y215372D01*
D13*
X268100Y7554D02*
X274450Y1204D01*
X287150Y1204D01*
X293500Y7554D01*
X293500Y20254D02*
X287150Y26604D01*
X274450Y26604D01*
X268100Y20254D01*
X236350Y1204D02*
X223650Y1204D01*
X236350Y1204D02*
X242700Y7554D01*
X242700Y20254D02*
X236350Y26604D01*
X242700Y7554D02*
X249050Y1204D01*
X261750Y1204D01*
X268100Y7554D01*
X268100Y20254D02*
X261750Y26604D01*
X249050Y26604D01*
X242700Y20254D01*
X217300Y20254D02*
X217300Y7554D01*
X223650Y1204D01*
X217300Y20254D02*
X223650Y26604D01*
X236350Y26604D01*
X293500Y20254D02*
X293500Y7554D01*
X114600Y447300D02*
X114600Y472400D01*
X124600Y434600D02*
X155400Y434600D01*
X165400Y447600D02*
X165400Y472400D01*
X155400Y485400D02*
X124600Y485400D01*
X127300Y460000D02*
X127304Y460312D01*
X127315Y460623D01*
X127334Y460934D01*
X127361Y461245D01*
X127396Y461555D01*
X127437Y461863D01*
X127487Y462171D01*
X127544Y462478D01*
X127609Y462783D01*
X127681Y463086D01*
X127760Y463387D01*
X127847Y463687D01*
X127941Y463984D01*
X128042Y464279D01*
X128151Y464571D01*
X128267Y464860D01*
X128390Y465147D01*
X128519Y465430D01*
X128656Y465710D01*
X128800Y465987D01*
X128950Y466260D01*
X129107Y466529D01*
X129270Y466794D01*
X129440Y467056D01*
X129617Y467313D01*
X129799Y467565D01*
X129988Y467813D01*
X130183Y468057D01*
X130383Y468295D01*
X130590Y468529D01*
X130802Y468757D01*
X131020Y468980D01*
X131243Y469198D01*
X131471Y469410D01*
X131705Y469617D01*
X131943Y469817D01*
X132187Y470012D01*
X132435Y470201D01*
X132687Y470383D01*
X132944Y470560D01*
X133206Y470730D01*
X133471Y470893D01*
X133740Y471050D01*
X134013Y471200D01*
X134290Y471344D01*
X134570Y471481D01*
X134853Y471610D01*
X135140Y471733D01*
X135429Y471849D01*
X135721Y471958D01*
X136016Y472059D01*
X136313Y472153D01*
X136613Y472240D01*
X136914Y472319D01*
X137217Y472391D01*
X137522Y472456D01*
X137829Y472513D01*
X138137Y472563D01*
X138445Y472604D01*
X138755Y472639D01*
X139066Y472666D01*
X139377Y472685D01*
X139688Y472696D01*
X140000Y472700D01*
X140312Y472696D01*
X140623Y472685D01*
X140934Y472666D01*
X141245Y472639D01*
X141555Y472604D01*
X141863Y472563D01*
X142171Y472513D01*
X142478Y472456D01*
X142783Y472391D01*
X143086Y472319D01*
X143387Y472240D01*
X143687Y472153D01*
X143984Y472059D01*
X144279Y471958D01*
X144571Y471849D01*
X144860Y471733D01*
X145147Y471610D01*
X145430Y471481D01*
X145710Y471344D01*
X145987Y471200D01*
X146260Y471050D01*
X146529Y470893D01*
X146794Y470730D01*
X147056Y470560D01*
X147313Y470383D01*
X147565Y470201D01*
X147813Y470012D01*
X148057Y469817D01*
X148295Y469617D01*
X148529Y469410D01*
X148757Y469198D01*
X148980Y468980D01*
X149198Y468757D01*
X149410Y468529D01*
X149617Y468295D01*
X149817Y468057D01*
X150012Y467813D01*
X150201Y467565D01*
X150383Y467313D01*
X150560Y467056D01*
X150730Y466794D01*
X150893Y466529D01*
X151050Y466260D01*
X151200Y465987D01*
X151344Y465710D01*
X151481Y465430D01*
X151610Y465147D01*
X151733Y464860D01*
X151849Y464571D01*
X151958Y464279D01*
X152059Y463984D01*
X152153Y463687D01*
X152240Y463387D01*
X152319Y463086D01*
X152391Y462783D01*
X152456Y462478D01*
X152513Y462171D01*
X152563Y461863D01*
X152604Y461555D01*
X152639Y461245D01*
X152666Y460934D01*
X152685Y460623D01*
X152696Y460312D01*
X152700Y460000D01*
X152696Y459688D01*
X152685Y459377D01*
X152666Y459066D01*
X152639Y458755D01*
X152604Y458445D01*
X152563Y458137D01*
X152513Y457829D01*
X152456Y457522D01*
X152391Y457217D01*
X152319Y456914D01*
X152240Y456613D01*
X152153Y456313D01*
X152059Y456016D01*
X151958Y455721D01*
X151849Y455429D01*
X151733Y455140D01*
X151610Y454853D01*
X151481Y454570D01*
X151344Y454290D01*
X151200Y454013D01*
X151050Y453740D01*
X150893Y453471D01*
X150730Y453206D01*
X150560Y452944D01*
X150383Y452687D01*
X150201Y452435D01*
X150012Y452187D01*
X149817Y451943D01*
X149617Y451705D01*
X149410Y451471D01*
X149198Y451243D01*
X148980Y451020D01*
X148757Y450802D01*
X148529Y450590D01*
X148295Y450383D01*
X148057Y450183D01*
X147813Y449988D01*
X147565Y449799D01*
X147313Y449617D01*
X147056Y449440D01*
X146794Y449270D01*
X146529Y449107D01*
X146260Y448950D01*
X145987Y448800D01*
X145710Y448656D01*
X145430Y448519D01*
X145147Y448390D01*
X144860Y448267D01*
X144571Y448151D01*
X144279Y448042D01*
X143984Y447941D01*
X143687Y447847D01*
X143387Y447760D01*
X143086Y447681D01*
X142783Y447609D01*
X142478Y447544D01*
X142171Y447487D01*
X141863Y447437D01*
X141555Y447396D01*
X141245Y447361D01*
X140934Y447334D01*
X140623Y447315D01*
X140312Y447304D01*
X140000Y447300D01*
X139688Y447304D01*
X139377Y447315D01*
X139066Y447334D01*
X138755Y447361D01*
X138445Y447396D01*
X138137Y447437D01*
X137829Y447487D01*
X137522Y447544D01*
X137217Y447609D01*
X136914Y447681D01*
X136613Y447760D01*
X136313Y447847D01*
X136016Y447941D01*
X135721Y448042D01*
X135429Y448151D01*
X135140Y448267D01*
X134853Y448390D01*
X134570Y448519D01*
X134290Y448656D01*
X134013Y448800D01*
X133740Y448950D01*
X133471Y449107D01*
X133206Y449270D01*
X132944Y449440D01*
X132687Y449617D01*
X132435Y449799D01*
X132187Y449988D01*
X131943Y450183D01*
X131705Y450383D01*
X131471Y450590D01*
X131243Y450802D01*
X131020Y451020D01*
X130802Y451243D01*
X130590Y451471D01*
X130383Y451705D01*
X130183Y451943D01*
X129988Y452187D01*
X129799Y452435D01*
X129617Y452687D01*
X129440Y452944D01*
X129270Y453206D01*
X129107Y453471D01*
X128950Y453740D01*
X128800Y454013D01*
X128656Y454290D01*
X128519Y454570D01*
X128390Y454853D01*
X128267Y455140D01*
X128151Y455429D01*
X128042Y455721D01*
X127941Y456016D01*
X127847Y456313D01*
X127760Y456613D01*
X127681Y456914D01*
X127609Y457217D01*
X127544Y457522D01*
X127487Y457829D01*
X127437Y458137D01*
X127396Y458445D01*
X127361Y458755D01*
X127334Y459066D01*
X127315Y459377D01*
X127304Y459688D01*
X127300Y460000D01*
D14*
X134772Y439130D02*
X134774Y439075D01*
X134779Y439019D01*
X134788Y438965D01*
X134801Y438911D01*
X134817Y438858D01*
X134836Y438806D01*
X134859Y438755D01*
X134885Y438707D01*
X134915Y438659D01*
X134947Y438614D01*
X134982Y438572D01*
X135020Y438531D01*
X135061Y438493D01*
X135103Y438458D01*
X135148Y438426D01*
X135196Y438396D01*
X135244Y438370D01*
X135295Y438347D01*
X135347Y438328D01*
X135400Y438312D01*
X135454Y438299D01*
X135508Y438290D01*
X135564Y438285D01*
X135619Y438283D01*
X135702Y438285D01*
X135785Y438291D01*
X135867Y438300D01*
X135949Y438314D01*
X136031Y438331D01*
X136111Y438352D01*
X136190Y438377D01*
X136269Y438405D01*
X136345Y438437D01*
X136420Y438473D01*
X136494Y438511D01*
X136565Y438554D01*
X136635Y438599D01*
X136702Y438648D01*
X136767Y438700D01*
X136829Y438755D01*
X136889Y438812D01*
X136784Y441246D02*
X136782Y441301D01*
X136777Y441357D01*
X136768Y441411D01*
X136755Y441465D01*
X136739Y441518D01*
X136720Y441570D01*
X136697Y441621D01*
X136671Y441670D01*
X136641Y441717D01*
X136609Y441762D01*
X136574Y441804D01*
X136536Y441845D01*
X136495Y441883D01*
X136453Y441918D01*
X136408Y441950D01*
X136361Y441980D01*
X136312Y442006D01*
X136261Y442029D01*
X136209Y442048D01*
X136156Y442064D01*
X136102Y442077D01*
X136048Y442086D01*
X135992Y442091D01*
X135937Y442093D01*
X135937Y442094D02*
X135858Y442092D01*
X135780Y442086D01*
X135702Y442077D01*
X135625Y442063D01*
X135548Y442046D01*
X135472Y442024D01*
X135398Y442000D01*
X135324Y441971D01*
X135253Y441939D01*
X135183Y441903D01*
X135114Y441864D01*
X135048Y441822D01*
X134984Y441776D01*
X136361Y440505D02*
X136408Y440535D01*
X136453Y440568D01*
X136496Y440604D01*
X136536Y440642D01*
X136574Y440683D01*
X136609Y440726D01*
X136641Y440772D01*
X136671Y440819D01*
X136697Y440869D01*
X136720Y440920D01*
X136739Y440972D01*
X136755Y441025D01*
X136768Y441080D01*
X136777Y441135D01*
X136782Y441190D01*
X136784Y441246D01*
X135196Y439871D02*
X135149Y439841D01*
X135104Y439808D01*
X135061Y439772D01*
X135021Y439734D01*
X134983Y439693D01*
X134948Y439650D01*
X134916Y439604D01*
X134886Y439557D01*
X134860Y439507D01*
X134837Y439456D01*
X134818Y439404D01*
X134802Y439351D01*
X134789Y439296D01*
X134780Y439241D01*
X134775Y439186D01*
X134773Y439130D01*
X135196Y439871D02*
X136360Y440506D01*
X133354Y441246D02*
X132295Y442093D01*
X132295Y438283D01*
X131237Y438283D02*
X133354Y438283D01*
D13*
X214600Y447300D02*
X214600Y472400D01*
X224600Y434600D02*
X255400Y434600D01*
X265400Y447600D02*
X265400Y472400D01*
X255400Y485400D02*
X224600Y485400D01*
X227300Y460000D02*
X227304Y460312D01*
X227315Y460623D01*
X227334Y460934D01*
X227361Y461245D01*
X227396Y461555D01*
X227437Y461863D01*
X227487Y462171D01*
X227544Y462478D01*
X227609Y462783D01*
X227681Y463086D01*
X227760Y463387D01*
X227847Y463687D01*
X227941Y463984D01*
X228042Y464279D01*
X228151Y464571D01*
X228267Y464860D01*
X228390Y465147D01*
X228519Y465430D01*
X228656Y465710D01*
X228800Y465987D01*
X228950Y466260D01*
X229107Y466529D01*
X229270Y466794D01*
X229440Y467056D01*
X229617Y467313D01*
X229799Y467565D01*
X229988Y467813D01*
X230183Y468057D01*
X230383Y468295D01*
X230590Y468529D01*
X230802Y468757D01*
X231020Y468980D01*
X231243Y469198D01*
X231471Y469410D01*
X231705Y469617D01*
X231943Y469817D01*
X232187Y470012D01*
X232435Y470201D01*
X232687Y470383D01*
X232944Y470560D01*
X233206Y470730D01*
X233471Y470893D01*
X233740Y471050D01*
X234013Y471200D01*
X234290Y471344D01*
X234570Y471481D01*
X234853Y471610D01*
X235140Y471733D01*
X235429Y471849D01*
X235721Y471958D01*
X236016Y472059D01*
X236313Y472153D01*
X236613Y472240D01*
X236914Y472319D01*
X237217Y472391D01*
X237522Y472456D01*
X237829Y472513D01*
X238137Y472563D01*
X238445Y472604D01*
X238755Y472639D01*
X239066Y472666D01*
X239377Y472685D01*
X239688Y472696D01*
X240000Y472700D01*
X240312Y472696D01*
X240623Y472685D01*
X240934Y472666D01*
X241245Y472639D01*
X241555Y472604D01*
X241863Y472563D01*
X242171Y472513D01*
X242478Y472456D01*
X242783Y472391D01*
X243086Y472319D01*
X243387Y472240D01*
X243687Y472153D01*
X243984Y472059D01*
X244279Y471958D01*
X244571Y471849D01*
X244860Y471733D01*
X245147Y471610D01*
X245430Y471481D01*
X245710Y471344D01*
X245987Y471200D01*
X246260Y471050D01*
X246529Y470893D01*
X246794Y470730D01*
X247056Y470560D01*
X247313Y470383D01*
X247565Y470201D01*
X247813Y470012D01*
X248057Y469817D01*
X248295Y469617D01*
X248529Y469410D01*
X248757Y469198D01*
X248980Y468980D01*
X249198Y468757D01*
X249410Y468529D01*
X249617Y468295D01*
X249817Y468057D01*
X250012Y467813D01*
X250201Y467565D01*
X250383Y467313D01*
X250560Y467056D01*
X250730Y466794D01*
X250893Y466529D01*
X251050Y466260D01*
X251200Y465987D01*
X251344Y465710D01*
X251481Y465430D01*
X251610Y465147D01*
X251733Y464860D01*
X251849Y464571D01*
X251958Y464279D01*
X252059Y463984D01*
X252153Y463687D01*
X252240Y463387D01*
X252319Y463086D01*
X252391Y462783D01*
X252456Y462478D01*
X252513Y462171D01*
X252563Y461863D01*
X252604Y461555D01*
X252639Y461245D01*
X252666Y460934D01*
X252685Y460623D01*
X252696Y460312D01*
X252700Y460000D01*
X252696Y459688D01*
X252685Y459377D01*
X252666Y459066D01*
X252639Y458755D01*
X252604Y458445D01*
X252563Y458137D01*
X252513Y457829D01*
X252456Y457522D01*
X252391Y457217D01*
X252319Y456914D01*
X252240Y456613D01*
X252153Y456313D01*
X252059Y456016D01*
X251958Y455721D01*
X251849Y455429D01*
X251733Y455140D01*
X251610Y454853D01*
X251481Y454570D01*
X251344Y454290D01*
X251200Y454013D01*
X251050Y453740D01*
X250893Y453471D01*
X250730Y453206D01*
X250560Y452944D01*
X250383Y452687D01*
X250201Y452435D01*
X250012Y452187D01*
X249817Y451943D01*
X249617Y451705D01*
X249410Y451471D01*
X249198Y451243D01*
X248980Y451020D01*
X248757Y450802D01*
X248529Y450590D01*
X248295Y450383D01*
X248057Y450183D01*
X247813Y449988D01*
X247565Y449799D01*
X247313Y449617D01*
X247056Y449440D01*
X246794Y449270D01*
X246529Y449107D01*
X246260Y448950D01*
X245987Y448800D01*
X245710Y448656D01*
X245430Y448519D01*
X245147Y448390D01*
X244860Y448267D01*
X244571Y448151D01*
X244279Y448042D01*
X243984Y447941D01*
X243687Y447847D01*
X243387Y447760D01*
X243086Y447681D01*
X242783Y447609D01*
X242478Y447544D01*
X242171Y447487D01*
X241863Y447437D01*
X241555Y447396D01*
X241245Y447361D01*
X240934Y447334D01*
X240623Y447315D01*
X240312Y447304D01*
X240000Y447300D01*
X239688Y447304D01*
X239377Y447315D01*
X239066Y447334D01*
X238755Y447361D01*
X238445Y447396D01*
X238137Y447437D01*
X237829Y447487D01*
X237522Y447544D01*
X237217Y447609D01*
X236914Y447681D01*
X236613Y447760D01*
X236313Y447847D01*
X236016Y447941D01*
X235721Y448042D01*
X235429Y448151D01*
X235140Y448267D01*
X234853Y448390D01*
X234570Y448519D01*
X234290Y448656D01*
X234013Y448800D01*
X233740Y448950D01*
X233471Y449107D01*
X233206Y449270D01*
X232944Y449440D01*
X232687Y449617D01*
X232435Y449799D01*
X232187Y449988D01*
X231943Y450183D01*
X231705Y450383D01*
X231471Y450590D01*
X231243Y450802D01*
X231020Y451020D01*
X230802Y451243D01*
X230590Y451471D01*
X230383Y451705D01*
X230183Y451943D01*
X229988Y452187D01*
X229799Y452435D01*
X229617Y452687D01*
X229440Y452944D01*
X229270Y453206D01*
X229107Y453471D01*
X228950Y453740D01*
X228800Y454013D01*
X228656Y454290D01*
X228519Y454570D01*
X228390Y454853D01*
X228267Y455140D01*
X228151Y455429D01*
X228042Y455721D01*
X227941Y456016D01*
X227847Y456313D01*
X227760Y456613D01*
X227681Y456914D01*
X227609Y457217D01*
X227544Y457522D01*
X227487Y457829D01*
X227437Y458137D01*
X227396Y458445D01*
X227361Y458755D01*
X227334Y459066D01*
X227315Y459377D01*
X227304Y459688D01*
X227300Y460000D01*
D14*
X234772Y439130D02*
X234774Y439075D01*
X234779Y439019D01*
X234788Y438965D01*
X234801Y438911D01*
X234817Y438858D01*
X234836Y438806D01*
X234859Y438755D01*
X234885Y438707D01*
X234915Y438659D01*
X234947Y438614D01*
X234982Y438572D01*
X235020Y438531D01*
X235061Y438493D01*
X235103Y438458D01*
X235148Y438426D01*
X235196Y438396D01*
X235244Y438370D01*
X235295Y438347D01*
X235347Y438328D01*
X235400Y438312D01*
X235454Y438299D01*
X235508Y438290D01*
X235564Y438285D01*
X235619Y438283D01*
X235702Y438285D01*
X235785Y438291D01*
X235867Y438300D01*
X235949Y438314D01*
X236031Y438331D01*
X236111Y438352D01*
X236190Y438377D01*
X236269Y438405D01*
X236345Y438437D01*
X236420Y438473D01*
X236494Y438511D01*
X236565Y438554D01*
X236635Y438599D01*
X236702Y438648D01*
X236767Y438700D01*
X236829Y438755D01*
X236889Y438812D01*
X236784Y441246D02*
X236782Y441301D01*
X236777Y441357D01*
X236768Y441411D01*
X236755Y441465D01*
X236739Y441518D01*
X236720Y441570D01*
X236697Y441621D01*
X236671Y441670D01*
X236641Y441717D01*
X236609Y441762D01*
X236574Y441804D01*
X236536Y441845D01*
X236495Y441883D01*
X236453Y441918D01*
X236408Y441950D01*
X236361Y441980D01*
X236312Y442006D01*
X236261Y442029D01*
X236209Y442048D01*
X236156Y442064D01*
X236102Y442077D01*
X236048Y442086D01*
X235992Y442091D01*
X235937Y442093D01*
X235937Y442094D02*
X235858Y442092D01*
X235780Y442086D01*
X235702Y442077D01*
X235625Y442063D01*
X235548Y442046D01*
X235472Y442024D01*
X235398Y442000D01*
X235324Y441971D01*
X235253Y441939D01*
X235183Y441903D01*
X235114Y441864D01*
X235048Y441822D01*
X234984Y441776D01*
X236361Y440505D02*
X236408Y440535D01*
X236453Y440568D01*
X236496Y440604D01*
X236536Y440642D01*
X236574Y440683D01*
X236609Y440726D01*
X236641Y440772D01*
X236671Y440819D01*
X236697Y440869D01*
X236720Y440920D01*
X236739Y440972D01*
X236755Y441025D01*
X236768Y441080D01*
X236777Y441135D01*
X236782Y441190D01*
X236784Y441246D01*
X235196Y439871D02*
X235149Y439841D01*
X235104Y439808D01*
X235061Y439772D01*
X235021Y439734D01*
X234983Y439693D01*
X234948Y439650D01*
X234916Y439604D01*
X234886Y439557D01*
X234860Y439507D01*
X234837Y439456D01*
X234818Y439404D01*
X234802Y439351D01*
X234789Y439296D01*
X234780Y439241D01*
X234775Y439186D01*
X234773Y439130D01*
X235196Y439871D02*
X236360Y440506D01*
X232190Y442094D02*
X232130Y442092D01*
X232071Y442086D01*
X232011Y442077D01*
X231953Y442064D01*
X231896Y442047D01*
X231839Y442027D01*
X231784Y442003D01*
X231731Y441976D01*
X231679Y441946D01*
X231630Y441912D01*
X231583Y441875D01*
X231538Y441836D01*
X231495Y441793D01*
X231456Y441748D01*
X231419Y441701D01*
X231385Y441652D01*
X231355Y441600D01*
X231328Y441547D01*
X231304Y441492D01*
X231284Y441435D01*
X231267Y441378D01*
X231254Y441320D01*
X231245Y441260D01*
X231239Y441201D01*
X231237Y441141D01*
X232190Y442093D02*
X232257Y442091D01*
X232324Y442086D01*
X232390Y442077D01*
X232456Y442064D01*
X232520Y442048D01*
X232584Y442028D01*
X232647Y442004D01*
X232709Y441978D01*
X232768Y441948D01*
X232826Y441915D01*
X232883Y441878D01*
X232937Y441839D01*
X232989Y441797D01*
X233038Y441752D01*
X233085Y441704D01*
X233129Y441654D01*
X233171Y441601D01*
X233209Y441546D01*
X233245Y441490D01*
X233277Y441431D01*
X233306Y441371D01*
X233332Y441309D01*
X233354Y441246D01*
X231554Y440400D02*
X231513Y440442D01*
X231474Y440487D01*
X231437Y440533D01*
X231403Y440582D01*
X231372Y440632D01*
X231345Y440684D01*
X231320Y440738D01*
X231298Y440793D01*
X231279Y440849D01*
X231264Y440906D01*
X231252Y440964D01*
X231244Y441023D01*
X231239Y441082D01*
X231237Y441141D01*
X231555Y440400D02*
X233354Y438283D01*
X231237Y438283D01*
D13*
X473650Y287300D02*
X486350Y287300D01*
X486350Y414300D02*
X473650Y414300D01*
X473650Y167300D02*
X486350Y167300D01*
X486350Y268900D02*
X473650Y268900D01*
X310729Y484000D02*
X297079Y484000D01*
X320983Y484000D02*
X334633Y484000D01*
D15*
X100000Y250000D02*
X100045Y253681D01*
X100181Y257360D01*
X100406Y261035D01*
X100722Y264703D01*
X101128Y268362D01*
X101624Y272010D01*
X102208Y275644D01*
X102882Y279264D01*
X103645Y282865D01*
X104495Y286447D01*
X105434Y290007D01*
X106459Y293543D01*
X107571Y297052D01*
X108768Y300533D01*
X110051Y303984D01*
X111418Y307403D01*
X112869Y310786D01*
X114402Y314133D01*
X116016Y317442D01*
X117712Y320710D01*
X119487Y323935D01*
X121341Y327115D01*
X123272Y330250D01*
X125280Y333336D01*
X127362Y336371D01*
X129519Y339355D01*
X131748Y342285D01*
X134048Y345159D01*
X136419Y347976D01*
X138857Y350734D01*
X141363Y353431D01*
X143934Y356066D01*
X146569Y358637D01*
X149266Y361143D01*
X152024Y363581D01*
X154841Y365952D01*
X157715Y368252D01*
X160645Y370481D01*
X163629Y372638D01*
X166664Y374720D01*
X169750Y376728D01*
X172885Y378659D01*
X176065Y380513D01*
X179290Y382288D01*
X182558Y383984D01*
X185867Y385598D01*
X189214Y387131D01*
X192597Y388582D01*
X196016Y389949D01*
X199467Y391232D01*
X202948Y392429D01*
X206457Y393541D01*
X209993Y394566D01*
X213553Y395505D01*
X217135Y396355D01*
X220736Y397118D01*
X224356Y397792D01*
X227990Y398376D01*
X231638Y398872D01*
X235297Y399278D01*
X238965Y399594D01*
X242640Y399819D01*
X246319Y399955D01*
X250000Y400000D01*
X253681Y399955D01*
X257360Y399819D01*
X261035Y399594D01*
X264703Y399278D01*
X268362Y398872D01*
X272010Y398376D01*
X275644Y397792D01*
X279264Y397118D01*
X282865Y396355D01*
X286447Y395505D01*
X290007Y394566D01*
X293543Y393541D01*
X297052Y392429D01*
X300533Y391232D01*
X303984Y389949D01*
X307403Y388582D01*
X310786Y387131D01*
X314133Y385598D01*
X317442Y383984D01*
X320710Y382288D01*
X323935Y380513D01*
X327115Y378659D01*
X330250Y376728D01*
X333336Y374720D01*
X336371Y372638D01*
X339355Y370481D01*
X342285Y368252D01*
X345159Y365952D01*
X347976Y363581D01*
X350734Y361143D01*
X353431Y358637D01*
X356066Y356066D01*
X358637Y353431D01*
X361143Y350734D01*
X363581Y347976D01*
X365952Y345159D01*
X368252Y342285D01*
X370481Y339355D01*
X372638Y336371D01*
X374720Y333336D01*
X376728Y330250D01*
X378659Y327115D01*
X380513Y323935D01*
X382288Y320710D01*
X383984Y317442D01*
X385598Y314133D01*
X387131Y310786D01*
X388582Y307403D01*
X389949Y303984D01*
X391232Y300533D01*
X392429Y297052D01*
X393541Y293543D01*
X394566Y290007D01*
X395505Y286447D01*
X396355Y282865D01*
X397118Y279264D01*
X397792Y275644D01*
X398376Y272010D01*
X398872Y268362D01*
X399278Y264703D01*
X399594Y261035D01*
X399819Y257360D01*
X399955Y253681D01*
X400000Y250000D01*
X399955Y246319D01*
X399819Y242640D01*
X399594Y238965D01*
X399278Y235297D01*
X398872Y231638D01*
X398376Y227990D01*
X397792Y224356D01*
X397118Y220736D01*
X396355Y217135D01*
X395505Y213553D01*
X394566Y209993D01*
X393541Y206457D01*
X392429Y202948D01*
X391232Y199467D01*
X389949Y196016D01*
X388582Y192597D01*
X387131Y189214D01*
X385598Y185867D01*
X383984Y182558D01*
X382288Y179290D01*
X380513Y176065D01*
X378659Y172885D01*
X376728Y169750D01*
X374720Y166664D01*
X372638Y163629D01*
X370481Y160645D01*
X368252Y157715D01*
X365952Y154841D01*
X363581Y152024D01*
X361143Y149266D01*
X358637Y146569D01*
X356066Y143934D01*
X353431Y141363D01*
X350734Y138857D01*
X347976Y136419D01*
X345159Y134048D01*
X342285Y131748D01*
X339355Y129519D01*
X336371Y127362D01*
X333336Y125280D01*
X330250Y123272D01*
X327115Y121341D01*
X323935Y119487D01*
X320710Y117712D01*
X317442Y116016D01*
X314133Y114402D01*
X310786Y112869D01*
X307403Y111418D01*
X303984Y110051D01*
X300533Y108768D01*
X297052Y107571D01*
X293543Y106459D01*
X290007Y105434D01*
X286447Y104495D01*
X282865Y103645D01*
X279264Y102882D01*
X275644Y102208D01*
X272010Y101624D01*
X268362Y101128D01*
X264703Y100722D01*
X261035Y100406D01*
X257360Y100181D01*
X253681Y100045D01*
X250000Y100000D01*
X246319Y100045D01*
X242640Y100181D01*
X238965Y100406D01*
X235297Y100722D01*
X231638Y101128D01*
X227990Y101624D01*
X224356Y102208D01*
X220736Y102882D01*
X217135Y103645D01*
X213553Y104495D01*
X209993Y105434D01*
X206457Y106459D01*
X202948Y107571D01*
X199467Y108768D01*
X196016Y110051D01*
X192597Y111418D01*
X189214Y112869D01*
X185867Y114402D01*
X182558Y116016D01*
X179290Y117712D01*
X176065Y119487D01*
X172885Y121341D01*
X169750Y123272D01*
X166664Y125280D01*
X163629Y127362D01*
X160645Y129519D01*
X157715Y131748D01*
X154841Y134048D01*
X152024Y136419D01*
X149266Y138857D01*
X146569Y141363D01*
X143934Y143934D01*
X141363Y146569D01*
X138857Y149266D01*
X136419Y152024D01*
X134048Y154841D01*
X131748Y157715D01*
X129519Y160645D01*
X127362Y163629D01*
X125280Y166664D01*
X123272Y169750D01*
X121341Y172885D01*
X119487Y176065D01*
X117712Y179290D01*
X116016Y182558D01*
X114402Y185867D01*
X112869Y189214D01*
X111418Y192597D01*
X110051Y196016D01*
X108768Y199467D01*
X107571Y202948D01*
X106459Y206457D01*
X105434Y209993D01*
X104495Y213553D01*
X103645Y217135D01*
X102882Y220736D01*
X102208Y224356D01*
X101624Y227990D01*
X101128Y231638D01*
X100722Y235297D01*
X100406Y238965D01*
X100181Y242640D01*
X100045Y246319D01*
X100000Y250000D01*
X110000Y250000D02*
X110042Y253436D01*
X110169Y256869D01*
X110379Y260299D01*
X110674Y263722D01*
X111053Y267137D01*
X111515Y270542D01*
X112061Y273935D01*
X112690Y277313D01*
X113402Y280674D01*
X114196Y284017D01*
X115071Y287340D01*
X116028Y290640D01*
X117066Y293915D01*
X118184Y297165D01*
X119381Y300385D01*
X120657Y303576D01*
X122011Y306734D01*
X123441Y309858D01*
X124949Y312946D01*
X126531Y315996D01*
X128188Y319006D01*
X129918Y321974D01*
X131721Y324900D01*
X133594Y327780D01*
X135538Y330613D01*
X137551Y333398D01*
X139632Y336132D01*
X141779Y338815D01*
X143991Y341444D01*
X146267Y344018D01*
X148605Y346536D01*
X151005Y348995D01*
X153464Y351395D01*
X155982Y353733D01*
X158556Y356009D01*
X161185Y358221D01*
X163868Y360368D01*
X166602Y362449D01*
X169387Y364462D01*
X172220Y366406D01*
X175100Y368279D01*
X178026Y370082D01*
X180994Y371812D01*
X184004Y373469D01*
X187054Y375051D01*
X190142Y376559D01*
X193266Y377989D01*
X196424Y379343D01*
X199615Y380619D01*
X202835Y381816D01*
X206085Y382934D01*
X209360Y383972D01*
X212660Y384929D01*
X215983Y385804D01*
X219326Y386598D01*
X222687Y387310D01*
X226065Y387939D01*
X229458Y388485D01*
X232863Y388947D01*
X236278Y389326D01*
X239701Y389621D01*
X243131Y389831D01*
X246564Y389958D01*
X250000Y390000D01*
X253436Y389958D01*
X256869Y389831D01*
X260299Y389621D01*
X263722Y389326D01*
X267137Y388947D01*
X270542Y388485D01*
X273935Y387939D01*
X277313Y387310D01*
X280674Y386598D01*
X284017Y385804D01*
X287340Y384929D01*
X290640Y383972D01*
X293915Y382934D01*
X297165Y381816D01*
X300385Y380619D01*
X303576Y379343D01*
X306734Y377989D01*
X309858Y376559D01*
X312946Y375051D01*
X315996Y373469D01*
X319006Y371812D01*
X321974Y370082D01*
X324900Y368279D01*
X327780Y366406D01*
X330613Y364462D01*
X333398Y362449D01*
X336132Y360368D01*
X338815Y358221D01*
X341444Y356009D01*
X344018Y353733D01*
X346536Y351395D01*
X348995Y348995D01*
X351395Y346536D01*
X353733Y344018D01*
X356009Y341444D01*
X358221Y338815D01*
X360368Y336132D01*
X362449Y333398D01*
X364462Y330613D01*
X366406Y327780D01*
X368279Y324900D01*
X370082Y321974D01*
X371812Y319006D01*
X373469Y315996D01*
X375051Y312946D01*
X376559Y309858D01*
X377989Y306734D01*
X379343Y303576D01*
X380619Y300385D01*
X381816Y297165D01*
X382934Y293915D01*
X383972Y290640D01*
X384929Y287340D01*
X385804Y284017D01*
X386598Y280674D01*
X387310Y277313D01*
X387939Y273935D01*
X388485Y270542D01*
X388947Y267137D01*
X389326Y263722D01*
X389621Y260299D01*
X389831Y256869D01*
X389958Y253436D01*
X390000Y250000D01*
X389958Y246564D01*
X389831Y243131D01*
X389621Y239701D01*
X389326Y236278D01*
X388947Y232863D01*
X388485Y229458D01*
X387939Y226065D01*
X387310Y222687D01*
X386598Y219326D01*
X385804Y215983D01*
X384929Y212660D01*
X383972Y209360D01*
X382934Y206085D01*
X381816Y202835D01*
X380619Y199615D01*
X379343Y196424D01*
X377989Y193266D01*
X376559Y190142D01*
X375051Y187054D01*
X373469Y184004D01*
X371812Y180994D01*
X370082Y178026D01*
X368279Y175100D01*
X366406Y172220D01*
X364462Y169387D01*
X362449Y166602D01*
X360368Y163868D01*
X358221Y161185D01*
X356009Y158556D01*
X353733Y155982D01*
X351395Y153464D01*
X348995Y151005D01*
X346536Y148605D01*
X344018Y146267D01*
X341444Y143991D01*
X338815Y141779D01*
X336132Y139632D01*
X333398Y137551D01*
X330613Y135538D01*
X327780Y133594D01*
X324900Y131721D01*
X321974Y129918D01*
X319006Y128188D01*
X315996Y126531D01*
X312946Y124949D01*
X309858Y123441D01*
X306734Y122011D01*
X303576Y120657D01*
X300385Y119381D01*
X297165Y118184D01*
X293915Y117066D01*
X290640Y116028D01*
X287340Y115071D01*
X284017Y114196D01*
X280674Y113402D01*
X277313Y112690D01*
X273935Y112061D01*
X270542Y111515D01*
X267137Y111053D01*
X263722Y110674D01*
X260299Y110379D01*
X256869Y110169D01*
X253436Y110042D01*
X250000Y110000D01*
X246564Y110042D01*
X243131Y110169D01*
X239701Y110379D01*
X236278Y110674D01*
X232863Y111053D01*
X229458Y111515D01*
X226065Y112061D01*
X222687Y112690D01*
X219326Y113402D01*
X215983Y114196D01*
X212660Y115071D01*
X209360Y116028D01*
X206085Y117066D01*
X202835Y118184D01*
X199615Y119381D01*
X196424Y120657D01*
X193266Y122011D01*
X190142Y123441D01*
X187054Y124949D01*
X184004Y126531D01*
X180994Y128188D01*
X178026Y129918D01*
X175100Y131721D01*
X172220Y133594D01*
X169387Y135538D01*
X166602Y137551D01*
X163868Y139632D01*
X161185Y141779D01*
X158556Y143991D01*
X155982Y146267D01*
X153464Y148605D01*
X151005Y151005D01*
X148605Y153464D01*
X146267Y155982D01*
X143991Y158556D01*
X141779Y161185D01*
X139632Y163868D01*
X137551Y166602D01*
X135538Y169387D01*
X133594Y172220D01*
X131721Y175100D01*
X129918Y178026D01*
X128188Y180994D01*
X126531Y184004D01*
X124949Y187054D01*
X123441Y190142D01*
X122011Y193266D01*
X120657Y196424D01*
X119381Y199615D01*
X118184Y202835D01*
X117066Y206085D01*
X116028Y209360D01*
X115071Y212660D01*
X114196Y215983D01*
X113402Y219326D01*
X112690Y222687D01*
X112061Y226065D01*
X111515Y229458D01*
X111053Y232863D01*
X110674Y236278D01*
X110379Y239701D01*
X110169Y243131D01*
X110042Y246564D01*
X110000Y250000D01*
X230000Y250000D02*
X230006Y250491D01*
X230024Y250981D01*
X230054Y251471D01*
X230096Y251960D01*
X230150Y252448D01*
X230216Y252935D01*
X230294Y253419D01*
X230384Y253902D01*
X230486Y254382D01*
X230599Y254860D01*
X230724Y255334D01*
X230861Y255806D01*
X231009Y256274D01*
X231169Y256738D01*
X231340Y257198D01*
X231522Y257654D01*
X231716Y258105D01*
X231920Y258551D01*
X232136Y258992D01*
X232362Y259428D01*
X232598Y259858D01*
X232845Y260282D01*
X233103Y260700D01*
X233371Y261111D01*
X233648Y261516D01*
X233936Y261914D01*
X234233Y262305D01*
X234540Y262688D01*
X234856Y263063D01*
X235181Y263431D01*
X235515Y263791D01*
X235858Y264142D01*
X236209Y264485D01*
X236569Y264819D01*
X236937Y265144D01*
X237312Y265460D01*
X237695Y265767D01*
X238086Y266064D01*
X238484Y266352D01*
X238889Y266629D01*
X239300Y266897D01*
X239718Y267155D01*
X240142Y267402D01*
X240572Y267638D01*
X241008Y267864D01*
X241449Y268080D01*
X241895Y268284D01*
X242346Y268478D01*
X242802Y268660D01*
X243262Y268831D01*
X243726Y268991D01*
X244194Y269139D01*
X244666Y269276D01*
X245140Y269401D01*
X245618Y269514D01*
X246098Y269616D01*
X246581Y269706D01*
X247065Y269784D01*
X247552Y269850D01*
X248040Y269904D01*
X248529Y269946D01*
X249019Y269976D01*
X249509Y269994D01*
X250000Y270000D01*
X250491Y269994D01*
X250981Y269976D01*
X251471Y269946D01*
X251960Y269904D01*
X252448Y269850D01*
X252935Y269784D01*
X253419Y269706D01*
X253902Y269616D01*
X254382Y269514D01*
X254860Y269401D01*
X255334Y269276D01*
X255806Y269139D01*
X256274Y268991D01*
X256738Y268831D01*
X257198Y268660D01*
X257654Y268478D01*
X258105Y268284D01*
X258551Y268080D01*
X258992Y267864D01*
X259428Y267638D01*
X259858Y267402D01*
X260282Y267155D01*
X260700Y266897D01*
X261111Y266629D01*
X261516Y266352D01*
X261914Y266064D01*
X262305Y265767D01*
X262688Y265460D01*
X263063Y265144D01*
X263431Y264819D01*
X263791Y264485D01*
X264142Y264142D01*
X264485Y263791D01*
X264819Y263431D01*
X265144Y263063D01*
X265460Y262688D01*
X265767Y262305D01*
X266064Y261914D01*
X266352Y261516D01*
X266629Y261111D01*
X266897Y260700D01*
X267155Y260282D01*
X267402Y259858D01*
X267638Y259428D01*
X267864Y258992D01*
X268080Y258551D01*
X268284Y258105D01*
X268478Y257654D01*
X268660Y257198D01*
X268831Y256738D01*
X268991Y256274D01*
X269139Y255806D01*
X269276Y255334D01*
X269401Y254860D01*
X269514Y254382D01*
X269616Y253902D01*
X269706Y253419D01*
X269784Y252935D01*
X269850Y252448D01*
X269904Y251960D01*
X269946Y251471D01*
X269976Y250981D01*
X269994Y250491D01*
X270000Y250000D01*
X269994Y249509D01*
X269976Y249019D01*
X269946Y248529D01*
X269904Y248040D01*
X269850Y247552D01*
X269784Y247065D01*
X269706Y246581D01*
X269616Y246098D01*
X269514Y245618D01*
X269401Y245140D01*
X269276Y244666D01*
X269139Y244194D01*
X268991Y243726D01*
X268831Y243262D01*
X268660Y242802D01*
X268478Y242346D01*
X268284Y241895D01*
X268080Y241449D01*
X267864Y241008D01*
X267638Y240572D01*
X267402Y240142D01*
X267155Y239718D01*
X266897Y239300D01*
X266629Y238889D01*
X266352Y238484D01*
X266064Y238086D01*
X265767Y237695D01*
X265460Y237312D01*
X265144Y236937D01*
X264819Y236569D01*
X264485Y236209D01*
X264142Y235858D01*
X263791Y235515D01*
X263431Y235181D01*
X263063Y234856D01*
X262688Y234540D01*
X262305Y234233D01*
X261914Y233936D01*
X261516Y233648D01*
X261111Y233371D01*
X260700Y233103D01*
X260282Y232845D01*
X259858Y232598D01*
X259428Y232362D01*
X258992Y232136D01*
X258551Y231920D01*
X258105Y231716D01*
X257654Y231522D01*
X257198Y231340D01*
X256738Y231169D01*
X256274Y231009D01*
X255806Y230861D01*
X255334Y230724D01*
X254860Y230599D01*
X254382Y230486D01*
X253902Y230384D01*
X253419Y230294D01*
X252935Y230216D01*
X252448Y230150D01*
X251960Y230096D01*
X251471Y230054D01*
X250981Y230024D01*
X250491Y230006D01*
X250000Y230000D01*
X249509Y230006D01*
X249019Y230024D01*
X248529Y230054D01*
X248040Y230096D01*
X247552Y230150D01*
X247065Y230216D01*
X246581Y230294D01*
X246098Y230384D01*
X245618Y230486D01*
X245140Y230599D01*
X244666Y230724D01*
X244194Y230861D01*
X243726Y231009D01*
X243262Y231169D01*
X242802Y231340D01*
X242346Y231522D01*
X241895Y231716D01*
X241449Y231920D01*
X241008Y232136D01*
X240572Y232362D01*
X240142Y232598D01*
X239718Y232845D01*
X239300Y233103D01*
X238889Y233371D01*
X238484Y233648D01*
X238086Y233936D01*
X237695Y234233D01*
X237312Y234540D01*
X236937Y234856D01*
X236569Y235181D01*
X236209Y235515D01*
X235858Y235858D01*
X235515Y236209D01*
X235181Y236569D01*
X234856Y236937D01*
X234540Y237312D01*
X234233Y237695D01*
X233936Y238086D01*
X233648Y238484D01*
X233371Y238889D01*
X233103Y239300D01*
X232845Y239718D01*
X232598Y240142D01*
X232362Y240572D01*
X232136Y241008D01*
X231920Y241449D01*
X231716Y241895D01*
X231522Y242346D01*
X231340Y242802D01*
X231169Y243262D01*
X231009Y243726D01*
X230861Y244194D01*
X230724Y244666D01*
X230599Y245140D01*
X230486Y245618D01*
X230384Y246098D01*
X230294Y246581D01*
X230216Y247065D01*
X230150Y247552D01*
X230096Y248040D01*
X230054Y248529D01*
X230024Y249019D01*
X230006Y249509D01*
X230000Y250000D01*
X270000Y292500D02*
X270007Y293052D01*
X270027Y293604D01*
X270061Y294155D01*
X270108Y294705D01*
X270169Y295254D01*
X270244Y295801D01*
X270331Y296347D01*
X270432Y296890D01*
X270547Y297430D01*
X270674Y297967D01*
X270815Y298501D01*
X270969Y299031D01*
X271136Y299558D01*
X271315Y300080D01*
X271508Y300598D01*
X271713Y301110D01*
X271930Y301618D01*
X272160Y302120D01*
X272402Y302616D01*
X272657Y303106D01*
X272923Y303590D01*
X273201Y304067D01*
X273491Y304537D01*
X273792Y305000D01*
X274104Y305456D01*
X274428Y305903D01*
X274762Y306343D01*
X275107Y306774D01*
X275463Y307196D01*
X275829Y307610D01*
X276204Y308015D01*
X276590Y308410D01*
X276985Y308796D01*
X277390Y309171D01*
X277804Y309537D01*
X278226Y309893D01*
X278657Y310238D01*
X279097Y310572D01*
X279544Y310896D01*
X280000Y311208D01*
X280463Y311509D01*
X280933Y311799D01*
X281410Y312077D01*
X281894Y312343D01*
X282384Y312598D01*
X282880Y312840D01*
X283382Y313070D01*
X283890Y313287D01*
X284402Y313492D01*
X284920Y313685D01*
X285442Y313864D01*
X285969Y314031D01*
X286499Y314185D01*
X287033Y314326D01*
X287570Y314453D01*
X288110Y314568D01*
X288653Y314669D01*
X289199Y314756D01*
X289746Y314831D01*
X290295Y314892D01*
X290845Y314939D01*
X291396Y314973D01*
X291948Y314993D01*
X292500Y315000D01*
X293052Y314993D01*
X293604Y314973D01*
X294155Y314939D01*
X294705Y314892D01*
X295254Y314831D01*
X295801Y314756D01*
X296347Y314669D01*
X296890Y314568D01*
X297430Y314453D01*
X297967Y314326D01*
X298501Y314185D01*
X299031Y314031D01*
X299558Y313864D01*
X300080Y313685D01*
X300598Y313492D01*
X301110Y313287D01*
X301618Y313070D01*
X302120Y312840D01*
X302616Y312598D01*
X303106Y312343D01*
X303590Y312077D01*
X304067Y311799D01*
X304537Y311509D01*
X305000Y311208D01*
X305456Y310896D01*
X305903Y310572D01*
X306343Y310238D01*
X306774Y309893D01*
X307196Y309537D01*
X307610Y309171D01*
X308015Y308796D01*
X308410Y308410D01*
X308796Y308015D01*
X309171Y307610D01*
X309537Y307196D01*
X309893Y306774D01*
X310238Y306343D01*
X310572Y305903D01*
X310896Y305456D01*
X311208Y305000D01*
X311509Y304537D01*
X311799Y304067D01*
X312077Y303590D01*
X312343Y303106D01*
X312598Y302616D01*
X312840Y302120D01*
X313070Y301618D01*
X313287Y301110D01*
X313492Y300598D01*
X313685Y300080D01*
X313864Y299558D01*
X314031Y299031D01*
X314185Y298501D01*
X314326Y297967D01*
X314453Y297430D01*
X314568Y296890D01*
X314669Y296347D01*
X314756Y295801D01*
X314831Y295254D01*
X314892Y294705D01*
X314939Y294155D01*
X314973Y293604D01*
X314993Y293052D01*
X315000Y292500D01*
X314993Y291948D01*
X314973Y291396D01*
X314939Y290845D01*
X314892Y290295D01*
X314831Y289746D01*
X314756Y289199D01*
X314669Y288653D01*
X314568Y288110D01*
X314453Y287570D01*
X314326Y287033D01*
X314185Y286499D01*
X314031Y285969D01*
X313864Y285442D01*
X313685Y284920D01*
X313492Y284402D01*
X313287Y283890D01*
X313070Y283382D01*
X312840Y282880D01*
X312598Y282384D01*
X312343Y281894D01*
X312077Y281410D01*
X311799Y280933D01*
X311509Y280463D01*
X311208Y280000D01*
X310896Y279544D01*
X310572Y279097D01*
X310238Y278657D01*
X309893Y278226D01*
X309537Y277804D01*
X309171Y277390D01*
X308796Y276985D01*
X308410Y276590D01*
X308015Y276204D01*
X307610Y275829D01*
X307196Y275463D01*
X306774Y275107D01*
X306343Y274762D01*
X305903Y274428D01*
X305456Y274104D01*
X305000Y273792D01*
X304537Y273491D01*
X304067Y273201D01*
X303590Y272923D01*
X303106Y272657D01*
X302616Y272402D01*
X302120Y272160D01*
X301618Y271930D01*
X301110Y271713D01*
X300598Y271508D01*
X300080Y271315D01*
X299558Y271136D01*
X299031Y270969D01*
X298501Y270815D01*
X297967Y270674D01*
X297430Y270547D01*
X296890Y270432D01*
X296347Y270331D01*
X295801Y270244D01*
X295254Y270169D01*
X294705Y270108D01*
X294155Y270061D01*
X293604Y270027D01*
X293052Y270007D01*
X292500Y270000D01*
X291948Y270007D01*
X291396Y270027D01*
X290845Y270061D01*
X290295Y270108D01*
X289746Y270169D01*
X289199Y270244D01*
X288653Y270331D01*
X288110Y270432D01*
X287570Y270547D01*
X287033Y270674D01*
X286499Y270815D01*
X285969Y270969D01*
X285442Y271136D01*
X284920Y271315D01*
X284402Y271508D01*
X283890Y271713D01*
X283382Y271930D01*
X282880Y272160D01*
X282384Y272402D01*
X281894Y272657D01*
X281410Y272923D01*
X280933Y273201D01*
X280463Y273491D01*
X280000Y273792D01*
X279544Y274104D01*
X279097Y274428D01*
X278657Y274762D01*
X278226Y275107D01*
X277804Y275463D01*
X277390Y275829D01*
X276985Y276204D01*
X276590Y276590D01*
X276204Y276985D01*
X275829Y277390D01*
X275463Y277804D01*
X275107Y278226D01*
X274762Y278657D01*
X274428Y279097D01*
X274104Y279544D01*
X273792Y280000D01*
X273491Y280463D01*
X273201Y280933D01*
X272923Y281410D01*
X272657Y281894D01*
X272402Y282384D01*
X272160Y282880D01*
X271930Y283382D01*
X271713Y283890D01*
X271508Y284402D01*
X271315Y284920D01*
X271136Y285442D01*
X270969Y285969D01*
X270815Y286499D01*
X270674Y287033D01*
X270547Y287570D01*
X270432Y288110D01*
X270331Y288653D01*
X270244Y289199D01*
X270169Y289746D01*
X270108Y290295D01*
X270061Y290845D01*
X270027Y291396D01*
X270007Y291948D01*
X270000Y292500D01*
X270000Y207500D02*
X270007Y208052D01*
X270027Y208604D01*
X270061Y209155D01*
X270108Y209705D01*
X270169Y210254D01*
X270244Y210801D01*
X270331Y211347D01*
X270432Y211890D01*
X270547Y212430D01*
X270674Y212967D01*
X270815Y213501D01*
X270969Y214031D01*
X271136Y214558D01*
X271315Y215080D01*
X271508Y215598D01*
X271713Y216110D01*
X271930Y216618D01*
X272160Y217120D01*
X272402Y217616D01*
X272657Y218106D01*
X272923Y218590D01*
X273201Y219067D01*
X273491Y219537D01*
X273792Y220000D01*
X274104Y220456D01*
X274428Y220903D01*
X274762Y221343D01*
X275107Y221774D01*
X275463Y222196D01*
X275829Y222610D01*
X276204Y223015D01*
X276590Y223410D01*
X276985Y223796D01*
X277390Y224171D01*
X277804Y224537D01*
X278226Y224893D01*
X278657Y225238D01*
X279097Y225572D01*
X279544Y225896D01*
X280000Y226208D01*
X280463Y226509D01*
X280933Y226799D01*
X281410Y227077D01*
X281894Y227343D01*
X282384Y227598D01*
X282880Y227840D01*
X283382Y228070D01*
X283890Y228287D01*
X284402Y228492D01*
X284920Y228685D01*
X285442Y228864D01*
X285969Y229031D01*
X286499Y229185D01*
X287033Y229326D01*
X287570Y229453D01*
X288110Y229568D01*
X288653Y229669D01*
X289199Y229756D01*
X289746Y229831D01*
X290295Y229892D01*
X290845Y229939D01*
X291396Y229973D01*
X291948Y229993D01*
X292500Y230000D01*
X293052Y229993D01*
X293604Y229973D01*
X294155Y229939D01*
X294705Y229892D01*
X295254Y229831D01*
X295801Y229756D01*
X296347Y229669D01*
X296890Y229568D01*
X297430Y229453D01*
X297967Y229326D01*
X298501Y229185D01*
X299031Y229031D01*
X299558Y228864D01*
X300080Y228685D01*
X300598Y228492D01*
X301110Y228287D01*
X301618Y228070D01*
X302120Y227840D01*
X302616Y227598D01*
X303106Y227343D01*
X303590Y227077D01*
X304067Y226799D01*
X304537Y226509D01*
X305000Y226208D01*
X305456Y225896D01*
X305903Y225572D01*
X306343Y225238D01*
X306774Y224893D01*
X307196Y224537D01*
X307610Y224171D01*
X308015Y223796D01*
X308410Y223410D01*
X308796Y223015D01*
X309171Y222610D01*
X309537Y222196D01*
X309893Y221774D01*
X310238Y221343D01*
X310572Y220903D01*
X310896Y220456D01*
X311208Y220000D01*
X311509Y219537D01*
X311799Y219067D01*
X312077Y218590D01*
X312343Y218106D01*
X312598Y217616D01*
X312840Y217120D01*
X313070Y216618D01*
X313287Y216110D01*
X313492Y215598D01*
X313685Y215080D01*
X313864Y214558D01*
X314031Y214031D01*
X314185Y213501D01*
X314326Y212967D01*
X314453Y212430D01*
X314568Y211890D01*
X314669Y211347D01*
X314756Y210801D01*
X314831Y210254D01*
X314892Y209705D01*
X314939Y209155D01*
X314973Y208604D01*
X314993Y208052D01*
X315000Y207500D01*
X314993Y206948D01*
X314973Y206396D01*
X314939Y205845D01*
X314892Y205295D01*
X314831Y204746D01*
X314756Y204199D01*
X314669Y203653D01*
X314568Y203110D01*
X314453Y202570D01*
X314326Y202033D01*
X314185Y201499D01*
X314031Y200969D01*
X313864Y200442D01*
X313685Y199920D01*
X313492Y199402D01*
X313287Y198890D01*
X313070Y198382D01*
X312840Y197880D01*
X312598Y197384D01*
X312343Y196894D01*
X312077Y196410D01*
X311799Y195933D01*
X311509Y195463D01*
X311208Y195000D01*
X310896Y194544D01*
X310572Y194097D01*
X310238Y193657D01*
X309893Y193226D01*
X309537Y192804D01*
X309171Y192390D01*
X308796Y191985D01*
X308410Y191590D01*
X308015Y191204D01*
X307610Y190829D01*
X307196Y190463D01*
X306774Y190107D01*
X306343Y189762D01*
X305903Y189428D01*
X305456Y189104D01*
X305000Y188792D01*
X304537Y188491D01*
X304067Y188201D01*
X303590Y187923D01*
X303106Y187657D01*
X302616Y187402D01*
X302120Y187160D01*
X301618Y186930D01*
X301110Y186713D01*
X300598Y186508D01*
X300080Y186315D01*
X299558Y186136D01*
X299031Y185969D01*
X298501Y185815D01*
X297967Y185674D01*
X297430Y185547D01*
X296890Y185432D01*
X296347Y185331D01*
X295801Y185244D01*
X295254Y185169D01*
X294705Y185108D01*
X294155Y185061D01*
X293604Y185027D01*
X293052Y185007D01*
X292500Y185000D01*
X291948Y185007D01*
X291396Y185027D01*
X290845Y185061D01*
X290295Y185108D01*
X289746Y185169D01*
X289199Y185244D01*
X288653Y185331D01*
X288110Y185432D01*
X287570Y185547D01*
X287033Y185674D01*
X286499Y185815D01*
X285969Y185969D01*
X285442Y186136D01*
X284920Y186315D01*
X284402Y186508D01*
X283890Y186713D01*
X283382Y186930D01*
X282880Y187160D01*
X282384Y187402D01*
X281894Y187657D01*
X281410Y187923D01*
X280933Y188201D01*
X280463Y188491D01*
X280000Y188792D01*
X279544Y189104D01*
X279097Y189428D01*
X278657Y189762D01*
X278226Y190107D01*
X277804Y190463D01*
X277390Y190829D01*
X276985Y191204D01*
X276590Y191590D01*
X276204Y191985D01*
X275829Y192390D01*
X275463Y192804D01*
X275107Y193226D01*
X274762Y193657D01*
X274428Y194097D01*
X274104Y194544D01*
X273792Y195000D01*
X273491Y195463D01*
X273201Y195933D01*
X272923Y196410D01*
X272657Y196894D01*
X272402Y197384D01*
X272160Y197880D01*
X271930Y198382D01*
X271713Y198890D01*
X271508Y199402D01*
X271315Y199920D01*
X271136Y200442D01*
X270969Y200969D01*
X270815Y201499D01*
X270674Y202033D01*
X270547Y202570D01*
X270432Y203110D01*
X270331Y203653D01*
X270244Y204199D01*
X270169Y204746D01*
X270108Y205295D01*
X270061Y205845D01*
X270027Y206396D01*
X270007Y206948D01*
X270000Y207500D01*
X185000Y207500D02*
X185007Y208052D01*
X185027Y208604D01*
X185061Y209155D01*
X185108Y209705D01*
X185169Y210254D01*
X185244Y210801D01*
X185331Y211347D01*
X185432Y211890D01*
X185547Y212430D01*
X185674Y212967D01*
X185815Y213501D01*
X185969Y214031D01*
X186136Y214558D01*
X186315Y215080D01*
X186508Y215598D01*
X186713Y216110D01*
X186930Y216618D01*
X187160Y217120D01*
X187402Y217616D01*
X187657Y218106D01*
X187923Y218590D01*
X188201Y219067D01*
X188491Y219537D01*
X188792Y220000D01*
X189104Y220456D01*
X189428Y220903D01*
X189762Y221343D01*
X190107Y221774D01*
X190463Y222196D01*
X190829Y222610D01*
X191204Y223015D01*
X191590Y223410D01*
X191985Y223796D01*
X192390Y224171D01*
X192804Y224537D01*
X193226Y224893D01*
X193657Y225238D01*
X194097Y225572D01*
X194544Y225896D01*
X195000Y226208D01*
X195463Y226509D01*
X195933Y226799D01*
X196410Y227077D01*
X196894Y227343D01*
X197384Y227598D01*
X197880Y227840D01*
X198382Y228070D01*
X198890Y228287D01*
X199402Y228492D01*
X199920Y228685D01*
X200442Y228864D01*
X200969Y229031D01*
X201499Y229185D01*
X202033Y229326D01*
X202570Y229453D01*
X203110Y229568D01*
X203653Y229669D01*
X204199Y229756D01*
X204746Y229831D01*
X205295Y229892D01*
X205845Y229939D01*
X206396Y229973D01*
X206948Y229993D01*
X207500Y230000D01*
X208052Y229993D01*
X208604Y229973D01*
X209155Y229939D01*
X209705Y229892D01*
X210254Y229831D01*
X210801Y229756D01*
X211347Y229669D01*
X211890Y229568D01*
X212430Y229453D01*
X212967Y229326D01*
X213501Y229185D01*
X214031Y229031D01*
X214558Y228864D01*
X215080Y228685D01*
X215598Y228492D01*
X216110Y228287D01*
X216618Y228070D01*
X217120Y227840D01*
X217616Y227598D01*
X218106Y227343D01*
X218590Y227077D01*
X219067Y226799D01*
X219537Y226509D01*
X220000Y226208D01*
X220456Y225896D01*
X220903Y225572D01*
X221343Y225238D01*
X221774Y224893D01*
X222196Y224537D01*
X222610Y224171D01*
X223015Y223796D01*
X223410Y223410D01*
X223796Y223015D01*
X224171Y222610D01*
X224537Y222196D01*
X224893Y221774D01*
X225238Y221343D01*
X225572Y220903D01*
X225896Y220456D01*
X226208Y220000D01*
X226509Y219537D01*
X226799Y219067D01*
X227077Y218590D01*
X227343Y218106D01*
X227598Y217616D01*
X227840Y217120D01*
X228070Y216618D01*
X228287Y216110D01*
X228492Y215598D01*
X228685Y215080D01*
X228864Y214558D01*
X229031Y214031D01*
X229185Y213501D01*
X229326Y212967D01*
X229453Y212430D01*
X229568Y211890D01*
X229669Y211347D01*
X229756Y210801D01*
X229831Y210254D01*
X229892Y209705D01*
X229939Y209155D01*
X229973Y208604D01*
X229993Y208052D01*
X230000Y207500D01*
X229993Y206948D01*
X229973Y206396D01*
X229939Y205845D01*
X229892Y205295D01*
X229831Y204746D01*
X229756Y204199D01*
X229669Y203653D01*
X229568Y203110D01*
X229453Y202570D01*
X229326Y202033D01*
X229185Y201499D01*
X229031Y200969D01*
X228864Y200442D01*
X228685Y199920D01*
X228492Y199402D01*
X228287Y198890D01*
X228070Y198382D01*
X227840Y197880D01*
X227598Y197384D01*
X227343Y196894D01*
X227077Y196410D01*
X226799Y195933D01*
X226509Y195463D01*
X226208Y195000D01*
X225896Y194544D01*
X225572Y194097D01*
X225238Y193657D01*
X224893Y193226D01*
X224537Y192804D01*
X224171Y192390D01*
X223796Y191985D01*
X223410Y191590D01*
X223015Y191204D01*
X222610Y190829D01*
X222196Y190463D01*
X221774Y190107D01*
X221343Y189762D01*
X220903Y189428D01*
X220456Y189104D01*
X220000Y188792D01*
X219537Y188491D01*
X219067Y188201D01*
X218590Y187923D01*
X218106Y187657D01*
X217616Y187402D01*
X217120Y187160D01*
X216618Y186930D01*
X216110Y186713D01*
X215598Y186508D01*
X215080Y186315D01*
X214558Y186136D01*
X214031Y185969D01*
X213501Y185815D01*
X212967Y185674D01*
X212430Y185547D01*
X211890Y185432D01*
X211347Y185331D01*
X210801Y185244D01*
X210254Y185169D01*
X209705Y185108D01*
X209155Y185061D01*
X208604Y185027D01*
X208052Y185007D01*
X207500Y185000D01*
X206948Y185007D01*
X206396Y185027D01*
X205845Y185061D01*
X205295Y185108D01*
X204746Y185169D01*
X204199Y185244D01*
X203653Y185331D01*
X203110Y185432D01*
X202570Y185547D01*
X202033Y185674D01*
X201499Y185815D01*
X200969Y185969D01*
X200442Y186136D01*
X199920Y186315D01*
X199402Y186508D01*
X198890Y186713D01*
X198382Y186930D01*
X197880Y187160D01*
X197384Y187402D01*
X196894Y187657D01*
X196410Y187923D01*
X195933Y188201D01*
X195463Y188491D01*
X195000Y188792D01*
X194544Y189104D01*
X194097Y189428D01*
X193657Y189762D01*
X193226Y190107D01*
X192804Y190463D01*
X192390Y190829D01*
X191985Y191204D01*
X191590Y191590D01*
X191204Y191985D01*
X190829Y192390D01*
X190463Y192804D01*
X190107Y193226D01*
X189762Y193657D01*
X189428Y194097D01*
X189104Y194544D01*
X188792Y195000D01*
X188491Y195463D01*
X188201Y195933D01*
X187923Y196410D01*
X187657Y196894D01*
X187402Y197384D01*
X187160Y197880D01*
X186930Y198382D01*
X186713Y198890D01*
X186508Y199402D01*
X186315Y199920D01*
X186136Y200442D01*
X185969Y200969D01*
X185815Y201499D01*
X185674Y202033D01*
X185547Y202570D01*
X185432Y203110D01*
X185331Y203653D01*
X185244Y204199D01*
X185169Y204746D01*
X185108Y205295D01*
X185061Y205845D01*
X185027Y206396D01*
X185007Y206948D01*
X185000Y207500D01*
X185000Y292500D02*
X185007Y293052D01*
X185027Y293604D01*
X185061Y294155D01*
X185108Y294705D01*
X185169Y295254D01*
X185244Y295801D01*
X185331Y296347D01*
X185432Y296890D01*
X185547Y297430D01*
X185674Y297967D01*
X185815Y298501D01*
X185969Y299031D01*
X186136Y299558D01*
X186315Y300080D01*
X186508Y300598D01*
X186713Y301110D01*
X186930Y301618D01*
X187160Y302120D01*
X187402Y302616D01*
X187657Y303106D01*
X187923Y303590D01*
X188201Y304067D01*
X188491Y304537D01*
X188792Y305000D01*
X189104Y305456D01*
X189428Y305903D01*
X189762Y306343D01*
X190107Y306774D01*
X190463Y307196D01*
X190829Y307610D01*
X191204Y308015D01*
X191590Y308410D01*
X191985Y308796D01*
X192390Y309171D01*
X192804Y309537D01*
X193226Y309893D01*
X193657Y310238D01*
X194097Y310572D01*
X194544Y310896D01*
X195000Y311208D01*
X195463Y311509D01*
X195933Y311799D01*
X196410Y312077D01*
X196894Y312343D01*
X197384Y312598D01*
X197880Y312840D01*
X198382Y313070D01*
X198890Y313287D01*
X199402Y313492D01*
X199920Y313685D01*
X200442Y313864D01*
X200969Y314031D01*
X201499Y314185D01*
X202033Y314326D01*
X202570Y314453D01*
X203110Y314568D01*
X203653Y314669D01*
X204199Y314756D01*
X204746Y314831D01*
X205295Y314892D01*
X205845Y314939D01*
X206396Y314973D01*
X206948Y314993D01*
X207500Y315000D01*
X208052Y314993D01*
X208604Y314973D01*
X209155Y314939D01*
X209705Y314892D01*
X210254Y314831D01*
X210801Y314756D01*
X211347Y314669D01*
X211890Y314568D01*
X212430Y314453D01*
X212967Y314326D01*
X213501Y314185D01*
X214031Y314031D01*
X214558Y313864D01*
X215080Y313685D01*
X215598Y313492D01*
X216110Y313287D01*
X216618Y313070D01*
X217120Y312840D01*
X217616Y312598D01*
X218106Y312343D01*
X218590Y312077D01*
X219067Y311799D01*
X219537Y311509D01*
X220000Y311208D01*
X220456Y310896D01*
X220903Y310572D01*
X221343Y310238D01*
X221774Y309893D01*
X222196Y309537D01*
X222610Y309171D01*
X223015Y308796D01*
X223410Y308410D01*
X223796Y308015D01*
X224171Y307610D01*
X224537Y307196D01*
X224893Y306774D01*
X225238Y306343D01*
X225572Y305903D01*
X225896Y305456D01*
X226208Y305000D01*
X226509Y304537D01*
X226799Y304067D01*
X227077Y303590D01*
X227343Y303106D01*
X227598Y302616D01*
X227840Y302120D01*
X228070Y301618D01*
X228287Y301110D01*
X228492Y300598D01*
X228685Y300080D01*
X228864Y299558D01*
X229031Y299031D01*
X229185Y298501D01*
X229326Y297967D01*
X229453Y297430D01*
X229568Y296890D01*
X229669Y296347D01*
X229756Y295801D01*
X229831Y295254D01*
X229892Y294705D01*
X229939Y294155D01*
X229973Y293604D01*
X229993Y293052D01*
X230000Y292500D01*
X229993Y291948D01*
X229973Y291396D01*
X229939Y290845D01*
X229892Y290295D01*
X229831Y289746D01*
X229756Y289199D01*
X229669Y288653D01*
X229568Y288110D01*
X229453Y287570D01*
X229326Y287033D01*
X229185Y286499D01*
X229031Y285969D01*
X228864Y285442D01*
X228685Y284920D01*
X228492Y284402D01*
X228287Y283890D01*
X228070Y283382D01*
X227840Y282880D01*
X227598Y282384D01*
X227343Y281894D01*
X227077Y281410D01*
X226799Y280933D01*
X226509Y280463D01*
X226208Y280000D01*
X225896Y279544D01*
X225572Y279097D01*
X225238Y278657D01*
X224893Y278226D01*
X224537Y277804D01*
X224171Y277390D01*
X223796Y276985D01*
X223410Y276590D01*
X223015Y276204D01*
X222610Y275829D01*
X222196Y275463D01*
X221774Y275107D01*
X221343Y274762D01*
X220903Y274428D01*
X220456Y274104D01*
X220000Y273792D01*
X219537Y273491D01*
X219067Y273201D01*
X218590Y272923D01*
X218106Y272657D01*
X217616Y272402D01*
X217120Y272160D01*
X216618Y271930D01*
X216110Y271713D01*
X215598Y271508D01*
X215080Y271315D01*
X214558Y271136D01*
X214031Y270969D01*
X213501Y270815D01*
X212967Y270674D01*
X212430Y270547D01*
X211890Y270432D01*
X211347Y270331D01*
X210801Y270244D01*
X210254Y270169D01*
X209705Y270108D01*
X209155Y270061D01*
X208604Y270027D01*
X208052Y270007D01*
X207500Y270000D01*
X206948Y270007D01*
X206396Y270027D01*
X205845Y270061D01*
X205295Y270108D01*
X204746Y270169D01*
X204199Y270244D01*
X203653Y270331D01*
X203110Y270432D01*
X202570Y270547D01*
X202033Y270674D01*
X201499Y270815D01*
X200969Y270969D01*
X200442Y271136D01*
X199920Y271315D01*
X199402Y271508D01*
X198890Y271713D01*
X198382Y271930D01*
X197880Y272160D01*
X197384Y272402D01*
X196894Y272657D01*
X196410Y272923D01*
X195933Y273201D01*
X195463Y273491D01*
X195000Y273792D01*
X194544Y274104D01*
X194097Y274428D01*
X193657Y274762D01*
X193226Y275107D01*
X192804Y275463D01*
X192390Y275829D01*
X191985Y276204D01*
X191590Y276590D01*
X191204Y276985D01*
X190829Y277390D01*
X190463Y277804D01*
X190107Y278226D01*
X189762Y278657D01*
X189428Y279097D01*
X189104Y279544D01*
X188792Y280000D01*
X188491Y280463D01*
X188201Y280933D01*
X187923Y281410D01*
X187657Y281894D01*
X187402Y282384D01*
X187160Y282880D01*
X186930Y283382D01*
X186713Y283890D01*
X186508Y284402D01*
X186315Y284920D01*
X186136Y285442D01*
X185969Y285969D01*
X185815Y286499D01*
X185674Y287033D01*
X185547Y287570D01*
X185432Y288110D01*
X185331Y288653D01*
X185244Y289199D01*
X185169Y289746D01*
X185108Y290295D01*
X185061Y290845D01*
X185027Y291396D01*
X185007Y291948D01*
X185000Y292500D01*
D13*
X343695Y484248D02*
X357345Y484248D01*
M02*
