G04 EAGLE Gerber RS-274X export*
G75*
%MOMM*%
%FSLAX34Y34*%
%LPD*%
%INSoldermask Top*%
%IPPOS*%
%AMOC8*
5,1,8,0,0,1.08239X$1,22.5*%
G01*
%ADD10R,1.981200X0.457200*%
%ADD11R,0.508000X3.759200*%
%ADD12R,0.743200X1.053200*%
%ADD13C,3.203200*%
%ADD14C,2.082800*%
%ADD15R,1.503200X1.703200*%
%ADD16R,1.703200X1.503200*%
%ADD17C,2.082800*%
%ADD18R,1.803200X1.503200*%
%ADD19R,1.503200X1.803200*%
%ADD20R,1.803200X3.703200*%
%ADD21C,2.203200*%
%ADD22R,0.753200X1.403200*%
%ADD23C,0.959600*%


D10*
X231420Y97500D03*
X231420Y92500D03*
X231420Y87500D03*
X231420Y82500D03*
X231420Y77500D03*
X231420Y72500D03*
X231420Y67500D03*
X231420Y62500D03*
D11*
X246000Y59420D03*
X253000Y59420D03*
X260000Y59420D03*
X267000Y59420D03*
X274000Y59420D03*
D10*
X287564Y62500D03*
X287564Y67500D03*
X287564Y72500D03*
X287564Y77500D03*
X287564Y82500D03*
X287564Y87500D03*
X287564Y92500D03*
X287564Y97500D03*
D11*
X274000Y99564D03*
X267000Y99564D03*
X260000Y99564D03*
X253000Y99564D03*
X246000Y99564D03*
D12*
G36*
X28876Y133219D02*
X23621Y138474D01*
X31068Y145921D01*
X36323Y140666D01*
X28876Y133219D01*
G37*
G36*
X34533Y127562D02*
X29278Y132817D01*
X36725Y140264D01*
X41980Y135009D01*
X34533Y127562D01*
G37*
G36*
X40190Y121905D02*
X34935Y127160D01*
X42382Y134607D01*
X47637Y129352D01*
X40190Y121905D01*
G37*
G36*
X45847Y116249D02*
X40592Y121504D01*
X48039Y128951D01*
X53294Y123696D01*
X45847Y116249D01*
G37*
G36*
X51504Y110592D02*
X46249Y115847D01*
X53696Y123294D01*
X58951Y118039D01*
X51504Y110592D01*
G37*
G36*
X57090Y105006D02*
X51835Y110261D01*
X59282Y117708D01*
X64537Y112453D01*
X57090Y105006D01*
G37*
G36*
X62747Y99349D02*
X57492Y104604D01*
X64939Y112051D01*
X70194Y106796D01*
X62747Y99349D01*
G37*
G36*
X68403Y93692D02*
X63148Y98947D01*
X70595Y106394D01*
X75850Y101139D01*
X68403Y93692D01*
G37*
G36*
X96781Y98876D02*
X91526Y93621D01*
X84079Y101068D01*
X89334Y106323D01*
X96781Y98876D01*
G37*
G36*
X102438Y104533D02*
X97183Y99278D01*
X89736Y106725D01*
X94991Y111980D01*
X102438Y104533D01*
G37*
G36*
X108095Y110190D02*
X102840Y104935D01*
X95393Y112382D01*
X100648Y117637D01*
X108095Y110190D01*
G37*
G36*
X113751Y115847D02*
X108496Y110592D01*
X101049Y118039D01*
X106304Y123294D01*
X113751Y115847D01*
G37*
G36*
X119408Y121504D02*
X114153Y116249D01*
X106706Y123696D01*
X111961Y128951D01*
X119408Y121504D01*
G37*
G36*
X125065Y127160D02*
X119810Y121905D01*
X112363Y129352D01*
X117618Y134607D01*
X125065Y127160D01*
G37*
G36*
X130722Y132817D02*
X125467Y127562D01*
X118020Y135009D01*
X123275Y140264D01*
X130722Y132817D01*
G37*
G36*
X136379Y138474D02*
X131124Y133219D01*
X123677Y140666D01*
X128932Y145921D01*
X136379Y138474D01*
G37*
G36*
X131124Y166781D02*
X136379Y161526D01*
X128932Y154079D01*
X123677Y159334D01*
X131124Y166781D01*
G37*
G36*
X125467Y172438D02*
X130722Y167183D01*
X123275Y159736D01*
X118020Y164991D01*
X125467Y172438D01*
G37*
G36*
X119810Y178095D02*
X125065Y172840D01*
X117618Y165393D01*
X112363Y170648D01*
X119810Y178095D01*
G37*
G36*
X114153Y183751D02*
X119408Y178496D01*
X111961Y171049D01*
X106706Y176304D01*
X114153Y183751D01*
G37*
G36*
X108496Y189408D02*
X113751Y184153D01*
X106304Y176706D01*
X101049Y181961D01*
X108496Y189408D01*
G37*
G36*
X102840Y195065D02*
X108095Y189810D01*
X100648Y182363D01*
X95393Y187618D01*
X102840Y195065D01*
G37*
G36*
X97183Y200722D02*
X102438Y195467D01*
X94991Y188020D01*
X89736Y193275D01*
X97183Y200722D01*
G37*
G36*
X91526Y206379D02*
X96781Y201124D01*
X89334Y193677D01*
X84079Y198932D01*
X91526Y206379D01*
G37*
G36*
X63219Y201124D02*
X68474Y206379D01*
X75921Y198932D01*
X70666Y193677D01*
X63219Y201124D01*
G37*
G36*
X57562Y195467D02*
X62817Y200722D01*
X70264Y193275D01*
X65009Y188020D01*
X57562Y195467D01*
G37*
G36*
X51905Y189810D02*
X57160Y195065D01*
X64607Y187618D01*
X59352Y182363D01*
X51905Y189810D01*
G37*
G36*
X46249Y184153D02*
X51504Y189408D01*
X58951Y181961D01*
X53696Y176706D01*
X46249Y184153D01*
G37*
G36*
X40592Y178496D02*
X45847Y183751D01*
X53294Y176304D01*
X48039Y171049D01*
X40592Y178496D01*
G37*
G36*
X34935Y172840D02*
X40190Y178095D01*
X47637Y170648D01*
X42382Y165393D01*
X34935Y172840D01*
G37*
G36*
X29278Y167183D02*
X34533Y172438D01*
X41980Y164991D01*
X36725Y159736D01*
X29278Y167183D01*
G37*
G36*
X23621Y161526D02*
X28876Y166781D01*
X36323Y159334D01*
X31068Y154079D01*
X23621Y161526D01*
G37*
D13*
X470000Y40000D03*
X470000Y460000D03*
X40000Y40000D03*
X40000Y460000D03*
D14*
X230000Y13904D03*
X255400Y13904D03*
X280800Y13904D03*
D15*
X14404Y248664D03*
X33404Y248664D03*
D16*
X166096Y186076D03*
X166096Y167076D03*
D15*
X14404Y227808D03*
X33404Y227808D03*
X319500Y130000D03*
X300500Y130000D03*
X335196Y107200D03*
X354196Y107200D03*
D16*
X313904Y27452D03*
X313904Y46452D03*
X356408Y63444D03*
X356408Y44444D03*
X376408Y63444D03*
X376408Y44444D03*
D17*
X380000Y450602D02*
X380000Y469398D01*
X405400Y469398D02*
X405400Y450602D01*
D18*
X279144Y419876D03*
X279144Y400876D03*
D19*
X15988Y273632D03*
X34988Y273632D03*
D15*
X15988Y295344D03*
X34988Y295344D03*
D17*
X470602Y300000D02*
X489398Y300000D01*
X489398Y325400D02*
X470602Y325400D01*
X470602Y350800D02*
X489398Y350800D01*
X489398Y376200D02*
X470602Y376200D01*
X470602Y401600D02*
X489398Y401600D01*
D19*
X168244Y84760D03*
X187244Y84760D03*
X168244Y105616D03*
X187244Y105616D03*
X168244Y126472D03*
X187244Y126472D03*
D17*
X470602Y100000D02*
X489398Y100000D01*
X489398Y125400D02*
X470602Y125400D01*
X470602Y180000D02*
X489398Y180000D01*
X489398Y205400D02*
X470602Y205400D01*
X470602Y230800D02*
X489398Y230800D01*
X489398Y256200D02*
X470602Y256200D01*
D20*
X420000Y147000D03*
X420000Y93000D03*
D18*
X230312Y139916D03*
X230312Y120916D03*
X303904Y400500D03*
X303904Y419500D03*
X327808Y400500D03*
X327808Y419500D03*
X150416Y220372D03*
X150416Y239372D03*
X172232Y220372D03*
X172232Y239372D03*
D16*
X449080Y212148D03*
X449080Y193148D03*
D18*
X427808Y195260D03*
X427808Y214260D03*
D16*
X351816Y233484D03*
X351816Y214484D03*
X373632Y233484D03*
X373632Y214484D03*
D21*
X207500Y292500D03*
X292500Y292500D03*
X292500Y207500D03*
X207500Y207500D03*
D22*
X391436Y206311D03*
X400936Y206311D03*
X410436Y206311D03*
X410436Y232313D03*
X391436Y232313D03*
D18*
X350520Y401980D03*
X350520Y420980D03*
D23*
X335280Y42672D03*
X292608Y42672D03*
X399288Y54864D03*
X408432Y64008D03*
X344424Y88392D03*
X320040Y97536D03*
X347472Y131064D03*
X234696Y42672D03*
X335280Y12192D03*
X417576Y12192D03*
X441960Y164592D03*
X362712Y204216D03*
X54864Y140208D03*
X21336Y164592D03*
X176784Y42672D03*
X94488Y42672D03*
X182880Y170688D03*
X481584Y280416D03*
X371856Y173736D03*
X283464Y463296D03*
X387096Y414528D03*
X385572Y388620D03*
X422148Y342900D03*
X236220Y352044D03*
X114300Y352044D03*
X175260Y416052D03*
X248412Y416052D03*
X138684Y428244D03*
X16764Y416052D03*
X59436Y336804D03*
X86868Y483108D03*
X239268Y483108D03*
X318516Y306324D03*
X178308Y306324D03*
X65532Y275844D03*
X77724Y224028D03*
X123444Y224028D03*
X86868Y123444D03*
X44196Y89916D03*
X245364Y138684D03*
X443484Y117348D03*
X326136Y185928D03*
X286512Y249936D03*
X420624Y283464D03*
X350520Y344424D03*
X429768Y429768D03*
X15240Y335280D03*
X108204Y297180D03*
X182880Y185928D03*
X350520Y192024D03*
X249936Y182880D03*
X280416Y42672D03*
X259546Y39158D03*
X426720Y225552D03*
X405384Y155448D03*
X210312Y124968D03*
X82296Y179832D03*
X206530Y115824D03*
X70104Y176784D03*
X201168Y85344D03*
X60960Y170688D03*
X332232Y70104D03*
X158496Y124968D03*
X320040Y70104D03*
X155448Y100584D03*
X307848Y61694D03*
X155448Y85344D03*
X24384Y124968D03*
X15240Y313944D03*
X97536Y310896D03*
X36576Y313944D03*
X70104Y131064D03*
X88392Y240792D03*
X88392Y277368D03*
X103632Y240792D03*
X103632Y277368D03*
X140208Y185928D03*
X140208Y198120D03*
X185928Y246888D03*
X128016Y252984D03*
X149352Y271272D03*
X237744Y304800D03*
X326136Y387096D03*
X252984Y304800D03*
X304800Y347472D03*
X301752Y432816D03*
X326136Y432816D03*
X347472Y432816D03*
M02*
