M48
;GenerationSoftware,Autodesk,EAGLE,9.6.2*%
;CreationDate,2023-03-18T17:05:16Z*%
FMAT,2
ICI,OFF
METRIC,TZ,000.000
T5C0.350
T4C1.016
T3C1.118
T2C2.000
T1C3.000
%
G90
M71
T1
X4000Y46000
X4000Y4000
X47000Y46000
X47000Y4000
T2
X20750Y20750
X29250Y20750
X29250Y29250
X20750Y29250
T3
X48000Y25620
X48000Y23080
X48000Y20540
X48000Y18000
X48000Y12540
X48000Y10000
X48000Y40160
X48000Y37620
X48000Y35080
X48000Y32540
X48000Y30000
X40540Y46000
X38000Y46000
T4
X28080Y1390
X25540Y1390
X23000Y1390
T5
X13868Y42824
X1676Y41605
X5944Y33680
X8687Y48311
X23927Y48311
X31852Y30632
X17831Y30632
X6553Y27584
X7772Y22403
X12344Y22403
X8687Y12344
X4420Y8992
X19964Y12649
X44348Y11735
X32614Y18593
X28651Y24994
X42062Y28346
X35052Y34442
X42977Y42977
X1524Y33528
X10820Y29718
X13716Y9449
X35662Y2743
X33833Y2743
X30785Y7620
X7925Y17678
X23622Y14173
X28042Y12802
X21946Y10668
X41758Y3353
X35052Y19202
X28042Y4267
X25955Y3916
X42672Y22555
X40538Y15545
X2438Y12497
X1524Y31394
X9754Y31090
X3658Y31394
X7010Y13106
X8839Y24079
X8839Y27737
X10363Y24079
X10363Y27737
X14021Y18593
X14021Y19812
X18593Y24689
X12802Y25298
X14935Y27127
X23774Y30480
X32614Y38710
X25298Y30480
X30480Y34747
X30175Y43282
X32614Y43282
X34747Y43282
X30175Y4572
X20117Y8839
X24841Y41605
X17526Y41605
X11430Y35204
X23622Y35204
X42215Y34290
X38557Y38862
X38710Y41453
X28346Y46330
X37186Y17374
X48158Y28042
X18288Y17069
X9449Y4267
X16459Y4267
X2134Y16459
X5486Y14021
X36271Y20422
X44196Y16459
X41758Y1829
X23470Y4267
X34747Y13106
X32004Y9754
X34442Y8839
X41758Y4877
X18288Y18593
M30